G04 #@! TF.GenerationSoftware,KiCad,Pcbnew,(5.1.2)-2*
G04 #@! TF.CreationDate,2019-08-06T23:19:59+02:00*
G04 #@! TF.ProjectId,Benjolin_Kicad,42656e6a-6f6c-4696-9e5f-4b696361642e,rev?*
G04 #@! TF.SameCoordinates,Original*
G04 #@! TF.FileFunction,Legend,Top*
G04 #@! TF.FilePolarity,Positive*
%FSLAX46Y46*%
G04 Gerber Fmt 4.6, Leading zero omitted, Abs format (unit mm)*
G04 Created by KiCad (PCBNEW (5.1.2)-2) date 2019-08-06 23:19:59*
%MOMM*%
%LPD*%
G04 APERTURE LIST*
%ADD10C,0.120000*%
%ADD11C,0.150000*%
G04 APERTURE END LIST*
D10*
X195519100Y-161194380D02*
X185478100Y-161194380D01*
X187128100Y-148954380D02*
X185478100Y-148954380D01*
X189627100Y-148954380D02*
X188868100Y-148954380D01*
X192127100Y-148954380D02*
X191368100Y-148954380D01*
X195519100Y-148954380D02*
X193869100Y-148954380D01*
X185478100Y-157258380D02*
X185478100Y-161194380D01*
X185478100Y-148954380D02*
X185478100Y-152891380D01*
X195519100Y-157258380D02*
X195519100Y-161194380D01*
X195519100Y-148954380D02*
X195519100Y-152891380D01*
X220921640Y-110854380D02*
X220921640Y-114791380D01*
X220921640Y-119158380D02*
X220921640Y-123094380D01*
X210880640Y-110854380D02*
X210880640Y-114791380D01*
X210880640Y-119158380D02*
X210880640Y-123094380D01*
X220921640Y-110854380D02*
X219271640Y-110854380D01*
X217529640Y-110854380D02*
X216770640Y-110854380D01*
X215029640Y-110854380D02*
X214270640Y-110854380D01*
X212530640Y-110854380D02*
X210880640Y-110854380D01*
X220921640Y-123094380D02*
X210880640Y-123094380D01*
X195719700Y-41275000D02*
G75*
G03X195719700Y-41275000I-5219700J0D01*
G01*
X246519700Y-41275000D02*
G75*
G03X246519700Y-41275000I-5219700J0D01*
G01*
X271919700Y-41275000D02*
G75*
G03X271919700Y-41275000I-5219700J0D01*
G01*
X246301320Y-15645020D02*
X246301320Y-19582020D01*
X246301320Y-23949020D02*
X246301320Y-27885020D01*
X236260320Y-15645020D02*
X236260320Y-19582020D01*
X236260320Y-23949020D02*
X236260320Y-27885020D01*
X246301320Y-15645020D02*
X244651320Y-15645020D01*
X242909320Y-15645020D02*
X242150320Y-15645020D01*
X240409320Y-15645020D02*
X239650320Y-15645020D01*
X237910320Y-15645020D02*
X236260320Y-15645020D01*
X246301320Y-27885020D02*
X236260320Y-27885020D01*
X195501320Y-15639940D02*
X195501320Y-19576940D01*
X195501320Y-23943940D02*
X195501320Y-27879940D01*
X185460320Y-15639940D02*
X185460320Y-19576940D01*
X185460320Y-23943940D02*
X185460320Y-27879940D01*
X195501320Y-15639940D02*
X193851320Y-15639940D01*
X192109320Y-15639940D02*
X191350320Y-15639940D01*
X189609320Y-15639940D02*
X188850320Y-15639940D01*
X187110320Y-15639940D02*
X185460320Y-15639940D01*
X195501320Y-27879940D02*
X185460320Y-27879940D01*
X246321640Y-148956920D02*
X246321640Y-152893920D01*
X246321640Y-157260920D02*
X246321640Y-161196920D01*
X236280640Y-148956920D02*
X236280640Y-152893920D01*
X236280640Y-157260920D02*
X236280640Y-161196920D01*
X246321640Y-148956920D02*
X244671640Y-148956920D01*
X242929640Y-148956920D02*
X242170640Y-148956920D01*
X240429640Y-148956920D02*
X239670640Y-148956920D01*
X237930640Y-148956920D02*
X236280640Y-148956920D01*
X246321640Y-161196920D02*
X236280640Y-161196920D01*
X220921640Y-161191840D02*
X210880640Y-161191840D01*
X212530640Y-148951840D02*
X210880640Y-148951840D01*
X215029640Y-148951840D02*
X214270640Y-148951840D01*
X217529640Y-148951840D02*
X216770640Y-148951840D01*
X220921640Y-148951840D02*
X219271640Y-148951840D01*
X210880640Y-157255840D02*
X210880640Y-161191840D01*
X210880640Y-148951840D02*
X210880640Y-152888840D01*
X220921640Y-157255840D02*
X220921640Y-161191840D01*
X220921640Y-148951840D02*
X220921640Y-152888840D01*
X221119700Y-41275000D02*
G75*
G03X221119700Y-41275000I-5219700J0D01*
G01*
X271919700Y-22225000D02*
G75*
G03X271919700Y-22225000I-5219700J0D01*
G01*
X220901320Y-27882480D02*
X210860320Y-27882480D01*
X212510320Y-15642480D02*
X210860320Y-15642480D01*
X215009320Y-15642480D02*
X214250320Y-15642480D01*
X217509320Y-15642480D02*
X216750320Y-15642480D01*
X220901320Y-15642480D02*
X219251320Y-15642480D01*
X210860320Y-23946480D02*
X210860320Y-27882480D01*
X210860320Y-15642480D02*
X210860320Y-19579480D01*
X220901320Y-23946480D02*
X220901320Y-27882480D01*
X220901320Y-15642480D02*
X220901320Y-19579480D01*
X271721640Y-161191840D02*
X261680640Y-161191840D01*
X263330640Y-148951840D02*
X261680640Y-148951840D01*
X265829640Y-148951840D02*
X265070640Y-148951840D01*
X268329640Y-148951840D02*
X267570640Y-148951840D01*
X271721640Y-148951840D02*
X270071640Y-148951840D01*
X261680640Y-157255840D02*
X261680640Y-161191840D01*
X261680640Y-148951840D02*
X261680640Y-152888840D01*
X271721640Y-157255840D02*
X271721640Y-161191840D01*
X271721640Y-148951840D02*
X271721640Y-152888840D01*
X195519100Y-110859460D02*
X195519100Y-114796460D01*
X195519100Y-119163460D02*
X195519100Y-123099460D01*
X185478100Y-110859460D02*
X185478100Y-114796460D01*
X185478100Y-119163460D02*
X185478100Y-123099460D01*
X195519100Y-110859460D02*
X193869100Y-110859460D01*
X192127100Y-110859460D02*
X191368100Y-110859460D01*
X189627100Y-110859460D02*
X188868100Y-110859460D01*
X187128100Y-110859460D02*
X185478100Y-110859460D01*
X195519100Y-123099460D02*
X185478100Y-123099460D01*
X246321640Y-123096920D02*
X236280640Y-123096920D01*
X237930640Y-110856920D02*
X236280640Y-110856920D01*
X240429640Y-110856920D02*
X239670640Y-110856920D01*
X242929640Y-110856920D02*
X242170640Y-110856920D01*
X246321640Y-110856920D02*
X244671640Y-110856920D01*
X236280640Y-119160920D02*
X236280640Y-123096920D01*
X236280640Y-110856920D02*
X236280640Y-114793920D01*
X246321640Y-119160920D02*
X246321640Y-123096920D01*
X246321640Y-110856920D02*
X246321640Y-114793920D01*
X195521640Y-129906920D02*
X195521640Y-133843920D01*
X195521640Y-138210920D02*
X195521640Y-142146920D01*
X185480640Y-129906920D02*
X185480640Y-133843920D01*
X185480640Y-138210920D02*
X185480640Y-142146920D01*
X195521640Y-129906920D02*
X193871640Y-129906920D01*
X192129640Y-129906920D02*
X191370640Y-129906920D01*
X189629640Y-129906920D02*
X188870640Y-129906920D01*
X187130640Y-129906920D02*
X185480640Y-129906920D01*
X195521640Y-142146920D02*
X185480640Y-142146920D01*
X220921640Y-129906920D02*
X220921640Y-133843920D01*
X220921640Y-138210920D02*
X220921640Y-142146920D01*
X210880640Y-129906920D02*
X210880640Y-133843920D01*
X210880640Y-138210920D02*
X210880640Y-142146920D01*
X220921640Y-129906920D02*
X219271640Y-129906920D01*
X217529640Y-129906920D02*
X216770640Y-129906920D01*
X215029640Y-129906920D02*
X214270640Y-129906920D01*
X212530640Y-129906920D02*
X210880640Y-129906920D01*
X220921640Y-142146920D02*
X210880640Y-142146920D01*
X271721640Y-123091840D02*
X261680640Y-123091840D01*
X263330640Y-110851840D02*
X261680640Y-110851840D01*
X265829640Y-110851840D02*
X265070640Y-110851840D01*
X268329640Y-110851840D02*
X267570640Y-110851840D01*
X271721640Y-110851840D02*
X270071640Y-110851840D01*
X261680640Y-119155840D02*
X261680640Y-123091840D01*
X261680640Y-110851840D02*
X261680640Y-114788840D01*
X271721640Y-119155840D02*
X271721640Y-123091840D01*
X271721640Y-110851840D02*
X271721640Y-114788840D01*
X246324180Y-142144380D02*
X236283180Y-142144380D01*
X237933180Y-129904380D02*
X236283180Y-129904380D01*
X240432180Y-129904380D02*
X239673180Y-129904380D01*
X242932180Y-129904380D02*
X242173180Y-129904380D01*
X246324180Y-129904380D02*
X244674180Y-129904380D01*
X236283180Y-138208380D02*
X236283180Y-142144380D01*
X236283180Y-129904380D02*
X236283180Y-133841380D01*
X246324180Y-138208380D02*
X246324180Y-142144380D01*
X246324180Y-129904380D02*
X246324180Y-133841380D01*
X195719700Y-60325000D02*
G75*
G03X195719700Y-60325000I-5219700J0D01*
G01*
X246519700Y-79375000D02*
G75*
G03X246519700Y-79375000I-5219700J0D01*
G01*
X221119700Y-60325000D02*
G75*
G03X221119700Y-60325000I-5219700J0D01*
G01*
X271919700Y-98425000D02*
G75*
G03X271919700Y-98425000I-5219700J0D01*
G01*
X268030000Y-137795000D02*
X265370000Y-137795000D01*
X268030000Y-137795000D02*
X268030000Y-132655000D01*
X268030000Y-132655000D02*
X265370000Y-132655000D01*
X265370000Y-137795000D02*
X265370000Y-132655000D01*
X265370000Y-140395000D02*
X265370000Y-139065000D01*
X266700000Y-140395000D02*
X265370000Y-140395000D01*
X271919700Y-60325000D02*
G75*
G03X271919700Y-60325000I-5219700J0D01*
G01*
X271919700Y-79375000D02*
G75*
G03X271919700Y-79375000I-5219700J0D01*
G01*
X246519700Y-98425000D02*
G75*
G03X246519700Y-98425000I-5219700J0D01*
G01*
X221119700Y-79375000D02*
G75*
G03X221119700Y-79375000I-5219700J0D01*
G01*
X195719700Y-79375000D02*
G75*
G03X195719700Y-79375000I-5219700J0D01*
G01*
X246519700Y-60325000D02*
G75*
G03X246519700Y-60325000I-5219700J0D01*
G01*
X195719700Y-98425000D02*
G75*
G03X195719700Y-98425000I-5219700J0D01*
G01*
X221119700Y-98425000D02*
G75*
G03X221119700Y-98425000I-5219700J0D01*
G01*
D11*
X198869560Y-158848299D02*
X197869560Y-158848299D01*
X197869560Y-158467346D01*
X197917180Y-158372108D01*
X197964799Y-158324489D01*
X198060037Y-158276870D01*
X198202894Y-158276870D01*
X198298132Y-158324489D01*
X198345751Y-158372108D01*
X198393370Y-158467346D01*
X198393370Y-158848299D01*
X198964799Y-158086394D02*
X198964799Y-157324489D01*
X198345751Y-156753060D02*
X198345751Y-157086394D01*
X198869560Y-157086394D02*
X197869560Y-157086394D01*
X197869560Y-156610203D01*
X198869560Y-156229251D02*
X198202894Y-156229251D01*
X198393370Y-156229251D02*
X198298132Y-156181632D01*
X198250513Y-156134013D01*
X198202894Y-156038775D01*
X198202894Y-155943537D01*
X198821941Y-155229251D02*
X198869560Y-155324489D01*
X198869560Y-155514965D01*
X198821941Y-155610203D01*
X198726703Y-155657822D01*
X198345751Y-155657822D01*
X198250513Y-155610203D01*
X198202894Y-155514965D01*
X198202894Y-155324489D01*
X198250513Y-155229251D01*
X198345751Y-155181632D01*
X198440989Y-155181632D01*
X198536227Y-155657822D01*
X198202894Y-154324489D02*
X199202894Y-154324489D01*
X198821941Y-154324489D02*
X198869560Y-154419727D01*
X198869560Y-154610203D01*
X198821941Y-154705441D01*
X198774322Y-154753060D01*
X198679084Y-154800680D01*
X198393370Y-154800680D01*
X198298132Y-154753060D01*
X198250513Y-154705441D01*
X198202894Y-154610203D01*
X198202894Y-154419727D01*
X198250513Y-154324489D01*
X198964799Y-154086394D02*
X198964799Y-153324489D01*
X198583846Y-153134013D02*
X198583846Y-152657822D01*
X198869560Y-153229251D02*
X197869560Y-152895918D01*
X198869560Y-152562584D01*
X198869560Y-151705441D02*
X198869560Y-152276870D01*
X198869560Y-151991156D02*
X197869560Y-151991156D01*
X198012418Y-152086394D01*
X198107656Y-152181632D01*
X198155275Y-152276870D01*
X223969840Y-120417790D02*
X222969840Y-120417790D01*
X222969840Y-120036838D01*
X223017460Y-119941600D01*
X223065079Y-119893980D01*
X223160317Y-119846361D01*
X223303174Y-119846361D01*
X223398412Y-119893980D01*
X223446031Y-119941600D01*
X223493650Y-120036838D01*
X223493650Y-120417790D01*
X224065079Y-119655885D02*
X224065079Y-118893980D01*
X223969840Y-118655885D02*
X222969840Y-118655885D01*
X223684126Y-118322552D01*
X222969840Y-117989219D01*
X223969840Y-117989219D01*
X223969840Y-117370171D02*
X223922221Y-117465409D01*
X223874602Y-117513028D01*
X223779364Y-117560647D01*
X223493650Y-117560647D01*
X223398412Y-117513028D01*
X223350793Y-117465409D01*
X223303174Y-117370171D01*
X223303174Y-117227314D01*
X223350793Y-117132076D01*
X223398412Y-117084457D01*
X223493650Y-117036838D01*
X223779364Y-117036838D01*
X223874602Y-117084457D01*
X223922221Y-117132076D01*
X223969840Y-117227314D01*
X223969840Y-117370171D01*
X223969840Y-116179695D02*
X222969840Y-116179695D01*
X223922221Y-116179695D02*
X223969840Y-116274933D01*
X223969840Y-116465409D01*
X223922221Y-116560647D01*
X223874602Y-116608266D01*
X223779364Y-116655885D01*
X223493650Y-116655885D01*
X223398412Y-116608266D01*
X223350793Y-116560647D01*
X223303174Y-116465409D01*
X223303174Y-116274933D01*
X223350793Y-116179695D01*
X224065079Y-115941600D02*
X224065079Y-115179695D01*
X223446031Y-114608266D02*
X223493650Y-114465409D01*
X223541269Y-114417790D01*
X223636507Y-114370171D01*
X223779364Y-114370171D01*
X223874602Y-114417790D01*
X223922221Y-114465409D01*
X223969840Y-114560647D01*
X223969840Y-114941600D01*
X222969840Y-114941600D01*
X222969840Y-114608266D01*
X223017460Y-114513028D01*
X223065079Y-114465409D01*
X223160317Y-114417790D01*
X223255555Y-114417790D01*
X223350793Y-114465409D01*
X223398412Y-114513028D01*
X223446031Y-114608266D01*
X223446031Y-114941600D01*
X223969840Y-113417790D02*
X223969840Y-113989219D01*
X223969840Y-113703504D02*
X222969840Y-113703504D01*
X223112698Y-113798742D01*
X223207936Y-113893980D01*
X223255555Y-113989219D01*
X190166666Y-34227380D02*
X190166666Y-34941666D01*
X190119047Y-35084523D01*
X190023809Y-35179761D01*
X189880952Y-35227380D01*
X189785714Y-35227380D01*
X190595238Y-34322619D02*
X190642857Y-34275000D01*
X190738095Y-34227380D01*
X190976190Y-34227380D01*
X191071428Y-34275000D01*
X191119047Y-34322619D01*
X191166666Y-34417857D01*
X191166666Y-34513095D01*
X191119047Y-34655952D01*
X190547619Y-35227380D01*
X191166666Y-35227380D01*
X240490476Y-34227380D02*
X240490476Y-34941666D01*
X240442857Y-35084523D01*
X240347619Y-35179761D01*
X240204761Y-35227380D01*
X240109523Y-35227380D01*
X241490476Y-35227380D02*
X240919047Y-35227380D01*
X241204761Y-35227380D02*
X241204761Y-34227380D01*
X241109523Y-34370238D01*
X241014285Y-34465476D01*
X240919047Y-34513095D01*
X242347619Y-34227380D02*
X242157142Y-34227380D01*
X242061904Y-34275000D01*
X242014285Y-34322619D01*
X241919047Y-34465476D01*
X241871428Y-34655952D01*
X241871428Y-35036904D01*
X241919047Y-35132142D01*
X241966666Y-35179761D01*
X242061904Y-35227380D01*
X242252380Y-35227380D01*
X242347619Y-35179761D01*
X242395238Y-35132142D01*
X242442857Y-35036904D01*
X242442857Y-34798809D01*
X242395238Y-34703571D01*
X242347619Y-34655952D01*
X242252380Y-34608333D01*
X242061904Y-34608333D01*
X241966666Y-34655952D01*
X241919047Y-34703571D01*
X241871428Y-34798809D01*
X265890476Y-34227380D02*
X265890476Y-34941666D01*
X265842857Y-35084523D01*
X265747619Y-35179761D01*
X265604761Y-35227380D01*
X265509523Y-35227380D01*
X266890476Y-35227380D02*
X266319047Y-35227380D01*
X266604761Y-35227380D02*
X266604761Y-34227380D01*
X266509523Y-34370238D01*
X266414285Y-34465476D01*
X266319047Y-34513095D01*
X267223809Y-34227380D02*
X267890476Y-34227380D01*
X267461904Y-35227380D01*
X234289860Y-23931190D02*
X233289860Y-23931190D01*
X233289860Y-23550238D01*
X233337480Y-23455000D01*
X233385099Y-23407380D01*
X233480337Y-23359761D01*
X233623194Y-23359761D01*
X233718432Y-23407380D01*
X233766051Y-23455000D01*
X233813670Y-23550238D01*
X233813670Y-23931190D01*
X234385099Y-23169285D02*
X234385099Y-22407380D01*
X234194622Y-21597857D02*
X234242241Y-21645476D01*
X234289860Y-21788333D01*
X234289860Y-21883571D01*
X234242241Y-22026428D01*
X234147003Y-22121666D01*
X234051765Y-22169285D01*
X233861289Y-22216904D01*
X233718432Y-22216904D01*
X233527956Y-22169285D01*
X233432718Y-22121666D01*
X233337480Y-22026428D01*
X233289860Y-21883571D01*
X233289860Y-21788333D01*
X233337480Y-21645476D01*
X233385099Y-21597857D01*
X234289860Y-21169285D02*
X233289860Y-21169285D01*
X234289860Y-20740714D02*
X233766051Y-20740714D01*
X233670813Y-20788333D01*
X233623194Y-20883571D01*
X233623194Y-21026428D01*
X233670813Y-21121666D01*
X233718432Y-21169285D01*
X234289860Y-19835952D02*
X233766051Y-19835952D01*
X233670813Y-19883571D01*
X233623194Y-19978809D01*
X233623194Y-20169285D01*
X233670813Y-20264523D01*
X234242241Y-19835952D02*
X234289860Y-19931190D01*
X234289860Y-20169285D01*
X234242241Y-20264523D01*
X234147003Y-20312142D01*
X234051765Y-20312142D01*
X233956527Y-20264523D01*
X233908908Y-20169285D01*
X233908908Y-19931190D01*
X233861289Y-19835952D01*
X233623194Y-19359761D02*
X234289860Y-19359761D01*
X233718432Y-19359761D02*
X233670813Y-19312142D01*
X233623194Y-19216904D01*
X233623194Y-19074047D01*
X233670813Y-18978809D01*
X233766051Y-18931190D01*
X234289860Y-18931190D01*
X233289860Y-18550238D02*
X233289860Y-17931190D01*
X233670813Y-18264523D01*
X233670813Y-18121666D01*
X233718432Y-18026428D01*
X233766051Y-17978809D01*
X233861289Y-17931190D01*
X234099384Y-17931190D01*
X234194622Y-17978809D01*
X234242241Y-18026428D01*
X234289860Y-18121666D01*
X234289860Y-18407380D01*
X234242241Y-18502619D01*
X234194622Y-18550238D01*
X183482240Y-23921030D02*
X182482240Y-23921030D01*
X182482240Y-23540078D01*
X182529860Y-23444840D01*
X182577479Y-23397220D01*
X182672717Y-23349601D01*
X182815574Y-23349601D01*
X182910812Y-23397220D01*
X182958431Y-23444840D01*
X183006050Y-23540078D01*
X183006050Y-23921030D01*
X183577479Y-23159125D02*
X183577479Y-22397220D01*
X183387002Y-21587697D02*
X183434621Y-21635316D01*
X183482240Y-21778173D01*
X183482240Y-21873411D01*
X183434621Y-22016268D01*
X183339383Y-22111506D01*
X183244145Y-22159125D01*
X183053669Y-22206744D01*
X182910812Y-22206744D01*
X182720336Y-22159125D01*
X182625098Y-22111506D01*
X182529860Y-22016268D01*
X182482240Y-21873411D01*
X182482240Y-21778173D01*
X182529860Y-21635316D01*
X182577479Y-21587697D01*
X183482240Y-21159125D02*
X182482240Y-21159125D01*
X183482240Y-20730554D02*
X182958431Y-20730554D01*
X182863193Y-20778173D01*
X182815574Y-20873411D01*
X182815574Y-21016268D01*
X182863193Y-21111506D01*
X182910812Y-21159125D01*
X183482240Y-19825792D02*
X182958431Y-19825792D01*
X182863193Y-19873411D01*
X182815574Y-19968649D01*
X182815574Y-20159125D01*
X182863193Y-20254363D01*
X183434621Y-19825792D02*
X183482240Y-19921030D01*
X183482240Y-20159125D01*
X183434621Y-20254363D01*
X183339383Y-20301982D01*
X183244145Y-20301982D01*
X183148907Y-20254363D01*
X183101288Y-20159125D01*
X183101288Y-19921030D01*
X183053669Y-19825792D01*
X182815574Y-19349601D02*
X183482240Y-19349601D01*
X182910812Y-19349601D02*
X182863193Y-19301982D01*
X182815574Y-19206744D01*
X182815574Y-19063887D01*
X182863193Y-18968649D01*
X182958431Y-18921030D01*
X183482240Y-18921030D01*
X183482240Y-17921030D02*
X183482240Y-18492459D01*
X183482240Y-18206744D02*
X182482240Y-18206744D01*
X182625098Y-18301982D01*
X182720336Y-18397220D01*
X182767955Y-18492459D01*
X249458740Y-161679305D02*
X248458740Y-161679305D01*
X248458740Y-161298353D01*
X248506360Y-161203115D01*
X248553979Y-161155496D01*
X248649217Y-161107877D01*
X248792074Y-161107877D01*
X248887312Y-161155496D01*
X248934931Y-161203115D01*
X248982550Y-161298353D01*
X248982550Y-161679305D01*
X249553979Y-160917400D02*
X249553979Y-160155496D01*
X248934931Y-159584067D02*
X248934931Y-159917400D01*
X249458740Y-159917400D02*
X248458740Y-159917400D01*
X248458740Y-159441210D01*
X249458740Y-159060258D02*
X248792074Y-159060258D01*
X248458740Y-159060258D02*
X248506360Y-159107877D01*
X248553979Y-159060258D01*
X248506360Y-159012639D01*
X248458740Y-159060258D01*
X248553979Y-159060258D01*
X249458740Y-158441210D02*
X249411121Y-158536448D01*
X249315883Y-158584067D01*
X248458740Y-158584067D01*
X248792074Y-158203115D02*
X248792074Y-157822162D01*
X248458740Y-158060258D02*
X249315883Y-158060258D01*
X249411121Y-158012639D01*
X249458740Y-157917400D01*
X249458740Y-157822162D01*
X249411121Y-157107877D02*
X249458740Y-157203115D01*
X249458740Y-157393591D01*
X249411121Y-157488829D01*
X249315883Y-157536448D01*
X248934931Y-157536448D01*
X248839693Y-157488829D01*
X248792074Y-157393591D01*
X248792074Y-157203115D01*
X248839693Y-157107877D01*
X248934931Y-157060258D01*
X249030169Y-157060258D01*
X249125407Y-157536448D01*
X249458740Y-156631686D02*
X248792074Y-156631686D01*
X248982550Y-156631686D02*
X248887312Y-156584067D01*
X248839693Y-156536448D01*
X248792074Y-156441210D01*
X248792074Y-156345972D01*
X249553979Y-156250734D02*
X249553979Y-155488829D01*
X248934931Y-154917400D02*
X248934931Y-155250734D01*
X249458740Y-155250734D02*
X248458740Y-155250734D01*
X248458740Y-154774543D01*
X249458740Y-154393591D02*
X248792074Y-154393591D01*
X248982550Y-154393591D02*
X248887312Y-154345972D01*
X248839693Y-154298353D01*
X248792074Y-154203115D01*
X248792074Y-154107877D01*
X249411121Y-153393591D02*
X249458740Y-153488829D01*
X249458740Y-153679305D01*
X249411121Y-153774543D01*
X249315883Y-153822162D01*
X248934931Y-153822162D01*
X248839693Y-153774543D01*
X248792074Y-153679305D01*
X248792074Y-153488829D01*
X248839693Y-153393591D01*
X248934931Y-153345972D01*
X249030169Y-153345972D01*
X249125407Y-153822162D01*
X248792074Y-152488829D02*
X249792074Y-152488829D01*
X249411121Y-152488829D02*
X249458740Y-152584067D01*
X249458740Y-152774543D01*
X249411121Y-152869781D01*
X249363502Y-152917400D01*
X249268264Y-152965020D01*
X248982550Y-152965020D01*
X248887312Y-152917400D01*
X248839693Y-152869781D01*
X248792074Y-152774543D01*
X248792074Y-152584067D01*
X248839693Y-152488829D01*
X248792074Y-151584067D02*
X249458740Y-151584067D01*
X248792074Y-152012639D02*
X249315883Y-152012639D01*
X249411121Y-151965020D01*
X249458740Y-151869781D01*
X249458740Y-151726924D01*
X249411121Y-151631686D01*
X249363502Y-151584067D01*
X249411121Y-150726924D02*
X249458740Y-150822162D01*
X249458740Y-151012639D01*
X249411121Y-151107877D01*
X249315883Y-151155496D01*
X248934931Y-151155496D01*
X248839693Y-151107877D01*
X248792074Y-151012639D01*
X248792074Y-150822162D01*
X248839693Y-150726924D01*
X248934931Y-150679305D01*
X249030169Y-150679305D01*
X249125407Y-151155496D01*
X248792074Y-150250734D02*
X249458740Y-150250734D01*
X248887312Y-150250734D02*
X248839693Y-150203115D01*
X248792074Y-150107877D01*
X248792074Y-149965020D01*
X248839693Y-149869781D01*
X248934931Y-149822162D01*
X249458740Y-149822162D01*
X249411121Y-148917400D02*
X249458740Y-149012639D01*
X249458740Y-149203115D01*
X249411121Y-149298353D01*
X249363502Y-149345972D01*
X249268264Y-149393591D01*
X248982550Y-149393591D01*
X248887312Y-149345972D01*
X248839693Y-149298353D01*
X248792074Y-149203115D01*
X248792074Y-149012639D01*
X248839693Y-148917400D01*
X248792074Y-148584067D02*
X249458740Y-148345972D01*
X248792074Y-148107877D02*
X249458740Y-148345972D01*
X249696836Y-148441210D01*
X249744455Y-148488829D01*
X249792074Y-148584067D01*
X249458740Y-147203115D02*
X249458740Y-147774543D01*
X249458740Y-147488829D02*
X248458740Y-147488829D01*
X248601598Y-147584067D01*
X248696836Y-147679305D01*
X248744455Y-147774543D01*
X224292420Y-159242307D02*
X223292420Y-159242307D01*
X223292420Y-158861355D01*
X223340040Y-158766117D01*
X223387659Y-158718498D01*
X223482897Y-158670879D01*
X223625754Y-158670879D01*
X223720992Y-158718498D01*
X223768611Y-158766117D01*
X223816230Y-158861355D01*
X223816230Y-159242307D01*
X224387659Y-158480402D02*
X224387659Y-157718498D01*
X223768611Y-157147069D02*
X223768611Y-157480402D01*
X224292420Y-157480402D02*
X223292420Y-157480402D01*
X223292420Y-157004212D01*
X224292420Y-156623260D02*
X223625754Y-156623260D01*
X223816230Y-156623260D02*
X223720992Y-156575640D01*
X223673373Y-156528021D01*
X223625754Y-156432783D01*
X223625754Y-156337545D01*
X224244801Y-155623260D02*
X224292420Y-155718498D01*
X224292420Y-155908974D01*
X224244801Y-156004212D01*
X224149563Y-156051831D01*
X223768611Y-156051831D01*
X223673373Y-156004212D01*
X223625754Y-155908974D01*
X223625754Y-155718498D01*
X223673373Y-155623260D01*
X223768611Y-155575640D01*
X223863849Y-155575640D01*
X223959087Y-156051831D01*
X223625754Y-154718498D02*
X224625754Y-154718498D01*
X224244801Y-154718498D02*
X224292420Y-154813736D01*
X224292420Y-155004212D01*
X224244801Y-155099450D01*
X224197182Y-155147069D01*
X224101944Y-155194688D01*
X223816230Y-155194688D01*
X223720992Y-155147069D01*
X223673373Y-155099450D01*
X223625754Y-155004212D01*
X223625754Y-154813736D01*
X223673373Y-154718498D01*
X224387659Y-154480402D02*
X224387659Y-153718498D01*
X223768611Y-153147069D02*
X223816230Y-153004212D01*
X223863849Y-152956593D01*
X223959087Y-152908974D01*
X224101944Y-152908974D01*
X224197182Y-152956593D01*
X224244801Y-153004212D01*
X224292420Y-153099450D01*
X224292420Y-153480402D01*
X223292420Y-153480402D01*
X223292420Y-153147069D01*
X223340040Y-153051831D01*
X223387659Y-153004212D01*
X223482897Y-152956593D01*
X223578135Y-152956593D01*
X223673373Y-153004212D01*
X223720992Y-153051831D01*
X223768611Y-153147069D01*
X223768611Y-153480402D01*
X224292420Y-151956593D02*
X224292420Y-152528021D01*
X224292420Y-152242307D02*
X223292420Y-152242307D01*
X223435278Y-152337545D01*
X223530516Y-152432783D01*
X223578135Y-152528021D01*
X215566666Y-34227380D02*
X215566666Y-34941666D01*
X215519047Y-35084523D01*
X215423809Y-35179761D01*
X215280952Y-35227380D01*
X215185714Y-35227380D01*
X215947619Y-34227380D02*
X216566666Y-34227380D01*
X216233333Y-34608333D01*
X216376190Y-34608333D01*
X216471428Y-34655952D01*
X216519047Y-34703571D01*
X216566666Y-34798809D01*
X216566666Y-35036904D01*
X216519047Y-35132142D01*
X216471428Y-35179761D01*
X216376190Y-35227380D01*
X216090476Y-35227380D01*
X215995238Y-35179761D01*
X215947619Y-35132142D01*
X265890476Y-15177380D02*
X265890476Y-15891666D01*
X265842857Y-16034523D01*
X265747619Y-16129761D01*
X265604761Y-16177380D01*
X265509523Y-16177380D01*
X266890476Y-16177380D02*
X266319047Y-16177380D01*
X266604761Y-16177380D02*
X266604761Y-15177380D01*
X266509523Y-15320238D01*
X266414285Y-15415476D01*
X266319047Y-15463095D01*
X267461904Y-15605952D02*
X267366666Y-15558333D01*
X267319047Y-15510714D01*
X267271428Y-15415476D01*
X267271428Y-15367857D01*
X267319047Y-15272619D01*
X267366666Y-15225000D01*
X267461904Y-15177380D01*
X267652380Y-15177380D01*
X267747619Y-15225000D01*
X267795238Y-15272619D01*
X267842857Y-15367857D01*
X267842857Y-15415476D01*
X267795238Y-15510714D01*
X267747619Y-15558333D01*
X267652380Y-15605952D01*
X267461904Y-15605952D01*
X267366666Y-15653571D01*
X267319047Y-15701190D01*
X267271428Y-15796428D01*
X267271428Y-15986904D01*
X267319047Y-16082142D01*
X267366666Y-16129761D01*
X267461904Y-16177380D01*
X267652380Y-16177380D01*
X267747619Y-16129761D01*
X267795238Y-16082142D01*
X267842857Y-15986904D01*
X267842857Y-15796428D01*
X267795238Y-15701190D01*
X267747619Y-15653571D01*
X267652380Y-15605952D01*
X208966060Y-23443510D02*
X207966060Y-23443510D01*
X207966060Y-23062558D01*
X208013680Y-22967320D01*
X208061299Y-22919700D01*
X208156537Y-22872081D01*
X208299394Y-22872081D01*
X208394632Y-22919700D01*
X208442251Y-22967320D01*
X208489870Y-23062558D01*
X208489870Y-23443510D01*
X209061299Y-22681605D02*
X209061299Y-21919700D01*
X208870822Y-21110177D02*
X208918441Y-21157796D01*
X208966060Y-21300653D01*
X208966060Y-21395891D01*
X208918441Y-21538748D01*
X208823203Y-21633986D01*
X208727965Y-21681605D01*
X208537489Y-21729224D01*
X208394632Y-21729224D01*
X208204156Y-21681605D01*
X208108918Y-21633986D01*
X208013680Y-21538748D01*
X207966060Y-21395891D01*
X207966060Y-21300653D01*
X208013680Y-21157796D01*
X208061299Y-21110177D01*
X208966060Y-20681605D02*
X207966060Y-20681605D01*
X208966060Y-20253034D02*
X208442251Y-20253034D01*
X208347013Y-20300653D01*
X208299394Y-20395891D01*
X208299394Y-20538748D01*
X208347013Y-20633986D01*
X208394632Y-20681605D01*
X208966060Y-19348272D02*
X208442251Y-19348272D01*
X208347013Y-19395891D01*
X208299394Y-19491129D01*
X208299394Y-19681605D01*
X208347013Y-19776843D01*
X208918441Y-19348272D02*
X208966060Y-19443510D01*
X208966060Y-19681605D01*
X208918441Y-19776843D01*
X208823203Y-19824462D01*
X208727965Y-19824462D01*
X208632727Y-19776843D01*
X208585108Y-19681605D01*
X208585108Y-19443510D01*
X208537489Y-19348272D01*
X208299394Y-18872081D02*
X208966060Y-18872081D01*
X208394632Y-18872081D02*
X208347013Y-18824462D01*
X208299394Y-18729224D01*
X208299394Y-18586367D01*
X208347013Y-18491129D01*
X208442251Y-18443510D01*
X208966060Y-18443510D01*
X208061299Y-18014939D02*
X208013680Y-17967320D01*
X207966060Y-17872081D01*
X207966060Y-17633986D01*
X208013680Y-17538748D01*
X208061299Y-17491129D01*
X208156537Y-17443510D01*
X208251775Y-17443510D01*
X208394632Y-17491129D01*
X208966060Y-18062558D01*
X208966060Y-17443510D01*
X274881600Y-162110440D02*
X273881600Y-162110440D01*
X273881600Y-161729488D01*
X273929220Y-161634250D01*
X273976839Y-161586631D01*
X274072077Y-161539012D01*
X274214934Y-161539012D01*
X274310172Y-161586631D01*
X274357791Y-161634250D01*
X274405410Y-161729488D01*
X274405410Y-162110440D01*
X274976839Y-161348536D02*
X274976839Y-160586631D01*
X274357791Y-160015202D02*
X274357791Y-160348536D01*
X274881600Y-160348536D02*
X273881600Y-160348536D01*
X273881600Y-159872345D01*
X274881600Y-159491393D02*
X274214934Y-159491393D01*
X273881600Y-159491393D02*
X273929220Y-159539012D01*
X273976839Y-159491393D01*
X273929220Y-159443774D01*
X273881600Y-159491393D01*
X273976839Y-159491393D01*
X274881600Y-158872345D02*
X274833981Y-158967583D01*
X274738743Y-159015202D01*
X273881600Y-159015202D01*
X274214934Y-158634250D02*
X274214934Y-158253298D01*
X273881600Y-158491393D02*
X274738743Y-158491393D01*
X274833981Y-158443774D01*
X274881600Y-158348536D01*
X274881600Y-158253298D01*
X274833981Y-157539012D02*
X274881600Y-157634250D01*
X274881600Y-157824726D01*
X274833981Y-157919964D01*
X274738743Y-157967583D01*
X274357791Y-157967583D01*
X274262553Y-157919964D01*
X274214934Y-157824726D01*
X274214934Y-157634250D01*
X274262553Y-157539012D01*
X274357791Y-157491393D01*
X274453029Y-157491393D01*
X274548267Y-157967583D01*
X274881600Y-157062821D02*
X274214934Y-157062821D01*
X274405410Y-157062821D02*
X274310172Y-157015202D01*
X274262553Y-156967583D01*
X274214934Y-156872345D01*
X274214934Y-156777107D01*
X274976839Y-156681869D02*
X274976839Y-155919964D01*
X274881600Y-155110440D02*
X274405410Y-155443774D01*
X274881600Y-155681869D02*
X273881600Y-155681869D01*
X273881600Y-155300917D01*
X273929220Y-155205679D01*
X273976839Y-155158060D01*
X274072077Y-155110440D01*
X274214934Y-155110440D01*
X274310172Y-155158060D01*
X274357791Y-155205679D01*
X274405410Y-155300917D01*
X274405410Y-155681869D01*
X274833981Y-154300917D02*
X274881600Y-154396155D01*
X274881600Y-154586631D01*
X274833981Y-154681869D01*
X274738743Y-154729488D01*
X274357791Y-154729488D01*
X274262553Y-154681869D01*
X274214934Y-154586631D01*
X274214934Y-154396155D01*
X274262553Y-154300917D01*
X274357791Y-154253298D01*
X274453029Y-154253298D01*
X274548267Y-154729488D01*
X274833981Y-153872345D02*
X274881600Y-153777107D01*
X274881600Y-153586631D01*
X274833981Y-153491393D01*
X274738743Y-153443774D01*
X274691124Y-153443774D01*
X274595886Y-153491393D01*
X274548267Y-153586631D01*
X274548267Y-153729488D01*
X274500648Y-153824726D01*
X274405410Y-153872345D01*
X274357791Y-153872345D01*
X274262553Y-153824726D01*
X274214934Y-153729488D01*
X274214934Y-153586631D01*
X274262553Y-153491393D01*
X274881600Y-152872345D02*
X274833981Y-152967583D01*
X274786362Y-153015202D01*
X274691124Y-153062821D01*
X274405410Y-153062821D01*
X274310172Y-153015202D01*
X274262553Y-152967583D01*
X274214934Y-152872345D01*
X274214934Y-152729488D01*
X274262553Y-152634250D01*
X274310172Y-152586631D01*
X274405410Y-152539012D01*
X274691124Y-152539012D01*
X274786362Y-152586631D01*
X274833981Y-152634250D01*
X274881600Y-152729488D01*
X274881600Y-152872345D01*
X274214934Y-152110440D02*
X274881600Y-152110440D01*
X274310172Y-152110440D02*
X274262553Y-152062821D01*
X274214934Y-151967583D01*
X274214934Y-151824726D01*
X274262553Y-151729488D01*
X274357791Y-151681869D01*
X274881600Y-151681869D01*
X274881600Y-150777107D02*
X274357791Y-150777107D01*
X274262553Y-150824726D01*
X274214934Y-150919964D01*
X274214934Y-151110440D01*
X274262553Y-151205679D01*
X274833981Y-150777107D02*
X274881600Y-150872345D01*
X274881600Y-151110440D01*
X274833981Y-151205679D01*
X274738743Y-151253298D01*
X274643505Y-151253298D01*
X274548267Y-151205679D01*
X274500648Y-151110440D01*
X274500648Y-150872345D01*
X274453029Y-150777107D01*
X274214934Y-150300917D02*
X274881600Y-150300917D01*
X274310172Y-150300917D02*
X274262553Y-150253298D01*
X274214934Y-150158060D01*
X274214934Y-150015202D01*
X274262553Y-149919964D01*
X274357791Y-149872345D01*
X274881600Y-149872345D01*
X274833981Y-148967583D02*
X274881600Y-149062821D01*
X274881600Y-149253298D01*
X274833981Y-149348536D01*
X274786362Y-149396155D01*
X274691124Y-149443774D01*
X274405410Y-149443774D01*
X274310172Y-149396155D01*
X274262553Y-149348536D01*
X274214934Y-149253298D01*
X274214934Y-149062821D01*
X274262553Y-148967583D01*
X274833981Y-148158060D02*
X274881600Y-148253298D01*
X274881600Y-148443774D01*
X274833981Y-148539012D01*
X274738743Y-148586631D01*
X274357791Y-148586631D01*
X274262553Y-148539012D01*
X274214934Y-148443774D01*
X274214934Y-148253298D01*
X274262553Y-148158060D01*
X274357791Y-148110440D01*
X274453029Y-148110440D01*
X274548267Y-148586631D01*
X274881600Y-147158060D02*
X274881600Y-147729488D01*
X274881600Y-147443774D02*
X273881600Y-147443774D01*
X274024458Y-147539012D01*
X274119696Y-147634250D01*
X274167315Y-147729488D01*
X198546980Y-120668941D02*
X197546980Y-120668941D01*
X197546980Y-120287989D01*
X197594600Y-120192751D01*
X197642219Y-120145132D01*
X197737457Y-120097513D01*
X197880314Y-120097513D01*
X197975552Y-120145132D01*
X198023171Y-120192751D01*
X198070790Y-120287989D01*
X198070790Y-120668941D01*
X198642219Y-119907037D02*
X198642219Y-119145132D01*
X198546980Y-118907037D02*
X197546980Y-118907037D01*
X198261266Y-118573703D01*
X197546980Y-118240370D01*
X198546980Y-118240370D01*
X198546980Y-117621322D02*
X198499361Y-117716560D01*
X198451742Y-117764180D01*
X198356504Y-117811799D01*
X198070790Y-117811799D01*
X197975552Y-117764180D01*
X197927933Y-117716560D01*
X197880314Y-117621322D01*
X197880314Y-117478465D01*
X197927933Y-117383227D01*
X197975552Y-117335608D01*
X198070790Y-117287989D01*
X198356504Y-117287989D01*
X198451742Y-117335608D01*
X198499361Y-117383227D01*
X198546980Y-117478465D01*
X198546980Y-117621322D01*
X198546980Y-116430846D02*
X197546980Y-116430846D01*
X198499361Y-116430846D02*
X198546980Y-116526084D01*
X198546980Y-116716560D01*
X198499361Y-116811799D01*
X198451742Y-116859418D01*
X198356504Y-116907037D01*
X198070790Y-116907037D01*
X197975552Y-116859418D01*
X197927933Y-116811799D01*
X197880314Y-116716560D01*
X197880314Y-116526084D01*
X197927933Y-116430846D01*
X198642219Y-116192751D02*
X198642219Y-115430846D01*
X198261266Y-115240370D02*
X198261266Y-114764180D01*
X198546980Y-115335608D02*
X197546980Y-115002275D01*
X198546980Y-114668941D01*
X198546980Y-113811799D02*
X198546980Y-114383227D01*
X198546980Y-114097513D02*
X197546980Y-114097513D01*
X197689838Y-114192751D01*
X197785076Y-114287989D01*
X197832695Y-114383227D01*
X249715280Y-122642331D02*
X248715280Y-122642331D01*
X248715280Y-122261379D01*
X248762900Y-122166140D01*
X248810519Y-122118521D01*
X248905757Y-122070902D01*
X249048614Y-122070902D01*
X249143852Y-122118521D01*
X249191471Y-122166140D01*
X249239090Y-122261379D01*
X249239090Y-122642331D01*
X249810519Y-121880426D02*
X249810519Y-121118521D01*
X249715280Y-120880426D02*
X248715280Y-120880426D01*
X249429566Y-120547093D01*
X248715280Y-120213760D01*
X249715280Y-120213760D01*
X249715280Y-119594712D02*
X249667661Y-119689950D01*
X249620042Y-119737569D01*
X249524804Y-119785188D01*
X249239090Y-119785188D01*
X249143852Y-119737569D01*
X249096233Y-119689950D01*
X249048614Y-119594712D01*
X249048614Y-119451855D01*
X249096233Y-119356617D01*
X249143852Y-119308998D01*
X249239090Y-119261379D01*
X249524804Y-119261379D01*
X249620042Y-119308998D01*
X249667661Y-119356617D01*
X249715280Y-119451855D01*
X249715280Y-119594712D01*
X249715280Y-118404236D02*
X248715280Y-118404236D01*
X249667661Y-118404236D02*
X249715280Y-118499474D01*
X249715280Y-118689950D01*
X249667661Y-118785188D01*
X249620042Y-118832807D01*
X249524804Y-118880426D01*
X249239090Y-118880426D01*
X249143852Y-118832807D01*
X249096233Y-118785188D01*
X249048614Y-118689950D01*
X249048614Y-118499474D01*
X249096233Y-118404236D01*
X249810519Y-118166140D02*
X249810519Y-117404236D01*
X249191471Y-116832807D02*
X249191471Y-117166140D01*
X249715280Y-117166140D02*
X248715280Y-117166140D01*
X248715280Y-116689950D01*
X249715280Y-116308998D02*
X249048614Y-116308998D01*
X248715280Y-116308998D02*
X248762900Y-116356617D01*
X248810519Y-116308998D01*
X248762900Y-116261379D01*
X248715280Y-116308998D01*
X248810519Y-116308998D01*
X249715280Y-115689950D02*
X249667661Y-115785188D01*
X249572423Y-115832807D01*
X248715280Y-115832807D01*
X249048614Y-115451855D02*
X249048614Y-115070902D01*
X248715280Y-115308998D02*
X249572423Y-115308998D01*
X249667661Y-115261379D01*
X249715280Y-115166140D01*
X249715280Y-115070902D01*
X249667661Y-114356617D02*
X249715280Y-114451855D01*
X249715280Y-114642331D01*
X249667661Y-114737569D01*
X249572423Y-114785188D01*
X249191471Y-114785188D01*
X249096233Y-114737569D01*
X249048614Y-114642331D01*
X249048614Y-114451855D01*
X249096233Y-114356617D01*
X249191471Y-114308998D01*
X249286709Y-114308998D01*
X249381947Y-114785188D01*
X249715280Y-113880426D02*
X249048614Y-113880426D01*
X249239090Y-113880426D02*
X249143852Y-113832807D01*
X249096233Y-113785188D01*
X249048614Y-113689950D01*
X249048614Y-113594712D01*
X249715280Y-112737569D02*
X249715280Y-113308998D01*
X249715280Y-113023283D02*
X248715280Y-113023283D01*
X248858138Y-113118521D01*
X248953376Y-113213760D01*
X249000995Y-113308998D01*
X198869560Y-140970354D02*
X197869560Y-140970354D01*
X197869560Y-140589401D01*
X197917180Y-140494163D01*
X197964799Y-140446544D01*
X198060037Y-140398925D01*
X198202894Y-140398925D01*
X198298132Y-140446544D01*
X198345751Y-140494163D01*
X198393370Y-140589401D01*
X198393370Y-140970354D01*
X198964799Y-140208449D02*
X198964799Y-139446544D01*
X198869560Y-138637020D02*
X198393370Y-138970354D01*
X198869560Y-139208449D02*
X197869560Y-139208449D01*
X197869560Y-138827497D01*
X197917180Y-138732259D01*
X197964799Y-138684640D01*
X198060037Y-138637020D01*
X198202894Y-138637020D01*
X198298132Y-138684640D01*
X198345751Y-138732259D01*
X198393370Y-138827497D01*
X198393370Y-139208449D01*
X198202894Y-137779878D02*
X198869560Y-137779878D01*
X198202894Y-138208449D02*
X198726703Y-138208449D01*
X198821941Y-138160830D01*
X198869560Y-138065592D01*
X198869560Y-137922735D01*
X198821941Y-137827497D01*
X198774322Y-137779878D01*
X198202894Y-137303687D02*
X198869560Y-137303687D01*
X198298132Y-137303687D02*
X198250513Y-137256068D01*
X198202894Y-137160830D01*
X198202894Y-137017973D01*
X198250513Y-136922735D01*
X198345751Y-136875116D01*
X198869560Y-136875116D01*
X198202894Y-135970354D02*
X199012418Y-135970354D01*
X199107656Y-136017973D01*
X199155275Y-136065592D01*
X199202894Y-136160830D01*
X199202894Y-136303687D01*
X199155275Y-136398925D01*
X198821941Y-135970354D02*
X198869560Y-136065592D01*
X198869560Y-136256068D01*
X198821941Y-136351306D01*
X198774322Y-136398925D01*
X198679084Y-136446544D01*
X198393370Y-136446544D01*
X198298132Y-136398925D01*
X198250513Y-136351306D01*
X198202894Y-136256068D01*
X198202894Y-136065592D01*
X198250513Y-135970354D01*
X198869560Y-135351306D02*
X198821941Y-135446544D01*
X198726703Y-135494163D01*
X197869560Y-135494163D01*
X198821941Y-134589401D02*
X198869560Y-134684640D01*
X198869560Y-134875116D01*
X198821941Y-134970354D01*
X198726703Y-135017973D01*
X198345751Y-135017973D01*
X198250513Y-134970354D01*
X198202894Y-134875116D01*
X198202894Y-134684640D01*
X198250513Y-134589401D01*
X198345751Y-134541782D01*
X198440989Y-134541782D01*
X198536227Y-135017973D01*
X198869560Y-134113211D02*
X198202894Y-134113211D01*
X198393370Y-134113211D02*
X198298132Y-134065592D01*
X198250513Y-134017973D01*
X198202894Y-133922735D01*
X198202894Y-133827497D01*
X198964799Y-133732259D02*
X198964799Y-132970354D01*
X198583846Y-132779878D02*
X198583846Y-132303687D01*
X198869560Y-132875116D02*
X197869560Y-132541782D01*
X198869560Y-132208449D01*
X198869560Y-131351306D02*
X198869560Y-131922735D01*
X198869560Y-131637020D02*
X197869560Y-131637020D01*
X198012418Y-131732259D01*
X198107656Y-131827497D01*
X198155275Y-131922735D01*
X223969840Y-140655702D02*
X222969840Y-140655702D01*
X222969840Y-140274750D01*
X223017460Y-140179512D01*
X223065079Y-140131893D01*
X223160317Y-140084274D01*
X223303174Y-140084274D01*
X223398412Y-140131893D01*
X223446031Y-140179512D01*
X223493650Y-140274750D01*
X223493650Y-140655702D01*
X224065079Y-139893798D02*
X224065079Y-139131893D01*
X223969840Y-138322369D02*
X223493650Y-138655702D01*
X223969840Y-138893798D02*
X222969840Y-138893798D01*
X222969840Y-138512845D01*
X223017460Y-138417607D01*
X223065079Y-138369988D01*
X223160317Y-138322369D01*
X223303174Y-138322369D01*
X223398412Y-138369988D01*
X223446031Y-138417607D01*
X223493650Y-138512845D01*
X223493650Y-138893798D01*
X223303174Y-137465226D02*
X223969840Y-137465226D01*
X223303174Y-137893798D02*
X223826983Y-137893798D01*
X223922221Y-137846179D01*
X223969840Y-137750940D01*
X223969840Y-137608083D01*
X223922221Y-137512845D01*
X223874602Y-137465226D01*
X223303174Y-136989036D02*
X223969840Y-136989036D01*
X223398412Y-136989036D02*
X223350793Y-136941417D01*
X223303174Y-136846179D01*
X223303174Y-136703321D01*
X223350793Y-136608083D01*
X223446031Y-136560464D01*
X223969840Y-136560464D01*
X223303174Y-135655702D02*
X224112698Y-135655702D01*
X224207936Y-135703321D01*
X224255555Y-135750940D01*
X224303174Y-135846179D01*
X224303174Y-135989036D01*
X224255555Y-136084274D01*
X223922221Y-135655702D02*
X223969840Y-135750940D01*
X223969840Y-135941417D01*
X223922221Y-136036655D01*
X223874602Y-136084274D01*
X223779364Y-136131893D01*
X223493650Y-136131893D01*
X223398412Y-136084274D01*
X223350793Y-136036655D01*
X223303174Y-135941417D01*
X223303174Y-135750940D01*
X223350793Y-135655702D01*
X223969840Y-135036655D02*
X223922221Y-135131893D01*
X223826983Y-135179512D01*
X222969840Y-135179512D01*
X223922221Y-134274750D02*
X223969840Y-134369988D01*
X223969840Y-134560464D01*
X223922221Y-134655702D01*
X223826983Y-134703321D01*
X223446031Y-134703321D01*
X223350793Y-134655702D01*
X223303174Y-134560464D01*
X223303174Y-134369988D01*
X223350793Y-134274750D01*
X223446031Y-134227131D01*
X223541269Y-134227131D01*
X223636507Y-134703321D01*
X223969840Y-133798560D02*
X223303174Y-133798560D01*
X223493650Y-133798560D02*
X223398412Y-133750940D01*
X223350793Y-133703321D01*
X223303174Y-133608083D01*
X223303174Y-133512845D01*
X224065079Y-133417607D02*
X224065079Y-132655702D01*
X223446031Y-132084274D02*
X223493650Y-131941417D01*
X223541269Y-131893798D01*
X223636507Y-131846179D01*
X223779364Y-131846179D01*
X223874602Y-131893798D01*
X223922221Y-131941417D01*
X223969840Y-132036655D01*
X223969840Y-132417607D01*
X222969840Y-132417607D01*
X222969840Y-132084274D01*
X223017460Y-131989036D01*
X223065079Y-131941417D01*
X223160317Y-131893798D01*
X223255555Y-131893798D01*
X223350793Y-131941417D01*
X223398412Y-131989036D01*
X223446031Y-132084274D01*
X223446031Y-132417607D01*
X223969840Y-130893798D02*
X223969840Y-131465226D01*
X223969840Y-131179512D02*
X222969840Y-131179512D01*
X223112698Y-131274750D01*
X223207936Y-131369988D01*
X223255555Y-131465226D01*
X274815560Y-121825353D02*
X274339370Y-122158686D01*
X274815560Y-122396781D02*
X273815560Y-122396781D01*
X273815560Y-122015829D01*
X273863180Y-121920591D01*
X273910799Y-121872972D01*
X274006037Y-121825353D01*
X274148894Y-121825353D01*
X274244132Y-121872972D01*
X274291751Y-121920591D01*
X274339370Y-122015829D01*
X274339370Y-122396781D01*
X273815560Y-121539639D02*
X274815560Y-121206305D01*
X273815560Y-120872972D01*
X274910799Y-120777734D02*
X274910799Y-120015829D01*
X274815560Y-119301543D02*
X274815560Y-119777734D01*
X273815560Y-119777734D01*
X274815560Y-118825353D02*
X274767941Y-118920591D01*
X274720322Y-118968210D01*
X274625084Y-119015829D01*
X274339370Y-119015829D01*
X274244132Y-118968210D01*
X274196513Y-118920591D01*
X274148894Y-118825353D01*
X274148894Y-118682496D01*
X274196513Y-118587258D01*
X274244132Y-118539639D01*
X274339370Y-118492020D01*
X274625084Y-118492020D01*
X274720322Y-118539639D01*
X274767941Y-118587258D01*
X274815560Y-118682496D01*
X274815560Y-118825353D01*
X274815560Y-117920591D02*
X274767941Y-118015829D01*
X274720322Y-118063448D01*
X274625084Y-118111067D01*
X274339370Y-118111067D01*
X274244132Y-118063448D01*
X274196513Y-118015829D01*
X274148894Y-117920591D01*
X274148894Y-117777734D01*
X274196513Y-117682496D01*
X274244132Y-117634877D01*
X274339370Y-117587258D01*
X274625084Y-117587258D01*
X274720322Y-117634877D01*
X274767941Y-117682496D01*
X274815560Y-117777734D01*
X274815560Y-117920591D01*
X274148894Y-117158686D02*
X275148894Y-117158686D01*
X274196513Y-117158686D02*
X274148894Y-117063448D01*
X274148894Y-116872972D01*
X274196513Y-116777734D01*
X274244132Y-116730115D01*
X274339370Y-116682496D01*
X274625084Y-116682496D01*
X274720322Y-116730115D01*
X274767941Y-116777734D01*
X274815560Y-116872972D01*
X274815560Y-117063448D01*
X274767941Y-117158686D01*
X274910799Y-116492020D02*
X274910799Y-115730115D01*
X273815560Y-115301543D02*
X273815560Y-115111067D01*
X273863180Y-115015829D01*
X273958418Y-114920591D01*
X274148894Y-114872972D01*
X274482227Y-114872972D01*
X274672703Y-114920591D01*
X274767941Y-115015829D01*
X274815560Y-115111067D01*
X274815560Y-115301543D01*
X274767941Y-115396781D01*
X274672703Y-115492020D01*
X274482227Y-115539639D01*
X274148894Y-115539639D01*
X273958418Y-115492020D01*
X273863180Y-115396781D01*
X273815560Y-115301543D01*
X274148894Y-114587258D02*
X274148894Y-114206305D01*
X274815560Y-114444400D02*
X273958418Y-114444400D01*
X273863180Y-114396781D01*
X273815560Y-114301543D01*
X273815560Y-114206305D01*
X274148894Y-114015829D02*
X274148894Y-113634877D01*
X274815560Y-113872972D02*
X273958418Y-113872972D01*
X273863180Y-113825353D01*
X273815560Y-113730115D01*
X273815560Y-113634877D01*
X274767941Y-113349162D02*
X274815560Y-113253924D01*
X274815560Y-113063448D01*
X274767941Y-112968210D01*
X274672703Y-112920591D01*
X274625084Y-112920591D01*
X274529846Y-112968210D01*
X274482227Y-113063448D01*
X274482227Y-113206305D01*
X274434608Y-113301543D01*
X274339370Y-113349162D01*
X274291751Y-113349162D01*
X274196513Y-113301543D01*
X274148894Y-113206305D01*
X274148894Y-113063448D01*
X274196513Y-112968210D01*
X274767941Y-112111067D02*
X274815560Y-112206305D01*
X274815560Y-112396781D01*
X274767941Y-112492020D01*
X274672703Y-112539639D01*
X274291751Y-112539639D01*
X274196513Y-112492020D01*
X274148894Y-112396781D01*
X274148894Y-112206305D01*
X274196513Y-112111067D01*
X274291751Y-112063448D01*
X274386989Y-112063448D01*
X274482227Y-112539639D01*
X274148894Y-111777734D02*
X274148894Y-111396781D01*
X273815560Y-111634877D02*
X274672703Y-111634877D01*
X274767941Y-111587258D01*
X274815560Y-111492020D01*
X274815560Y-111396781D01*
X274815560Y-110539639D02*
X274815560Y-111111067D01*
X274815560Y-110825353D02*
X273815560Y-110825353D01*
X273958418Y-110920591D01*
X274053656Y-111015829D01*
X274101275Y-111111067D01*
X249392700Y-142044583D02*
X248392700Y-142044583D01*
X248392700Y-141663631D01*
X248440320Y-141568393D01*
X248487939Y-141520774D01*
X248583177Y-141473155D01*
X248726034Y-141473155D01*
X248821272Y-141520774D01*
X248868891Y-141568393D01*
X248916510Y-141663631D01*
X248916510Y-142044583D01*
X249487939Y-141282679D02*
X249487939Y-140520774D01*
X249392700Y-139711250D02*
X248916510Y-140044583D01*
X249392700Y-140282679D02*
X248392700Y-140282679D01*
X248392700Y-139901726D01*
X248440320Y-139806488D01*
X248487939Y-139758869D01*
X248583177Y-139711250D01*
X248726034Y-139711250D01*
X248821272Y-139758869D01*
X248868891Y-139806488D01*
X248916510Y-139901726D01*
X248916510Y-140282679D01*
X248726034Y-138854107D02*
X249392700Y-138854107D01*
X248726034Y-139282679D02*
X249249843Y-139282679D01*
X249345081Y-139235060D01*
X249392700Y-139139821D01*
X249392700Y-138996964D01*
X249345081Y-138901726D01*
X249297462Y-138854107D01*
X248726034Y-138377917D02*
X249392700Y-138377917D01*
X248821272Y-138377917D02*
X248773653Y-138330298D01*
X248726034Y-138235060D01*
X248726034Y-138092202D01*
X248773653Y-137996964D01*
X248868891Y-137949345D01*
X249392700Y-137949345D01*
X248726034Y-137044583D02*
X249535558Y-137044583D01*
X249630796Y-137092202D01*
X249678415Y-137139821D01*
X249726034Y-137235060D01*
X249726034Y-137377917D01*
X249678415Y-137473155D01*
X249345081Y-137044583D02*
X249392700Y-137139821D01*
X249392700Y-137330298D01*
X249345081Y-137425536D01*
X249297462Y-137473155D01*
X249202224Y-137520774D01*
X248916510Y-137520774D01*
X248821272Y-137473155D01*
X248773653Y-137425536D01*
X248726034Y-137330298D01*
X248726034Y-137139821D01*
X248773653Y-137044583D01*
X249392700Y-136425536D02*
X249345081Y-136520774D01*
X249249843Y-136568393D01*
X248392700Y-136568393D01*
X249345081Y-135663631D02*
X249392700Y-135758869D01*
X249392700Y-135949345D01*
X249345081Y-136044583D01*
X249249843Y-136092202D01*
X248868891Y-136092202D01*
X248773653Y-136044583D01*
X248726034Y-135949345D01*
X248726034Y-135758869D01*
X248773653Y-135663631D01*
X248868891Y-135616012D01*
X248964129Y-135616012D01*
X249059367Y-136092202D01*
X249392700Y-135187440D02*
X248726034Y-135187440D01*
X248916510Y-135187440D02*
X248821272Y-135139821D01*
X248773653Y-135092202D01*
X248726034Y-134996964D01*
X248726034Y-134901726D01*
X249487939Y-134806488D02*
X249487939Y-134044583D01*
X248868891Y-133473155D02*
X248868891Y-133806488D01*
X249392700Y-133806488D02*
X248392700Y-133806488D01*
X248392700Y-133330298D01*
X249392700Y-132949345D02*
X248726034Y-132949345D01*
X248392700Y-132949345D02*
X248440320Y-132996964D01*
X248487939Y-132949345D01*
X248440320Y-132901726D01*
X248392700Y-132949345D01*
X248487939Y-132949345D01*
X249392700Y-132330298D02*
X249345081Y-132425536D01*
X249249843Y-132473155D01*
X248392700Y-132473155D01*
X248726034Y-132092202D02*
X248726034Y-131711250D01*
X248392700Y-131949345D02*
X249249843Y-131949345D01*
X249345081Y-131901726D01*
X249392700Y-131806488D01*
X249392700Y-131711250D01*
X249345081Y-130996964D02*
X249392700Y-131092202D01*
X249392700Y-131282679D01*
X249345081Y-131377917D01*
X249249843Y-131425536D01*
X248868891Y-131425536D01*
X248773653Y-131377917D01*
X248726034Y-131282679D01*
X248726034Y-131092202D01*
X248773653Y-130996964D01*
X248868891Y-130949345D01*
X248964129Y-130949345D01*
X249059367Y-131425536D01*
X249392700Y-130520774D02*
X248726034Y-130520774D01*
X248916510Y-130520774D02*
X248821272Y-130473155D01*
X248773653Y-130425536D01*
X248726034Y-130330298D01*
X248726034Y-130235060D01*
X249392700Y-129377917D02*
X249392700Y-129949345D01*
X249392700Y-129663631D02*
X248392700Y-129663631D01*
X248535558Y-129758869D01*
X248630796Y-129854107D01*
X248678415Y-129949345D01*
X190166666Y-53277380D02*
X190166666Y-53991666D01*
X190119047Y-54134523D01*
X190023809Y-54229761D01*
X189880952Y-54277380D01*
X189785714Y-54277380D01*
X190547619Y-53277380D02*
X191214285Y-53277380D01*
X190785714Y-54277380D01*
X240490476Y-72327380D02*
X240490476Y-73041666D01*
X240442857Y-73184523D01*
X240347619Y-73279761D01*
X240204761Y-73327380D01*
X240109523Y-73327380D01*
X241490476Y-73327380D02*
X240919047Y-73327380D01*
X241204761Y-73327380D02*
X241204761Y-72327380D01*
X241109523Y-72470238D01*
X241014285Y-72565476D01*
X240919047Y-72613095D01*
X242442857Y-73327380D02*
X241871428Y-73327380D01*
X242157142Y-73327380D02*
X242157142Y-72327380D01*
X242061904Y-72470238D01*
X241966666Y-72565476D01*
X241871428Y-72613095D01*
X215566666Y-53277380D02*
X215566666Y-53991666D01*
X215519047Y-54134523D01*
X215423809Y-54229761D01*
X215280952Y-54277380D01*
X215185714Y-54277380D01*
X216185714Y-53705952D02*
X216090476Y-53658333D01*
X216042857Y-53610714D01*
X215995238Y-53515476D01*
X215995238Y-53467857D01*
X216042857Y-53372619D01*
X216090476Y-53325000D01*
X216185714Y-53277380D01*
X216376190Y-53277380D01*
X216471428Y-53325000D01*
X216519047Y-53372619D01*
X216566666Y-53467857D01*
X216566666Y-53515476D01*
X216519047Y-53610714D01*
X216471428Y-53658333D01*
X216376190Y-53705952D01*
X216185714Y-53705952D01*
X216090476Y-53753571D01*
X216042857Y-53801190D01*
X215995238Y-53896428D01*
X215995238Y-54086904D01*
X216042857Y-54182142D01*
X216090476Y-54229761D01*
X216185714Y-54277380D01*
X216376190Y-54277380D01*
X216471428Y-54229761D01*
X216519047Y-54182142D01*
X216566666Y-54086904D01*
X216566666Y-53896428D01*
X216519047Y-53801190D01*
X216471428Y-53753571D01*
X216376190Y-53705952D01*
X265890476Y-91377380D02*
X265890476Y-92091666D01*
X265842857Y-92234523D01*
X265747619Y-92329761D01*
X265604761Y-92377380D01*
X265509523Y-92377380D01*
X266890476Y-92377380D02*
X266319047Y-92377380D01*
X266604761Y-92377380D02*
X266604761Y-91377380D01*
X266509523Y-91520238D01*
X266414285Y-91615476D01*
X266319047Y-91663095D01*
X267271428Y-91472619D02*
X267319047Y-91425000D01*
X267414285Y-91377380D01*
X267652380Y-91377380D01*
X267747619Y-91425000D01*
X267795238Y-91472619D01*
X267842857Y-91567857D01*
X267842857Y-91663095D01*
X267795238Y-91805952D01*
X267223809Y-92377380D01*
X267842857Y-92377380D01*
X265366666Y-142239761D02*
X265509523Y-142287380D01*
X265747619Y-142287380D01*
X265842857Y-142239761D01*
X265890476Y-142192142D01*
X265938095Y-142096904D01*
X265938095Y-142001666D01*
X265890476Y-141906428D01*
X265842857Y-141858809D01*
X265747619Y-141811190D01*
X265557142Y-141763571D01*
X265461904Y-141715952D01*
X265414285Y-141668333D01*
X265366666Y-141573095D01*
X265366666Y-141477857D01*
X265414285Y-141382619D01*
X265461904Y-141335000D01*
X265557142Y-141287380D01*
X265795238Y-141287380D01*
X265938095Y-141335000D01*
X266271428Y-141287380D02*
X266509523Y-142287380D01*
X266700000Y-141573095D01*
X266890476Y-142287380D01*
X267128571Y-141287380D01*
X268033333Y-142287380D02*
X267461904Y-142287380D01*
X267747619Y-142287380D02*
X267747619Y-141287380D01*
X267652380Y-141430238D01*
X267557142Y-141525476D01*
X267461904Y-141573095D01*
X266366666Y-53277380D02*
X266366666Y-53991666D01*
X266319047Y-54134523D01*
X266223809Y-54229761D01*
X266080952Y-54277380D01*
X265985714Y-54277380D01*
X267271428Y-53610714D02*
X267271428Y-54277380D01*
X267033333Y-53229761D02*
X266795238Y-53944047D01*
X267414285Y-53944047D01*
X265890476Y-72327380D02*
X265890476Y-73041666D01*
X265842857Y-73184523D01*
X265747619Y-73279761D01*
X265604761Y-73327380D01*
X265509523Y-73327380D01*
X266890476Y-73327380D02*
X266319047Y-73327380D01*
X266604761Y-73327380D02*
X266604761Y-72327380D01*
X266509523Y-72470238D01*
X266414285Y-72565476D01*
X266319047Y-72613095D01*
X267223809Y-72327380D02*
X267842857Y-72327380D01*
X267509523Y-72708333D01*
X267652380Y-72708333D01*
X267747619Y-72755952D01*
X267795238Y-72803571D01*
X267842857Y-72898809D01*
X267842857Y-73136904D01*
X267795238Y-73232142D01*
X267747619Y-73279761D01*
X267652380Y-73327380D01*
X267366666Y-73327380D01*
X267271428Y-73279761D01*
X267223809Y-73232142D01*
X240966666Y-91377380D02*
X240966666Y-92091666D01*
X240919047Y-92234523D01*
X240823809Y-92329761D01*
X240680952Y-92377380D01*
X240585714Y-92377380D01*
X241919047Y-91377380D02*
X241442857Y-91377380D01*
X241395238Y-91853571D01*
X241442857Y-91805952D01*
X241538095Y-91758333D01*
X241776190Y-91758333D01*
X241871428Y-91805952D01*
X241919047Y-91853571D01*
X241966666Y-91948809D01*
X241966666Y-92186904D01*
X241919047Y-92282142D01*
X241871428Y-92329761D01*
X241776190Y-92377380D01*
X241538095Y-92377380D01*
X241442857Y-92329761D01*
X241395238Y-92282142D01*
X215566666Y-72327380D02*
X215566666Y-73041666D01*
X215519047Y-73184523D01*
X215423809Y-73279761D01*
X215280952Y-73327380D01*
X215185714Y-73327380D01*
X216471428Y-72327380D02*
X216280952Y-72327380D01*
X216185714Y-72375000D01*
X216138095Y-72422619D01*
X216042857Y-72565476D01*
X215995238Y-72755952D01*
X215995238Y-73136904D01*
X216042857Y-73232142D01*
X216090476Y-73279761D01*
X216185714Y-73327380D01*
X216376190Y-73327380D01*
X216471428Y-73279761D01*
X216519047Y-73232142D01*
X216566666Y-73136904D01*
X216566666Y-72898809D01*
X216519047Y-72803571D01*
X216471428Y-72755952D01*
X216376190Y-72708333D01*
X216185714Y-72708333D01*
X216090476Y-72755952D01*
X216042857Y-72803571D01*
X215995238Y-72898809D01*
X190166666Y-72327380D02*
X190166666Y-73041666D01*
X190119047Y-73184523D01*
X190023809Y-73279761D01*
X189880952Y-73327380D01*
X189785714Y-73327380D01*
X190690476Y-73327380D02*
X190880952Y-73327380D01*
X190976190Y-73279761D01*
X191023809Y-73232142D01*
X191119047Y-73089285D01*
X191166666Y-72898809D01*
X191166666Y-72517857D01*
X191119047Y-72422619D01*
X191071428Y-72375000D01*
X190976190Y-72327380D01*
X190785714Y-72327380D01*
X190690476Y-72375000D01*
X190642857Y-72422619D01*
X190595238Y-72517857D01*
X190595238Y-72755952D01*
X190642857Y-72851190D01*
X190690476Y-72898809D01*
X190785714Y-72946428D01*
X190976190Y-72946428D01*
X191071428Y-72898809D01*
X191119047Y-72851190D01*
X191166666Y-72755952D01*
X240490476Y-53277380D02*
X240490476Y-53991666D01*
X240442857Y-54134523D01*
X240347619Y-54229761D01*
X240204761Y-54277380D01*
X240109523Y-54277380D01*
X241490476Y-54277380D02*
X240919047Y-54277380D01*
X241204761Y-54277380D02*
X241204761Y-53277380D01*
X241109523Y-53420238D01*
X241014285Y-53515476D01*
X240919047Y-53563095D01*
X242109523Y-53277380D02*
X242204761Y-53277380D01*
X242300000Y-53325000D01*
X242347619Y-53372619D01*
X242395238Y-53467857D01*
X242442857Y-53658333D01*
X242442857Y-53896428D01*
X242395238Y-54086904D01*
X242347619Y-54182142D01*
X242300000Y-54229761D01*
X242204761Y-54277380D01*
X242109523Y-54277380D01*
X242014285Y-54229761D01*
X241966666Y-54182142D01*
X241919047Y-54086904D01*
X241871428Y-53896428D01*
X241871428Y-53658333D01*
X241919047Y-53467857D01*
X241966666Y-53372619D01*
X242014285Y-53325000D01*
X242109523Y-53277380D01*
X189690476Y-91377380D02*
X189690476Y-92091666D01*
X189642857Y-92234523D01*
X189547619Y-92329761D01*
X189404761Y-92377380D01*
X189309523Y-92377380D01*
X190690476Y-92377380D02*
X190119047Y-92377380D01*
X190404761Y-92377380D02*
X190404761Y-91377380D01*
X190309523Y-91520238D01*
X190214285Y-91615476D01*
X190119047Y-91663095D01*
X191547619Y-91710714D02*
X191547619Y-92377380D01*
X191309523Y-91329761D02*
X191071428Y-92044047D01*
X191690476Y-92044047D01*
X215090476Y-91377380D02*
X215090476Y-92091666D01*
X215042857Y-92234523D01*
X214947619Y-92329761D01*
X214804761Y-92377380D01*
X214709523Y-92377380D01*
X216090476Y-92377380D02*
X215519047Y-92377380D01*
X215804761Y-92377380D02*
X215804761Y-91377380D01*
X215709523Y-91520238D01*
X215614285Y-91615476D01*
X215519047Y-91663095D01*
X216995238Y-91377380D02*
X216519047Y-91377380D01*
X216471428Y-91853571D01*
X216519047Y-91805952D01*
X216614285Y-91758333D01*
X216852380Y-91758333D01*
X216947619Y-91805952D01*
X216995238Y-91853571D01*
X217042857Y-91948809D01*
X217042857Y-92186904D01*
X216995238Y-92282142D01*
X216947619Y-92329761D01*
X216852380Y-92377380D01*
X216614285Y-92377380D01*
X216519047Y-92329761D01*
X216471428Y-92282142D01*
M02*
