G04 #@! TF.GenerationSoftware,KiCad,Pcbnew,(5.1.2)-2*
G04 #@! TF.CreationDate,2019-09-08T22:54:21+02:00*
G04 #@! TF.ProjectId,Benjolin_Kicad,42656e6a-6f6c-4696-9e5f-4b696361642e,rev?*
G04 #@! TF.SameCoordinates,Original*
G04 #@! TF.FileFunction,Legend,Bot*
G04 #@! TF.FilePolarity,Positive*
%FSLAX46Y46*%
G04 Gerber Fmt 4.6, Leading zero omitted, Abs format (unit mm)*
G04 Created by KiCad (PCBNEW (5.1.2)-2) date 2019-09-08 22:54:21*
%MOMM*%
%LPD*%
G04 APERTURE LIST*
%ADD10C,0.300000*%
%ADD11C,0.150000*%
%ADD12C,0.100000*%
%ADD13C,0.120000*%
G04 APERTURE END LIST*
D10*
X251448000Y-158622857D02*
X251519428Y-158765714D01*
X251519428Y-158980000D01*
X251448000Y-159194285D01*
X251305142Y-159337142D01*
X251162285Y-159408571D01*
X250876571Y-159480000D01*
X250662285Y-159480000D01*
X250376571Y-159408571D01*
X250233714Y-159337142D01*
X250090857Y-159194285D01*
X250019428Y-158980000D01*
X250019428Y-158837142D01*
X250090857Y-158622857D01*
X250162285Y-158551428D01*
X250662285Y-158551428D01*
X250662285Y-158837142D01*
X250019428Y-157908571D02*
X251519428Y-157908571D01*
X250019428Y-157051428D01*
X251519428Y-157051428D01*
X250019428Y-156337142D02*
X251519428Y-156337142D01*
X251519428Y-155980000D01*
X251448000Y-155765714D01*
X251305142Y-155622857D01*
X251162285Y-155551428D01*
X250876571Y-155480000D01*
X250662285Y-155480000D01*
X250376571Y-155551428D01*
X250233714Y-155622857D01*
X250090857Y-155765714D01*
X250019428Y-155980000D01*
X250019428Y-156337142D01*
X252832857Y-153777142D02*
X251690000Y-153777142D01*
X252261428Y-154348571D02*
X252261428Y-153205714D01*
X250190000Y-154348571D02*
X251047142Y-154348571D01*
X250618571Y-154348571D02*
X250618571Y-152848571D01*
X250761428Y-153062857D01*
X250904285Y-153205714D01*
X251047142Y-153277142D01*
X249618571Y-152991428D02*
X249547142Y-152920000D01*
X249404285Y-152848571D01*
X249047142Y-152848571D01*
X248904285Y-152920000D01*
X248832857Y-152991428D01*
X248761428Y-153134285D01*
X248761428Y-153277142D01*
X248832857Y-153491428D01*
X249690000Y-154348571D01*
X248761428Y-154348571D01*
X248332857Y-152848571D02*
X247832857Y-154348571D01*
X247332857Y-152848571D01*
X252324857Y-161905142D02*
X251182000Y-161905142D01*
X249682000Y-162476571D02*
X250539142Y-162476571D01*
X250110571Y-162476571D02*
X250110571Y-160976571D01*
X250253428Y-161190857D01*
X250396285Y-161333714D01*
X250539142Y-161405142D01*
X249110571Y-161119428D02*
X249039142Y-161048000D01*
X248896285Y-160976571D01*
X248539142Y-160976571D01*
X248396285Y-161048000D01*
X248324857Y-161119428D01*
X248253428Y-161262285D01*
X248253428Y-161405142D01*
X248324857Y-161619428D01*
X249182000Y-162476571D01*
X248253428Y-162476571D01*
X247824857Y-160976571D02*
X247324857Y-162476571D01*
X246824857Y-160976571D01*
D11*
X186991190Y-162012380D02*
X186657857Y-163012380D01*
X186324523Y-162012380D01*
X185610238Y-162964761D02*
X185705476Y-163012380D01*
X185895952Y-163012380D01*
X185991190Y-162964761D01*
X186038809Y-162869523D01*
X186038809Y-162488571D01*
X185991190Y-162393333D01*
X185895952Y-162345714D01*
X185705476Y-162345714D01*
X185610238Y-162393333D01*
X185562619Y-162488571D01*
X185562619Y-162583809D01*
X186038809Y-162679047D01*
X185134047Y-163012380D02*
X185134047Y-162345714D01*
X185134047Y-162536190D02*
X185086428Y-162440952D01*
X185038809Y-162393333D01*
X184943571Y-162345714D01*
X184848333Y-162345714D01*
X184562619Y-162964761D02*
X184467380Y-163012380D01*
X184276904Y-163012380D01*
X184181666Y-162964761D01*
X184134047Y-162869523D01*
X184134047Y-162821904D01*
X184181666Y-162726666D01*
X184276904Y-162679047D01*
X184419761Y-162679047D01*
X184515000Y-162631428D01*
X184562619Y-162536190D01*
X184562619Y-162488571D01*
X184515000Y-162393333D01*
X184419761Y-162345714D01*
X184276904Y-162345714D01*
X184181666Y-162393333D01*
X183705476Y-163012380D02*
X183705476Y-162345714D01*
X183705476Y-162012380D02*
X183753095Y-162060000D01*
X183705476Y-162107619D01*
X183657857Y-162060000D01*
X183705476Y-162012380D01*
X183705476Y-162107619D01*
X183086428Y-163012380D02*
X183181666Y-162964761D01*
X183229285Y-162917142D01*
X183276904Y-162821904D01*
X183276904Y-162536190D01*
X183229285Y-162440952D01*
X183181666Y-162393333D01*
X183086428Y-162345714D01*
X182943571Y-162345714D01*
X182848333Y-162393333D01*
X182800714Y-162440952D01*
X182753095Y-162536190D01*
X182753095Y-162821904D01*
X182800714Y-162917142D01*
X182848333Y-162964761D01*
X182943571Y-163012380D01*
X183086428Y-163012380D01*
X182324523Y-162345714D02*
X182324523Y-163012380D01*
X182324523Y-162440952D02*
X182276904Y-162393333D01*
X182181666Y-162345714D01*
X182038809Y-162345714D01*
X181943571Y-162393333D01*
X181895952Y-162488571D01*
X181895952Y-163012380D01*
X180705476Y-162107619D02*
X180657857Y-162060000D01*
X180562619Y-162012380D01*
X180324523Y-162012380D01*
X180229285Y-162060000D01*
X180181666Y-162107619D01*
X180134047Y-162202857D01*
X180134047Y-162298095D01*
X180181666Y-162440952D01*
X180753095Y-163012380D01*
X180134047Y-163012380D01*
D12*
G36*
X257175000Y-163830000D02*
G01*
X255905000Y-163830000D01*
X255905000Y-152400000D01*
X257175000Y-152400000D01*
X257175000Y-163830000D01*
G37*
X257175000Y-163830000D02*
X255905000Y-163830000D01*
X255905000Y-152400000D01*
X257175000Y-152400000D01*
X257175000Y-163830000D01*
D13*
X232760000Y-110390000D02*
X224520000Y-110390000D01*
X232760000Y-113130000D02*
X224520000Y-113130000D01*
X232760000Y-110390000D02*
X232760000Y-113130000D01*
X224520000Y-110390000D02*
X224520000Y-113130000D01*
X270860000Y-71220000D02*
X270860000Y-68480000D01*
X262620000Y-71220000D02*
X262620000Y-68480000D01*
X262620000Y-68480000D02*
X270860000Y-68480000D01*
X262620000Y-71220000D02*
X270860000Y-71220000D01*
X224440000Y-144880000D02*
X232680000Y-144880000D01*
X224440000Y-142140000D02*
X232680000Y-142140000D01*
X224440000Y-144880000D02*
X224440000Y-142140000D01*
X232680000Y-144880000D02*
X232680000Y-142140000D01*
X230520000Y-16860000D02*
X230520000Y-18700000D01*
X230520000Y-18700000D02*
X226680000Y-18700000D01*
X226680000Y-18700000D02*
X226680000Y-16860000D01*
X226680000Y-16860000D02*
X230520000Y-16860000D01*
X231470000Y-17780000D02*
X230520000Y-17780000D01*
X225730000Y-17780000D02*
X226680000Y-17780000D01*
X249840000Y-18315000D02*
X249840000Y-21055000D01*
X258080000Y-18315000D02*
X258080000Y-21055000D01*
X258080000Y-21055000D02*
X249840000Y-21055000D01*
X258080000Y-18315000D02*
X249840000Y-18315000D01*
X224440000Y-64035000D02*
X224440000Y-66775000D01*
X232680000Y-64035000D02*
X232680000Y-66775000D01*
X232680000Y-66775000D02*
X224440000Y-66775000D01*
X232680000Y-64035000D02*
X224440000Y-64035000D01*
X258080000Y-125630000D02*
X249840000Y-125630000D01*
X258080000Y-128370000D02*
X249840000Y-128370000D01*
X258080000Y-125630000D02*
X258080000Y-128370000D01*
X249840000Y-125630000D02*
X249840000Y-128370000D01*
X230520000Y-37180000D02*
X230520000Y-39020000D01*
X230520000Y-39020000D02*
X226680000Y-39020000D01*
X226680000Y-39020000D02*
X226680000Y-37180000D01*
X226680000Y-37180000D02*
X230520000Y-37180000D01*
X231470000Y-38100000D02*
X230520000Y-38100000D01*
X225730000Y-38100000D02*
X226680000Y-38100000D01*
X270860000Y-161825000D02*
X262620000Y-161825000D01*
X270860000Y-164565000D02*
X262620000Y-164565000D01*
X270860000Y-161825000D02*
X270860000Y-164565000D01*
X262620000Y-161825000D02*
X262620000Y-164565000D01*
X202200000Y-18355000D02*
G75*
G03X204200000Y-18355000I1000000J0D01*
G01*
X204200000Y-18355000D02*
X205450000Y-18355000D01*
X205450000Y-18355000D02*
X205450000Y-28635000D01*
X205450000Y-28635000D02*
X200950000Y-28635000D01*
X200950000Y-28635000D02*
X200950000Y-18355000D01*
X200950000Y-18355000D02*
X202200000Y-18355000D01*
X208450000Y-18295000D02*
X208450000Y-28695000D01*
X208450000Y-28695000D02*
X197950000Y-28695000D01*
X197950000Y-28695000D02*
X197950000Y-18295000D01*
X197950000Y-18295000D02*
X208450000Y-18295000D01*
X207360000Y-78005000D02*
X199120000Y-78005000D01*
X207360000Y-80745000D02*
X199120000Y-80745000D01*
X207360000Y-78005000D02*
X207360000Y-80745000D01*
X199120000Y-78005000D02*
X199120000Y-80745000D01*
X225730000Y-30480000D02*
X226680000Y-30480000D01*
X231470000Y-30480000D02*
X230520000Y-30480000D01*
X226680000Y-29560000D02*
X230520000Y-29560000D01*
X226680000Y-31400000D02*
X226680000Y-29560000D01*
X230520000Y-31400000D02*
X226680000Y-31400000D01*
X230520000Y-29560000D02*
X230520000Y-31400000D01*
X224520000Y-158850000D02*
X232760000Y-158850000D01*
X224520000Y-156110000D02*
X232760000Y-156110000D01*
X224520000Y-158850000D02*
X224520000Y-156110000D01*
X232760000Y-158850000D02*
X232760000Y-156110000D01*
X226680000Y-28860000D02*
X226680000Y-27020000D01*
X226680000Y-27020000D02*
X230520000Y-27020000D01*
X230520000Y-27020000D02*
X230520000Y-28860000D01*
X230520000Y-28860000D02*
X226680000Y-28860000D01*
X225730000Y-27940000D02*
X226680000Y-27940000D01*
X231470000Y-27940000D02*
X230520000Y-27940000D01*
X230520000Y-32100000D02*
X230520000Y-33940000D01*
X230520000Y-33940000D02*
X226680000Y-33940000D01*
X226680000Y-33940000D02*
X226680000Y-32100000D01*
X226680000Y-32100000D02*
X230520000Y-32100000D01*
X231470000Y-33020000D02*
X230520000Y-33020000D01*
X225730000Y-33020000D02*
X226680000Y-33020000D01*
X225730000Y-35560000D02*
X226680000Y-35560000D01*
X231470000Y-35560000D02*
X230520000Y-35560000D01*
X226680000Y-34640000D02*
X230520000Y-34640000D01*
X226680000Y-36480000D02*
X226680000Y-34640000D01*
X230520000Y-36480000D02*
X226680000Y-36480000D01*
X230520000Y-34640000D02*
X230520000Y-36480000D01*
X224520000Y-22325000D02*
X232760000Y-22325000D01*
X224520000Y-19585000D02*
X232760000Y-19585000D01*
X224520000Y-22325000D02*
X224520000Y-19585000D01*
X232760000Y-22325000D02*
X232760000Y-19585000D01*
X202200000Y-34865000D02*
G75*
G03X204200000Y-34865000I1000000J0D01*
G01*
X204200000Y-34865000D02*
X205450000Y-34865000D01*
X205450000Y-34865000D02*
X205450000Y-55305000D01*
X205450000Y-55305000D02*
X200950000Y-55305000D01*
X200950000Y-55305000D02*
X200950000Y-34865000D01*
X200950000Y-34865000D02*
X202200000Y-34865000D01*
X208450000Y-34805000D02*
X208450000Y-55365000D01*
X208450000Y-55365000D02*
X197950000Y-55365000D01*
X197950000Y-55365000D02*
X197950000Y-34805000D01*
X197950000Y-34805000D02*
X208450000Y-34805000D01*
X249840000Y-32285000D02*
X249840000Y-35025000D01*
X258080000Y-32285000D02*
X258080000Y-35025000D01*
X258080000Y-35025000D02*
X249840000Y-35025000D01*
X258080000Y-32285000D02*
X249840000Y-32285000D01*
X258160000Y-36095000D02*
X249920000Y-36095000D01*
X258160000Y-38835000D02*
X249920000Y-38835000D01*
X258160000Y-36095000D02*
X258160000Y-38835000D01*
X249920000Y-36095000D02*
X249920000Y-38835000D01*
X232680000Y-99160000D02*
X232680000Y-96420000D01*
X224440000Y-99160000D02*
X224440000Y-96420000D01*
X224440000Y-96420000D02*
X232680000Y-96420000D01*
X224440000Y-99160000D02*
X232680000Y-99160000D01*
X224440000Y-23395000D02*
X224440000Y-26135000D01*
X232680000Y-23395000D02*
X232680000Y-26135000D01*
X232680000Y-26135000D02*
X224440000Y-26135000D01*
X232680000Y-23395000D02*
X224440000Y-23395000D01*
X207360000Y-14505000D02*
X199120000Y-14505000D01*
X207360000Y-17245000D02*
X199120000Y-17245000D01*
X207360000Y-14505000D02*
X207360000Y-17245000D01*
X199120000Y-14505000D02*
X199120000Y-17245000D01*
X264260000Y-131730000D02*
X261520000Y-131730000D01*
X264260000Y-139970000D02*
X261520000Y-139970000D01*
X261520000Y-139970000D02*
X261520000Y-131730000D01*
X264260000Y-139970000D02*
X264260000Y-131730000D01*
X225730000Y-15240000D02*
X226680000Y-15240000D01*
X231470000Y-15240000D02*
X230520000Y-15240000D01*
X226680000Y-14320000D02*
X230520000Y-14320000D01*
X226680000Y-16160000D02*
X226680000Y-14320000D01*
X230520000Y-16160000D02*
X226680000Y-16160000D01*
X230520000Y-14320000D02*
X230520000Y-16160000D01*
X274855000Y-152750000D02*
X277595000Y-152750000D01*
X274855000Y-144510000D02*
X277595000Y-144510000D01*
X277595000Y-144510000D02*
X277595000Y-152750000D01*
X274855000Y-144510000D02*
X274855000Y-152750000D01*
X255330000Y-163255000D02*
X252670000Y-163255000D01*
X255330000Y-155575000D02*
X255330000Y-163255000D01*
X252670000Y-155575000D02*
X252670000Y-163255000D01*
X255330000Y-155575000D02*
X252670000Y-155575000D01*
X255330000Y-154305000D02*
X255330000Y-152975000D01*
X255330000Y-152975000D02*
X254000000Y-152975000D01*
X254600225Y-149680000D02*
X254600225Y-149180000D01*
X254350225Y-149430000D02*
X254850225Y-149430000D01*
X259756000Y-148239000D02*
X259756000Y-147671000D01*
X259716000Y-148473000D02*
X259716000Y-147437000D01*
X259676000Y-148632000D02*
X259676000Y-147278000D01*
X259636000Y-148760000D02*
X259636000Y-147150000D01*
X259596000Y-148870000D02*
X259596000Y-147040000D01*
X259556000Y-148966000D02*
X259556000Y-146944000D01*
X259516000Y-149053000D02*
X259516000Y-146857000D01*
X259476000Y-149133000D02*
X259476000Y-146777000D01*
X259436000Y-146915000D02*
X259436000Y-146704000D01*
X259436000Y-149206000D02*
X259436000Y-148995000D01*
X259396000Y-146915000D02*
X259396000Y-146636000D01*
X259396000Y-149274000D02*
X259396000Y-148995000D01*
X259356000Y-146915000D02*
X259356000Y-146572000D01*
X259356000Y-149338000D02*
X259356000Y-148995000D01*
X259316000Y-146915000D02*
X259316000Y-146512000D01*
X259316000Y-149398000D02*
X259316000Y-148995000D01*
X259276000Y-146915000D02*
X259276000Y-146455000D01*
X259276000Y-149455000D02*
X259276000Y-148995000D01*
X259236000Y-146915000D02*
X259236000Y-146401000D01*
X259236000Y-149509000D02*
X259236000Y-148995000D01*
X259196000Y-146915000D02*
X259196000Y-146350000D01*
X259196000Y-149560000D02*
X259196000Y-148995000D01*
X259156000Y-146915000D02*
X259156000Y-146302000D01*
X259156000Y-149608000D02*
X259156000Y-148995000D01*
X259116000Y-146915000D02*
X259116000Y-146256000D01*
X259116000Y-149654000D02*
X259116000Y-148995000D01*
X259076000Y-146915000D02*
X259076000Y-146212000D01*
X259076000Y-149698000D02*
X259076000Y-148995000D01*
X259036000Y-146915000D02*
X259036000Y-146170000D01*
X259036000Y-149740000D02*
X259036000Y-148995000D01*
X258996000Y-146915000D02*
X258996000Y-146129000D01*
X258996000Y-149781000D02*
X258996000Y-148995000D01*
X258956000Y-146915000D02*
X258956000Y-146091000D01*
X258956000Y-149819000D02*
X258956000Y-148995000D01*
X258916000Y-146915000D02*
X258916000Y-146054000D01*
X258916000Y-149856000D02*
X258916000Y-148995000D01*
X258876000Y-146915000D02*
X258876000Y-146018000D01*
X258876000Y-149892000D02*
X258876000Y-148995000D01*
X258836000Y-146915000D02*
X258836000Y-145984000D01*
X258836000Y-149926000D02*
X258836000Y-148995000D01*
X258796000Y-146915000D02*
X258796000Y-145951000D01*
X258796000Y-149959000D02*
X258796000Y-148995000D01*
X258756000Y-146915000D02*
X258756000Y-145920000D01*
X258756000Y-149990000D02*
X258756000Y-148995000D01*
X258716000Y-146915000D02*
X258716000Y-145890000D01*
X258716000Y-150020000D02*
X258716000Y-148995000D01*
X258676000Y-146915000D02*
X258676000Y-145860000D01*
X258676000Y-150050000D02*
X258676000Y-148995000D01*
X258636000Y-146915000D02*
X258636000Y-145833000D01*
X258636000Y-150077000D02*
X258636000Y-148995000D01*
X258596000Y-146915000D02*
X258596000Y-145806000D01*
X258596000Y-150104000D02*
X258596000Y-148995000D01*
X258556000Y-146915000D02*
X258556000Y-145780000D01*
X258556000Y-150130000D02*
X258556000Y-148995000D01*
X258516000Y-146915000D02*
X258516000Y-145755000D01*
X258516000Y-150155000D02*
X258516000Y-148995000D01*
X258476000Y-146915000D02*
X258476000Y-145731000D01*
X258476000Y-150179000D02*
X258476000Y-148995000D01*
X258436000Y-146915000D02*
X258436000Y-145708000D01*
X258436000Y-150202000D02*
X258436000Y-148995000D01*
X258396000Y-146915000D02*
X258396000Y-145687000D01*
X258396000Y-150223000D02*
X258396000Y-148995000D01*
X258356000Y-146915000D02*
X258356000Y-145665000D01*
X258356000Y-150245000D02*
X258356000Y-148995000D01*
X258316000Y-146915000D02*
X258316000Y-145645000D01*
X258316000Y-150265000D02*
X258316000Y-148995000D01*
X258276000Y-146915000D02*
X258276000Y-145626000D01*
X258276000Y-150284000D02*
X258276000Y-148995000D01*
X258236000Y-146915000D02*
X258236000Y-145607000D01*
X258236000Y-150303000D02*
X258236000Y-148995000D01*
X258196000Y-146915000D02*
X258196000Y-145590000D01*
X258196000Y-150320000D02*
X258196000Y-148995000D01*
X258156000Y-146915000D02*
X258156000Y-145573000D01*
X258156000Y-150337000D02*
X258156000Y-148995000D01*
X258116000Y-146915000D02*
X258116000Y-145557000D01*
X258116000Y-150353000D02*
X258116000Y-148995000D01*
X258076000Y-146915000D02*
X258076000Y-145541000D01*
X258076000Y-150369000D02*
X258076000Y-148995000D01*
X258036000Y-146915000D02*
X258036000Y-145527000D01*
X258036000Y-150383000D02*
X258036000Y-148995000D01*
X257996000Y-146915000D02*
X257996000Y-145513000D01*
X257996000Y-150397000D02*
X257996000Y-148995000D01*
X257956000Y-146915000D02*
X257956000Y-145500000D01*
X257956000Y-150410000D02*
X257956000Y-148995000D01*
X257916000Y-146915000D02*
X257916000Y-145487000D01*
X257916000Y-150423000D02*
X257916000Y-148995000D01*
X257876000Y-146915000D02*
X257876000Y-145475000D01*
X257876000Y-150435000D02*
X257876000Y-148995000D01*
X257835000Y-146915000D02*
X257835000Y-145464000D01*
X257835000Y-150446000D02*
X257835000Y-148995000D01*
X257795000Y-146915000D02*
X257795000Y-145454000D01*
X257795000Y-150456000D02*
X257795000Y-148995000D01*
X257755000Y-146915000D02*
X257755000Y-145444000D01*
X257755000Y-150466000D02*
X257755000Y-148995000D01*
X257715000Y-146915000D02*
X257715000Y-145435000D01*
X257715000Y-150475000D02*
X257715000Y-148995000D01*
X257675000Y-146915000D02*
X257675000Y-145427000D01*
X257675000Y-150483000D02*
X257675000Y-148995000D01*
X257635000Y-146915000D02*
X257635000Y-145419000D01*
X257635000Y-150491000D02*
X257635000Y-148995000D01*
X257595000Y-146915000D02*
X257595000Y-145412000D01*
X257595000Y-150498000D02*
X257595000Y-148995000D01*
X257555000Y-146915000D02*
X257555000Y-145405000D01*
X257555000Y-150505000D02*
X257555000Y-148995000D01*
X257515000Y-146915000D02*
X257515000Y-145399000D01*
X257515000Y-150511000D02*
X257515000Y-148995000D01*
X257475000Y-146915000D02*
X257475000Y-145394000D01*
X257475000Y-150516000D02*
X257475000Y-148995000D01*
X257435000Y-146915000D02*
X257435000Y-145390000D01*
X257435000Y-150520000D02*
X257435000Y-148995000D01*
X257395000Y-146915000D02*
X257395000Y-145386000D01*
X257395000Y-150524000D02*
X257395000Y-148995000D01*
X257355000Y-150528000D02*
X257355000Y-145382000D01*
X257315000Y-150531000D02*
X257315000Y-145379000D01*
X257275000Y-150533000D02*
X257275000Y-145377000D01*
X257235000Y-150534000D02*
X257235000Y-145376000D01*
X257195000Y-150535000D02*
X257195000Y-145375000D01*
X257155000Y-150535000D02*
X257155000Y-145375000D01*
X259775000Y-147955000D02*
G75*
G03X259775000Y-147955000I-2620000J0D01*
G01*
X255235225Y-135710000D02*
X255235225Y-135210000D01*
X254985225Y-135460000D02*
X255485225Y-135460000D01*
X260391000Y-134269000D02*
X260391000Y-133701000D01*
X260351000Y-134503000D02*
X260351000Y-133467000D01*
X260311000Y-134662000D02*
X260311000Y-133308000D01*
X260271000Y-134790000D02*
X260271000Y-133180000D01*
X260231000Y-134900000D02*
X260231000Y-133070000D01*
X260191000Y-134996000D02*
X260191000Y-132974000D01*
X260151000Y-135083000D02*
X260151000Y-132887000D01*
X260111000Y-135163000D02*
X260111000Y-132807000D01*
X260071000Y-132945000D02*
X260071000Y-132734000D01*
X260071000Y-135236000D02*
X260071000Y-135025000D01*
X260031000Y-132945000D02*
X260031000Y-132666000D01*
X260031000Y-135304000D02*
X260031000Y-135025000D01*
X259991000Y-132945000D02*
X259991000Y-132602000D01*
X259991000Y-135368000D02*
X259991000Y-135025000D01*
X259951000Y-132945000D02*
X259951000Y-132542000D01*
X259951000Y-135428000D02*
X259951000Y-135025000D01*
X259911000Y-132945000D02*
X259911000Y-132485000D01*
X259911000Y-135485000D02*
X259911000Y-135025000D01*
X259871000Y-132945000D02*
X259871000Y-132431000D01*
X259871000Y-135539000D02*
X259871000Y-135025000D01*
X259831000Y-132945000D02*
X259831000Y-132380000D01*
X259831000Y-135590000D02*
X259831000Y-135025000D01*
X259791000Y-132945000D02*
X259791000Y-132332000D01*
X259791000Y-135638000D02*
X259791000Y-135025000D01*
X259751000Y-132945000D02*
X259751000Y-132286000D01*
X259751000Y-135684000D02*
X259751000Y-135025000D01*
X259711000Y-132945000D02*
X259711000Y-132242000D01*
X259711000Y-135728000D02*
X259711000Y-135025000D01*
X259671000Y-132945000D02*
X259671000Y-132200000D01*
X259671000Y-135770000D02*
X259671000Y-135025000D01*
X259631000Y-132945000D02*
X259631000Y-132159000D01*
X259631000Y-135811000D02*
X259631000Y-135025000D01*
X259591000Y-132945000D02*
X259591000Y-132121000D01*
X259591000Y-135849000D02*
X259591000Y-135025000D01*
X259551000Y-132945000D02*
X259551000Y-132084000D01*
X259551000Y-135886000D02*
X259551000Y-135025000D01*
X259511000Y-132945000D02*
X259511000Y-132048000D01*
X259511000Y-135922000D02*
X259511000Y-135025000D01*
X259471000Y-132945000D02*
X259471000Y-132014000D01*
X259471000Y-135956000D02*
X259471000Y-135025000D01*
X259431000Y-132945000D02*
X259431000Y-131981000D01*
X259431000Y-135989000D02*
X259431000Y-135025000D01*
X259391000Y-132945000D02*
X259391000Y-131950000D01*
X259391000Y-136020000D02*
X259391000Y-135025000D01*
X259351000Y-132945000D02*
X259351000Y-131920000D01*
X259351000Y-136050000D02*
X259351000Y-135025000D01*
X259311000Y-132945000D02*
X259311000Y-131890000D01*
X259311000Y-136080000D02*
X259311000Y-135025000D01*
X259271000Y-132945000D02*
X259271000Y-131863000D01*
X259271000Y-136107000D02*
X259271000Y-135025000D01*
X259231000Y-132945000D02*
X259231000Y-131836000D01*
X259231000Y-136134000D02*
X259231000Y-135025000D01*
X259191000Y-132945000D02*
X259191000Y-131810000D01*
X259191000Y-136160000D02*
X259191000Y-135025000D01*
X259151000Y-132945000D02*
X259151000Y-131785000D01*
X259151000Y-136185000D02*
X259151000Y-135025000D01*
X259111000Y-132945000D02*
X259111000Y-131761000D01*
X259111000Y-136209000D02*
X259111000Y-135025000D01*
X259071000Y-132945000D02*
X259071000Y-131738000D01*
X259071000Y-136232000D02*
X259071000Y-135025000D01*
X259031000Y-132945000D02*
X259031000Y-131717000D01*
X259031000Y-136253000D02*
X259031000Y-135025000D01*
X258991000Y-132945000D02*
X258991000Y-131695000D01*
X258991000Y-136275000D02*
X258991000Y-135025000D01*
X258951000Y-132945000D02*
X258951000Y-131675000D01*
X258951000Y-136295000D02*
X258951000Y-135025000D01*
X258911000Y-132945000D02*
X258911000Y-131656000D01*
X258911000Y-136314000D02*
X258911000Y-135025000D01*
X258871000Y-132945000D02*
X258871000Y-131637000D01*
X258871000Y-136333000D02*
X258871000Y-135025000D01*
X258831000Y-132945000D02*
X258831000Y-131620000D01*
X258831000Y-136350000D02*
X258831000Y-135025000D01*
X258791000Y-132945000D02*
X258791000Y-131603000D01*
X258791000Y-136367000D02*
X258791000Y-135025000D01*
X258751000Y-132945000D02*
X258751000Y-131587000D01*
X258751000Y-136383000D02*
X258751000Y-135025000D01*
X258711000Y-132945000D02*
X258711000Y-131571000D01*
X258711000Y-136399000D02*
X258711000Y-135025000D01*
X258671000Y-132945000D02*
X258671000Y-131557000D01*
X258671000Y-136413000D02*
X258671000Y-135025000D01*
X258631000Y-132945000D02*
X258631000Y-131543000D01*
X258631000Y-136427000D02*
X258631000Y-135025000D01*
X258591000Y-132945000D02*
X258591000Y-131530000D01*
X258591000Y-136440000D02*
X258591000Y-135025000D01*
X258551000Y-132945000D02*
X258551000Y-131517000D01*
X258551000Y-136453000D02*
X258551000Y-135025000D01*
X258511000Y-132945000D02*
X258511000Y-131505000D01*
X258511000Y-136465000D02*
X258511000Y-135025000D01*
X258470000Y-132945000D02*
X258470000Y-131494000D01*
X258470000Y-136476000D02*
X258470000Y-135025000D01*
X258430000Y-132945000D02*
X258430000Y-131484000D01*
X258430000Y-136486000D02*
X258430000Y-135025000D01*
X258390000Y-132945000D02*
X258390000Y-131474000D01*
X258390000Y-136496000D02*
X258390000Y-135025000D01*
X258350000Y-132945000D02*
X258350000Y-131465000D01*
X258350000Y-136505000D02*
X258350000Y-135025000D01*
X258310000Y-132945000D02*
X258310000Y-131457000D01*
X258310000Y-136513000D02*
X258310000Y-135025000D01*
X258270000Y-132945000D02*
X258270000Y-131449000D01*
X258270000Y-136521000D02*
X258270000Y-135025000D01*
X258230000Y-132945000D02*
X258230000Y-131442000D01*
X258230000Y-136528000D02*
X258230000Y-135025000D01*
X258190000Y-132945000D02*
X258190000Y-131435000D01*
X258190000Y-136535000D02*
X258190000Y-135025000D01*
X258150000Y-132945000D02*
X258150000Y-131429000D01*
X258150000Y-136541000D02*
X258150000Y-135025000D01*
X258110000Y-132945000D02*
X258110000Y-131424000D01*
X258110000Y-136546000D02*
X258110000Y-135025000D01*
X258070000Y-132945000D02*
X258070000Y-131420000D01*
X258070000Y-136550000D02*
X258070000Y-135025000D01*
X258030000Y-132945000D02*
X258030000Y-131416000D01*
X258030000Y-136554000D02*
X258030000Y-135025000D01*
X257990000Y-136558000D02*
X257990000Y-131412000D01*
X257950000Y-136561000D02*
X257950000Y-131409000D01*
X257910000Y-136563000D02*
X257910000Y-131407000D01*
X257870000Y-136564000D02*
X257870000Y-131406000D01*
X257830000Y-136565000D02*
X257830000Y-131405000D01*
X257790000Y-136565000D02*
X257790000Y-131405000D01*
X260410000Y-133985000D02*
G75*
G03X260410000Y-133985000I-2620000J0D01*
G01*
X205920000Y-158880000D02*
X205920000Y-158550000D01*
X205920000Y-158550000D02*
X200480000Y-158550000D01*
X200480000Y-158550000D02*
X200480000Y-158880000D01*
X205920000Y-161160000D02*
X205920000Y-161490000D01*
X205920000Y-161490000D02*
X200480000Y-161490000D01*
X200480000Y-161490000D02*
X200480000Y-161160000D01*
X205020000Y-158550000D02*
X205020000Y-161490000D01*
X204900000Y-158550000D02*
X204900000Y-161490000D01*
X205140000Y-158550000D02*
X205140000Y-161490000D01*
X253425000Y-133985000D02*
G75*
G03X253425000Y-133985000I-2620000J0D01*
G01*
X250805000Y-136565000D02*
X250805000Y-131405000D01*
X250845000Y-136565000D02*
X250845000Y-131405000D01*
X250885000Y-136564000D02*
X250885000Y-131406000D01*
X250925000Y-136563000D02*
X250925000Y-131407000D01*
X250965000Y-136561000D02*
X250965000Y-131409000D01*
X251005000Y-136558000D02*
X251005000Y-131412000D01*
X251045000Y-136554000D02*
X251045000Y-135025000D01*
X251045000Y-132945000D02*
X251045000Y-131416000D01*
X251085000Y-136550000D02*
X251085000Y-135025000D01*
X251085000Y-132945000D02*
X251085000Y-131420000D01*
X251125000Y-136546000D02*
X251125000Y-135025000D01*
X251125000Y-132945000D02*
X251125000Y-131424000D01*
X251165000Y-136541000D02*
X251165000Y-135025000D01*
X251165000Y-132945000D02*
X251165000Y-131429000D01*
X251205000Y-136535000D02*
X251205000Y-135025000D01*
X251205000Y-132945000D02*
X251205000Y-131435000D01*
X251245000Y-136528000D02*
X251245000Y-135025000D01*
X251245000Y-132945000D02*
X251245000Y-131442000D01*
X251285000Y-136521000D02*
X251285000Y-135025000D01*
X251285000Y-132945000D02*
X251285000Y-131449000D01*
X251325000Y-136513000D02*
X251325000Y-135025000D01*
X251325000Y-132945000D02*
X251325000Y-131457000D01*
X251365000Y-136505000D02*
X251365000Y-135025000D01*
X251365000Y-132945000D02*
X251365000Y-131465000D01*
X251405000Y-136496000D02*
X251405000Y-135025000D01*
X251405000Y-132945000D02*
X251405000Y-131474000D01*
X251445000Y-136486000D02*
X251445000Y-135025000D01*
X251445000Y-132945000D02*
X251445000Y-131484000D01*
X251485000Y-136476000D02*
X251485000Y-135025000D01*
X251485000Y-132945000D02*
X251485000Y-131494000D01*
X251526000Y-136465000D02*
X251526000Y-135025000D01*
X251526000Y-132945000D02*
X251526000Y-131505000D01*
X251566000Y-136453000D02*
X251566000Y-135025000D01*
X251566000Y-132945000D02*
X251566000Y-131517000D01*
X251606000Y-136440000D02*
X251606000Y-135025000D01*
X251606000Y-132945000D02*
X251606000Y-131530000D01*
X251646000Y-136427000D02*
X251646000Y-135025000D01*
X251646000Y-132945000D02*
X251646000Y-131543000D01*
X251686000Y-136413000D02*
X251686000Y-135025000D01*
X251686000Y-132945000D02*
X251686000Y-131557000D01*
X251726000Y-136399000D02*
X251726000Y-135025000D01*
X251726000Y-132945000D02*
X251726000Y-131571000D01*
X251766000Y-136383000D02*
X251766000Y-135025000D01*
X251766000Y-132945000D02*
X251766000Y-131587000D01*
X251806000Y-136367000D02*
X251806000Y-135025000D01*
X251806000Y-132945000D02*
X251806000Y-131603000D01*
X251846000Y-136350000D02*
X251846000Y-135025000D01*
X251846000Y-132945000D02*
X251846000Y-131620000D01*
X251886000Y-136333000D02*
X251886000Y-135025000D01*
X251886000Y-132945000D02*
X251886000Y-131637000D01*
X251926000Y-136314000D02*
X251926000Y-135025000D01*
X251926000Y-132945000D02*
X251926000Y-131656000D01*
X251966000Y-136295000D02*
X251966000Y-135025000D01*
X251966000Y-132945000D02*
X251966000Y-131675000D01*
X252006000Y-136275000D02*
X252006000Y-135025000D01*
X252006000Y-132945000D02*
X252006000Y-131695000D01*
X252046000Y-136253000D02*
X252046000Y-135025000D01*
X252046000Y-132945000D02*
X252046000Y-131717000D01*
X252086000Y-136232000D02*
X252086000Y-135025000D01*
X252086000Y-132945000D02*
X252086000Y-131738000D01*
X252126000Y-136209000D02*
X252126000Y-135025000D01*
X252126000Y-132945000D02*
X252126000Y-131761000D01*
X252166000Y-136185000D02*
X252166000Y-135025000D01*
X252166000Y-132945000D02*
X252166000Y-131785000D01*
X252206000Y-136160000D02*
X252206000Y-135025000D01*
X252206000Y-132945000D02*
X252206000Y-131810000D01*
X252246000Y-136134000D02*
X252246000Y-135025000D01*
X252246000Y-132945000D02*
X252246000Y-131836000D01*
X252286000Y-136107000D02*
X252286000Y-135025000D01*
X252286000Y-132945000D02*
X252286000Y-131863000D01*
X252326000Y-136080000D02*
X252326000Y-135025000D01*
X252326000Y-132945000D02*
X252326000Y-131890000D01*
X252366000Y-136050000D02*
X252366000Y-135025000D01*
X252366000Y-132945000D02*
X252366000Y-131920000D01*
X252406000Y-136020000D02*
X252406000Y-135025000D01*
X252406000Y-132945000D02*
X252406000Y-131950000D01*
X252446000Y-135989000D02*
X252446000Y-135025000D01*
X252446000Y-132945000D02*
X252446000Y-131981000D01*
X252486000Y-135956000D02*
X252486000Y-135025000D01*
X252486000Y-132945000D02*
X252486000Y-132014000D01*
X252526000Y-135922000D02*
X252526000Y-135025000D01*
X252526000Y-132945000D02*
X252526000Y-132048000D01*
X252566000Y-135886000D02*
X252566000Y-135025000D01*
X252566000Y-132945000D02*
X252566000Y-132084000D01*
X252606000Y-135849000D02*
X252606000Y-135025000D01*
X252606000Y-132945000D02*
X252606000Y-132121000D01*
X252646000Y-135811000D02*
X252646000Y-135025000D01*
X252646000Y-132945000D02*
X252646000Y-132159000D01*
X252686000Y-135770000D02*
X252686000Y-135025000D01*
X252686000Y-132945000D02*
X252686000Y-132200000D01*
X252726000Y-135728000D02*
X252726000Y-135025000D01*
X252726000Y-132945000D02*
X252726000Y-132242000D01*
X252766000Y-135684000D02*
X252766000Y-135025000D01*
X252766000Y-132945000D02*
X252766000Y-132286000D01*
X252806000Y-135638000D02*
X252806000Y-135025000D01*
X252806000Y-132945000D02*
X252806000Y-132332000D01*
X252846000Y-135590000D02*
X252846000Y-135025000D01*
X252846000Y-132945000D02*
X252846000Y-132380000D01*
X252886000Y-135539000D02*
X252886000Y-135025000D01*
X252886000Y-132945000D02*
X252886000Y-132431000D01*
X252926000Y-135485000D02*
X252926000Y-135025000D01*
X252926000Y-132945000D02*
X252926000Y-132485000D01*
X252966000Y-135428000D02*
X252966000Y-135025000D01*
X252966000Y-132945000D02*
X252966000Y-132542000D01*
X253006000Y-135368000D02*
X253006000Y-135025000D01*
X253006000Y-132945000D02*
X253006000Y-132602000D01*
X253046000Y-135304000D02*
X253046000Y-135025000D01*
X253046000Y-132945000D02*
X253046000Y-132666000D01*
X253086000Y-135236000D02*
X253086000Y-135025000D01*
X253086000Y-132945000D02*
X253086000Y-132734000D01*
X253126000Y-135163000D02*
X253126000Y-132807000D01*
X253166000Y-135083000D02*
X253166000Y-132887000D01*
X253206000Y-134996000D02*
X253206000Y-132974000D01*
X253246000Y-134900000D02*
X253246000Y-133070000D01*
X253286000Y-134790000D02*
X253286000Y-133180000D01*
X253326000Y-134662000D02*
X253326000Y-133308000D01*
X253366000Y-134503000D02*
X253366000Y-133467000D01*
X253406000Y-134269000D02*
X253406000Y-133701000D01*
X248000225Y-135460000D02*
X248500225Y-135460000D01*
X248250225Y-135710000D02*
X248250225Y-135210000D01*
X252525000Y-139585000D02*
X252525000Y-143435000D01*
X252515122Y-143473611D02*
G75*
G02X252525000Y-139585000I-1690122J1948611D01*
G01*
X253425000Y-147955000D02*
G75*
G03X253425000Y-147955000I-2620000J0D01*
G01*
X250805000Y-150535000D02*
X250805000Y-145375000D01*
X250845000Y-150535000D02*
X250845000Y-145375000D01*
X250885000Y-150534000D02*
X250885000Y-145376000D01*
X250925000Y-150533000D02*
X250925000Y-145377000D01*
X250965000Y-150531000D02*
X250965000Y-145379000D01*
X251005000Y-150528000D02*
X251005000Y-145382000D01*
X251045000Y-150524000D02*
X251045000Y-148995000D01*
X251045000Y-146915000D02*
X251045000Y-145386000D01*
X251085000Y-150520000D02*
X251085000Y-148995000D01*
X251085000Y-146915000D02*
X251085000Y-145390000D01*
X251125000Y-150516000D02*
X251125000Y-148995000D01*
X251125000Y-146915000D02*
X251125000Y-145394000D01*
X251165000Y-150511000D02*
X251165000Y-148995000D01*
X251165000Y-146915000D02*
X251165000Y-145399000D01*
X251205000Y-150505000D02*
X251205000Y-148995000D01*
X251205000Y-146915000D02*
X251205000Y-145405000D01*
X251245000Y-150498000D02*
X251245000Y-148995000D01*
X251245000Y-146915000D02*
X251245000Y-145412000D01*
X251285000Y-150491000D02*
X251285000Y-148995000D01*
X251285000Y-146915000D02*
X251285000Y-145419000D01*
X251325000Y-150483000D02*
X251325000Y-148995000D01*
X251325000Y-146915000D02*
X251325000Y-145427000D01*
X251365000Y-150475000D02*
X251365000Y-148995000D01*
X251365000Y-146915000D02*
X251365000Y-145435000D01*
X251405000Y-150466000D02*
X251405000Y-148995000D01*
X251405000Y-146915000D02*
X251405000Y-145444000D01*
X251445000Y-150456000D02*
X251445000Y-148995000D01*
X251445000Y-146915000D02*
X251445000Y-145454000D01*
X251485000Y-150446000D02*
X251485000Y-148995000D01*
X251485000Y-146915000D02*
X251485000Y-145464000D01*
X251526000Y-150435000D02*
X251526000Y-148995000D01*
X251526000Y-146915000D02*
X251526000Y-145475000D01*
X251566000Y-150423000D02*
X251566000Y-148995000D01*
X251566000Y-146915000D02*
X251566000Y-145487000D01*
X251606000Y-150410000D02*
X251606000Y-148995000D01*
X251606000Y-146915000D02*
X251606000Y-145500000D01*
X251646000Y-150397000D02*
X251646000Y-148995000D01*
X251646000Y-146915000D02*
X251646000Y-145513000D01*
X251686000Y-150383000D02*
X251686000Y-148995000D01*
X251686000Y-146915000D02*
X251686000Y-145527000D01*
X251726000Y-150369000D02*
X251726000Y-148995000D01*
X251726000Y-146915000D02*
X251726000Y-145541000D01*
X251766000Y-150353000D02*
X251766000Y-148995000D01*
X251766000Y-146915000D02*
X251766000Y-145557000D01*
X251806000Y-150337000D02*
X251806000Y-148995000D01*
X251806000Y-146915000D02*
X251806000Y-145573000D01*
X251846000Y-150320000D02*
X251846000Y-148995000D01*
X251846000Y-146915000D02*
X251846000Y-145590000D01*
X251886000Y-150303000D02*
X251886000Y-148995000D01*
X251886000Y-146915000D02*
X251886000Y-145607000D01*
X251926000Y-150284000D02*
X251926000Y-148995000D01*
X251926000Y-146915000D02*
X251926000Y-145626000D01*
X251966000Y-150265000D02*
X251966000Y-148995000D01*
X251966000Y-146915000D02*
X251966000Y-145645000D01*
X252006000Y-150245000D02*
X252006000Y-148995000D01*
X252006000Y-146915000D02*
X252006000Y-145665000D01*
X252046000Y-150223000D02*
X252046000Y-148995000D01*
X252046000Y-146915000D02*
X252046000Y-145687000D01*
X252086000Y-150202000D02*
X252086000Y-148995000D01*
X252086000Y-146915000D02*
X252086000Y-145708000D01*
X252126000Y-150179000D02*
X252126000Y-148995000D01*
X252126000Y-146915000D02*
X252126000Y-145731000D01*
X252166000Y-150155000D02*
X252166000Y-148995000D01*
X252166000Y-146915000D02*
X252166000Y-145755000D01*
X252206000Y-150130000D02*
X252206000Y-148995000D01*
X252206000Y-146915000D02*
X252206000Y-145780000D01*
X252246000Y-150104000D02*
X252246000Y-148995000D01*
X252246000Y-146915000D02*
X252246000Y-145806000D01*
X252286000Y-150077000D02*
X252286000Y-148995000D01*
X252286000Y-146915000D02*
X252286000Y-145833000D01*
X252326000Y-150050000D02*
X252326000Y-148995000D01*
X252326000Y-146915000D02*
X252326000Y-145860000D01*
X252366000Y-150020000D02*
X252366000Y-148995000D01*
X252366000Y-146915000D02*
X252366000Y-145890000D01*
X252406000Y-149990000D02*
X252406000Y-148995000D01*
X252406000Y-146915000D02*
X252406000Y-145920000D01*
X252446000Y-149959000D02*
X252446000Y-148995000D01*
X252446000Y-146915000D02*
X252446000Y-145951000D01*
X252486000Y-149926000D02*
X252486000Y-148995000D01*
X252486000Y-146915000D02*
X252486000Y-145984000D01*
X252526000Y-149892000D02*
X252526000Y-148995000D01*
X252526000Y-146915000D02*
X252526000Y-146018000D01*
X252566000Y-149856000D02*
X252566000Y-148995000D01*
X252566000Y-146915000D02*
X252566000Y-146054000D01*
X252606000Y-149819000D02*
X252606000Y-148995000D01*
X252606000Y-146915000D02*
X252606000Y-146091000D01*
X252646000Y-149781000D02*
X252646000Y-148995000D01*
X252646000Y-146915000D02*
X252646000Y-146129000D01*
X252686000Y-149740000D02*
X252686000Y-148995000D01*
X252686000Y-146915000D02*
X252686000Y-146170000D01*
X252726000Y-149698000D02*
X252726000Y-148995000D01*
X252726000Y-146915000D02*
X252726000Y-146212000D01*
X252766000Y-149654000D02*
X252766000Y-148995000D01*
X252766000Y-146915000D02*
X252766000Y-146256000D01*
X252806000Y-149608000D02*
X252806000Y-148995000D01*
X252806000Y-146915000D02*
X252806000Y-146302000D01*
X252846000Y-149560000D02*
X252846000Y-148995000D01*
X252846000Y-146915000D02*
X252846000Y-146350000D01*
X252886000Y-149509000D02*
X252886000Y-148995000D01*
X252886000Y-146915000D02*
X252886000Y-146401000D01*
X252926000Y-149455000D02*
X252926000Y-148995000D01*
X252926000Y-146915000D02*
X252926000Y-146455000D01*
X252966000Y-149398000D02*
X252966000Y-148995000D01*
X252966000Y-146915000D02*
X252966000Y-146512000D01*
X253006000Y-149338000D02*
X253006000Y-148995000D01*
X253006000Y-146915000D02*
X253006000Y-146572000D01*
X253046000Y-149274000D02*
X253046000Y-148995000D01*
X253046000Y-146915000D02*
X253046000Y-146636000D01*
X253086000Y-149206000D02*
X253086000Y-148995000D01*
X253086000Y-146915000D02*
X253086000Y-146704000D01*
X253126000Y-149133000D02*
X253126000Y-146777000D01*
X253166000Y-149053000D02*
X253166000Y-146857000D01*
X253206000Y-148966000D02*
X253206000Y-146944000D01*
X253246000Y-148870000D02*
X253246000Y-147040000D01*
X253286000Y-148760000D02*
X253286000Y-147150000D01*
X253326000Y-148632000D02*
X253326000Y-147278000D01*
X253366000Y-148473000D02*
X253366000Y-147437000D01*
X253406000Y-148239000D02*
X253406000Y-147671000D01*
X248000225Y-149430000D02*
X248500225Y-149430000D01*
X248250225Y-149680000D02*
X248250225Y-149180000D01*
X268500000Y-145995000D02*
X264900000Y-145995000D01*
X268538478Y-145983478D02*
G75*
G03X266700000Y-141545000I-1838478J1838478D01*
G01*
X264861522Y-145983478D02*
G75*
G02X266700000Y-141545000I1838478J1838478D01*
G01*
X255475000Y-143625000D02*
X255475000Y-139775000D01*
X255484878Y-139736389D02*
G75*
G02X255475000Y-143625000I1690122J-1948611D01*
G01*
X201260000Y-101800000D02*
X201260000Y-98860000D01*
X201500000Y-101800000D02*
X201500000Y-98860000D01*
X201380000Y-101800000D02*
X201380000Y-98860000D01*
X205920000Y-98860000D02*
X205920000Y-99190000D01*
X200480000Y-98860000D02*
X205920000Y-98860000D01*
X200480000Y-99190000D02*
X200480000Y-98860000D01*
X205920000Y-101800000D02*
X205920000Y-101470000D01*
X200480000Y-101800000D02*
X205920000Y-101800000D01*
X200480000Y-101470000D02*
X200480000Y-101800000D01*
X205140000Y-154740000D02*
X205140000Y-157680000D01*
X204900000Y-154740000D02*
X204900000Y-157680000D01*
X205020000Y-154740000D02*
X205020000Y-157680000D01*
X200480000Y-157680000D02*
X200480000Y-157350000D01*
X205920000Y-157680000D02*
X200480000Y-157680000D01*
X205920000Y-157350000D02*
X205920000Y-157680000D01*
X200480000Y-154740000D02*
X200480000Y-155070000D01*
X205920000Y-154740000D02*
X200480000Y-154740000D01*
X205920000Y-155070000D02*
X205920000Y-154740000D01*
X200480000Y-97660000D02*
X200480000Y-97990000D01*
X200480000Y-97990000D02*
X205920000Y-97990000D01*
X205920000Y-97990000D02*
X205920000Y-97660000D01*
X200480000Y-95380000D02*
X200480000Y-95050000D01*
X200480000Y-95050000D02*
X205920000Y-95050000D01*
X205920000Y-95050000D02*
X205920000Y-95380000D01*
X201380000Y-97990000D02*
X201380000Y-95050000D01*
X201500000Y-97990000D02*
X201500000Y-95050000D01*
X201260000Y-97990000D02*
X201260000Y-95050000D01*
X256720000Y-121415000D02*
X256720000Y-121085000D01*
X256720000Y-121085000D02*
X251280000Y-121085000D01*
X251280000Y-121085000D02*
X251280000Y-121415000D01*
X256720000Y-123695000D02*
X256720000Y-124025000D01*
X256720000Y-124025000D02*
X251280000Y-124025000D01*
X251280000Y-124025000D02*
X251280000Y-123695000D01*
X255820000Y-121085000D02*
X255820000Y-124025000D01*
X255700000Y-121085000D02*
X255700000Y-124025000D01*
X255940000Y-121085000D02*
X255940000Y-124025000D01*
X263830000Y-124460000D02*
X264780000Y-124460000D01*
X269570000Y-124460000D02*
X268620000Y-124460000D01*
X264780000Y-123540000D02*
X268620000Y-123540000D01*
X264780000Y-125380000D02*
X264780000Y-123540000D01*
X268620000Y-125380000D02*
X264780000Y-125380000D01*
X268620000Y-123540000D02*
X268620000Y-125380000D01*
X205120000Y-110205000D02*
X205120000Y-112045000D01*
X205120000Y-112045000D02*
X201280000Y-112045000D01*
X201280000Y-112045000D02*
X201280000Y-110205000D01*
X201280000Y-110205000D02*
X205120000Y-110205000D01*
X206070000Y-111125000D02*
X205120000Y-111125000D01*
X200330000Y-111125000D02*
X201280000Y-111125000D01*
X252060000Y-120215000D02*
X252060000Y-117275000D01*
X252300000Y-120215000D02*
X252300000Y-117275000D01*
X252180000Y-120215000D02*
X252180000Y-117275000D01*
X256720000Y-117275000D02*
X256720000Y-117605000D01*
X251280000Y-117275000D02*
X256720000Y-117275000D01*
X251280000Y-117605000D02*
X251280000Y-117275000D01*
X256720000Y-120215000D02*
X256720000Y-119885000D01*
X251280000Y-120215000D02*
X256720000Y-120215000D01*
X251280000Y-119885000D02*
X251280000Y-120215000D01*
X205120000Y-107665000D02*
X205120000Y-109505000D01*
X205120000Y-109505000D02*
X201280000Y-109505000D01*
X201280000Y-109505000D02*
X201280000Y-107665000D01*
X201280000Y-107665000D02*
X205120000Y-107665000D01*
X206070000Y-108585000D02*
X205120000Y-108585000D01*
X200330000Y-108585000D02*
X201280000Y-108585000D01*
X205120000Y-105125000D02*
X205120000Y-106965000D01*
X205120000Y-106965000D02*
X201280000Y-106965000D01*
X201280000Y-106965000D02*
X201280000Y-105125000D01*
X201280000Y-105125000D02*
X205120000Y-105125000D01*
X206070000Y-106045000D02*
X205120000Y-106045000D01*
X200330000Y-106045000D02*
X201280000Y-106045000D01*
X206070000Y-150495000D02*
X205120000Y-150495000D01*
X200330000Y-150495000D02*
X201280000Y-150495000D01*
X205120000Y-151415000D02*
X201280000Y-151415000D01*
X205120000Y-149575000D02*
X205120000Y-151415000D01*
X201280000Y-149575000D02*
X205120000Y-149575000D01*
X201280000Y-151415000D02*
X201280000Y-149575000D01*
X201280000Y-149002000D02*
X201280000Y-147162000D01*
X201280000Y-147162000D02*
X205120000Y-147162000D01*
X205120000Y-147162000D02*
X205120000Y-149002000D01*
X205120000Y-149002000D02*
X201280000Y-149002000D01*
X200330000Y-148082000D02*
X201280000Y-148082000D01*
X206070000Y-148082000D02*
X205120000Y-148082000D01*
X201280000Y-146335000D02*
X201280000Y-144495000D01*
X201280000Y-144495000D02*
X205120000Y-144495000D01*
X205120000Y-144495000D02*
X205120000Y-146335000D01*
X205120000Y-146335000D02*
X201280000Y-146335000D01*
X200330000Y-145415000D02*
X201280000Y-145415000D01*
X206070000Y-145415000D02*
X205120000Y-145415000D01*
X251130000Y-89535000D02*
X252080000Y-89535000D01*
X256870000Y-89535000D02*
X255920000Y-89535000D01*
X252080000Y-88615000D02*
X255920000Y-88615000D01*
X252080000Y-90455000D02*
X252080000Y-88615000D01*
X255920000Y-90455000D02*
X252080000Y-90455000D01*
X255920000Y-88615000D02*
X255920000Y-90455000D01*
X264780000Y-127920000D02*
X264780000Y-126080000D01*
X264780000Y-126080000D02*
X268620000Y-126080000D01*
X268620000Y-126080000D02*
X268620000Y-127920000D01*
X268620000Y-127920000D02*
X264780000Y-127920000D01*
X263830000Y-127000000D02*
X264780000Y-127000000D01*
X269570000Y-127000000D02*
X268620000Y-127000000D01*
X251130000Y-53340000D02*
X252080000Y-53340000D01*
X256870000Y-53340000D02*
X255920000Y-53340000D01*
X252080000Y-52420000D02*
X255920000Y-52420000D01*
X252080000Y-54260000D02*
X252080000Y-52420000D01*
X255920000Y-54260000D02*
X252080000Y-54260000D01*
X255920000Y-52420000D02*
X255920000Y-54260000D01*
X255920000Y-54960000D02*
X255920000Y-56800000D01*
X255920000Y-56800000D02*
X252080000Y-56800000D01*
X252080000Y-56800000D02*
X252080000Y-54960000D01*
X252080000Y-54960000D02*
X255920000Y-54960000D01*
X256870000Y-55880000D02*
X255920000Y-55880000D01*
X251130000Y-55880000D02*
X252080000Y-55880000D01*
X206070000Y-103505000D02*
X205120000Y-103505000D01*
X200330000Y-103505000D02*
X201280000Y-103505000D01*
X205120000Y-104425000D02*
X201280000Y-104425000D01*
X205120000Y-102585000D02*
X205120000Y-104425000D01*
X201280000Y-102585000D02*
X205120000Y-102585000D01*
X201280000Y-104425000D02*
X201280000Y-102585000D01*
X205120000Y-152115000D02*
X205120000Y-153955000D01*
X205120000Y-153955000D02*
X201280000Y-153955000D01*
X201280000Y-153955000D02*
X201280000Y-152115000D01*
X201280000Y-152115000D02*
X205120000Y-152115000D01*
X206070000Y-153035000D02*
X205120000Y-153035000D01*
X200330000Y-153035000D02*
X201280000Y-153035000D01*
X256870000Y-58420000D02*
X255920000Y-58420000D01*
X251130000Y-58420000D02*
X252080000Y-58420000D01*
X255920000Y-59340000D02*
X252080000Y-59340000D01*
X255920000Y-57500000D02*
X255920000Y-59340000D01*
X252080000Y-57500000D02*
X255920000Y-57500000D01*
X252080000Y-59340000D02*
X252080000Y-57500000D01*
X251130000Y-86995000D02*
X252080000Y-86995000D01*
X256870000Y-86995000D02*
X255920000Y-86995000D01*
X252080000Y-86075000D02*
X255920000Y-86075000D01*
X252080000Y-87915000D02*
X252080000Y-86075000D01*
X255920000Y-87915000D02*
X252080000Y-87915000D01*
X255920000Y-86075000D02*
X255920000Y-87915000D01*
X252080000Y-92995000D02*
X252080000Y-91155000D01*
X252080000Y-91155000D02*
X255920000Y-91155000D01*
X255920000Y-91155000D02*
X255920000Y-92995000D01*
X255920000Y-92995000D02*
X252080000Y-92995000D01*
X251130000Y-92075000D02*
X252080000Y-92075000D01*
X256870000Y-92075000D02*
X255920000Y-92075000D01*
X255920000Y-75915000D02*
X255920000Y-77755000D01*
X255920000Y-77755000D02*
X252080000Y-77755000D01*
X252080000Y-77755000D02*
X252080000Y-75915000D01*
X252080000Y-75915000D02*
X255920000Y-75915000D01*
X256870000Y-76835000D02*
X255920000Y-76835000D01*
X251130000Y-76835000D02*
X252080000Y-76835000D01*
X230520000Y-100045000D02*
X230520000Y-101885000D01*
X230520000Y-101885000D02*
X226680000Y-101885000D01*
X226680000Y-101885000D02*
X226680000Y-100045000D01*
X226680000Y-100045000D02*
X230520000Y-100045000D01*
X231470000Y-100965000D02*
X230520000Y-100965000D01*
X225730000Y-100965000D02*
X226680000Y-100965000D01*
X225730000Y-146685000D02*
X226680000Y-146685000D01*
X231470000Y-146685000D02*
X230520000Y-146685000D01*
X226680000Y-145765000D02*
X230520000Y-145765000D01*
X226680000Y-147605000D02*
X226680000Y-145765000D01*
X230520000Y-147605000D02*
X226680000Y-147605000D01*
X230520000Y-145765000D02*
X230520000Y-147605000D01*
X223350000Y-116720000D02*
X233850000Y-116720000D01*
X223350000Y-137280000D02*
X223350000Y-116720000D01*
X233850000Y-137280000D02*
X223350000Y-137280000D01*
X233850000Y-116720000D02*
X233850000Y-137280000D01*
X226350000Y-116780000D02*
X227600000Y-116780000D01*
X226350000Y-137220000D02*
X226350000Y-116780000D01*
X230850000Y-137220000D02*
X226350000Y-137220000D01*
X230850000Y-116780000D02*
X230850000Y-137220000D01*
X229600000Y-116780000D02*
X230850000Y-116780000D01*
X227600000Y-116780000D02*
G75*
G03X229600000Y-116780000I1000000J0D01*
G01*
X264780000Y-50450000D02*
X264780000Y-48610000D01*
X264780000Y-48610000D02*
X268620000Y-48610000D01*
X268620000Y-48610000D02*
X268620000Y-50450000D01*
X268620000Y-50450000D02*
X264780000Y-50450000D01*
X263830000Y-49530000D02*
X264780000Y-49530000D01*
X269570000Y-49530000D02*
X268620000Y-49530000D01*
X251130000Y-25400000D02*
X252080000Y-25400000D01*
X256870000Y-25400000D02*
X255920000Y-25400000D01*
X252080000Y-24480000D02*
X255920000Y-24480000D01*
X252080000Y-26320000D02*
X252080000Y-24480000D01*
X255920000Y-26320000D02*
X252080000Y-26320000D01*
X255920000Y-24480000D02*
X255920000Y-26320000D01*
X251130000Y-69215000D02*
X252080000Y-69215000D01*
X256870000Y-69215000D02*
X255920000Y-69215000D01*
X252080000Y-68295000D02*
X255920000Y-68295000D01*
X252080000Y-70135000D02*
X252080000Y-68295000D01*
X255920000Y-70135000D02*
X252080000Y-70135000D01*
X255920000Y-68295000D02*
X255920000Y-70135000D01*
X251130000Y-105410000D02*
X252080000Y-105410000D01*
X256870000Y-105410000D02*
X255920000Y-105410000D01*
X252080000Y-104490000D02*
X255920000Y-104490000D01*
X252080000Y-106330000D02*
X252080000Y-104490000D01*
X255920000Y-106330000D02*
X252080000Y-106330000D01*
X255920000Y-104490000D02*
X255920000Y-106330000D01*
X230520000Y-153385000D02*
X230520000Y-155225000D01*
X230520000Y-155225000D02*
X226680000Y-155225000D01*
X226680000Y-155225000D02*
X226680000Y-153385000D01*
X226680000Y-153385000D02*
X230520000Y-153385000D01*
X231470000Y-154305000D02*
X230520000Y-154305000D01*
X225730000Y-154305000D02*
X226680000Y-154305000D01*
X256870000Y-50800000D02*
X255920000Y-50800000D01*
X251130000Y-50800000D02*
X252080000Y-50800000D01*
X255920000Y-51720000D02*
X252080000Y-51720000D01*
X255920000Y-49880000D02*
X255920000Y-51720000D01*
X252080000Y-49880000D02*
X255920000Y-49880000D01*
X252080000Y-51720000D02*
X252080000Y-49880000D01*
X252080000Y-113950000D02*
X252080000Y-112110000D01*
X252080000Y-112110000D02*
X255920000Y-112110000D01*
X255920000Y-112110000D02*
X255920000Y-113950000D01*
X255920000Y-113950000D02*
X252080000Y-113950000D01*
X251130000Y-113030000D02*
X252080000Y-113030000D01*
X256870000Y-113030000D02*
X255920000Y-113030000D01*
X252080000Y-64420000D02*
X252080000Y-62580000D01*
X252080000Y-62580000D02*
X255920000Y-62580000D01*
X255920000Y-62580000D02*
X255920000Y-64420000D01*
X255920000Y-64420000D02*
X252080000Y-64420000D01*
X251130000Y-63500000D02*
X252080000Y-63500000D01*
X256870000Y-63500000D02*
X255920000Y-63500000D01*
X251130000Y-43180000D02*
X252080000Y-43180000D01*
X256870000Y-43180000D02*
X255920000Y-43180000D01*
X252080000Y-42260000D02*
X255920000Y-42260000D01*
X252080000Y-44100000D02*
X252080000Y-42260000D01*
X255920000Y-44100000D02*
X252080000Y-44100000D01*
X255920000Y-42260000D02*
X255920000Y-44100000D01*
X231470000Y-108585000D02*
X230520000Y-108585000D01*
X225730000Y-108585000D02*
X226680000Y-108585000D01*
X230520000Y-109505000D02*
X226680000Y-109505000D01*
X230520000Y-107665000D02*
X230520000Y-109505000D01*
X226680000Y-107665000D02*
X230520000Y-107665000D01*
X226680000Y-109505000D02*
X226680000Y-107665000D01*
X256870000Y-27940000D02*
X255920000Y-27940000D01*
X251130000Y-27940000D02*
X252080000Y-27940000D01*
X255920000Y-28860000D02*
X252080000Y-28860000D01*
X255920000Y-27020000D02*
X255920000Y-28860000D01*
X252080000Y-27020000D02*
X255920000Y-27020000D01*
X252080000Y-28860000D02*
X252080000Y-27020000D01*
X252080000Y-23780000D02*
X252080000Y-21940000D01*
X252080000Y-21940000D02*
X255920000Y-21940000D01*
X255920000Y-21940000D02*
X255920000Y-23780000D01*
X255920000Y-23780000D02*
X252080000Y-23780000D01*
X251130000Y-22860000D02*
X252080000Y-22860000D01*
X256870000Y-22860000D02*
X255920000Y-22860000D01*
X263830000Y-52070000D02*
X264780000Y-52070000D01*
X269570000Y-52070000D02*
X268620000Y-52070000D01*
X264780000Y-51150000D02*
X268620000Y-51150000D01*
X264780000Y-52990000D02*
X264780000Y-51150000D01*
X268620000Y-52990000D02*
X264780000Y-52990000D01*
X268620000Y-51150000D02*
X268620000Y-52990000D01*
X251130000Y-107950000D02*
X252080000Y-107950000D01*
X256870000Y-107950000D02*
X255920000Y-107950000D01*
X252080000Y-107030000D02*
X255920000Y-107030000D01*
X252080000Y-108870000D02*
X252080000Y-107030000D01*
X255920000Y-108870000D02*
X252080000Y-108870000D01*
X255920000Y-107030000D02*
X255920000Y-108870000D01*
X252080000Y-49180000D02*
X252080000Y-47340000D01*
X252080000Y-47340000D02*
X255920000Y-47340000D01*
X255920000Y-47340000D02*
X255920000Y-49180000D01*
X255920000Y-49180000D02*
X252080000Y-49180000D01*
X251130000Y-48260000D02*
X252080000Y-48260000D01*
X256870000Y-48260000D02*
X255920000Y-48260000D01*
X255920000Y-29560000D02*
X255920000Y-31400000D01*
X255920000Y-31400000D02*
X252080000Y-31400000D01*
X252080000Y-31400000D02*
X252080000Y-29560000D01*
X252080000Y-29560000D02*
X255920000Y-29560000D01*
X256870000Y-30480000D02*
X255920000Y-30480000D01*
X251130000Y-30480000D02*
X252080000Y-30480000D01*
X251130000Y-84455000D02*
X252080000Y-84455000D01*
X256870000Y-84455000D02*
X255920000Y-84455000D01*
X252080000Y-83535000D02*
X255920000Y-83535000D01*
X252080000Y-85375000D02*
X252080000Y-83535000D01*
X255920000Y-85375000D02*
X252080000Y-85375000D01*
X255920000Y-83535000D02*
X255920000Y-85375000D01*
X256870000Y-74295000D02*
X255920000Y-74295000D01*
X251130000Y-74295000D02*
X252080000Y-74295000D01*
X255920000Y-75215000D02*
X252080000Y-75215000D01*
X255920000Y-73375000D02*
X255920000Y-75215000D01*
X252080000Y-73375000D02*
X255920000Y-73375000D01*
X252080000Y-75215000D02*
X252080000Y-73375000D01*
X252080000Y-80295000D02*
X252080000Y-78455000D01*
X252080000Y-78455000D02*
X255920000Y-78455000D01*
X255920000Y-78455000D02*
X255920000Y-80295000D01*
X255920000Y-80295000D02*
X252080000Y-80295000D01*
X251130000Y-79375000D02*
X252080000Y-79375000D01*
X256870000Y-79375000D02*
X255920000Y-79375000D01*
X256870000Y-40640000D02*
X255920000Y-40640000D01*
X251130000Y-40640000D02*
X252080000Y-40640000D01*
X255920000Y-41560000D02*
X252080000Y-41560000D01*
X255920000Y-39720000D02*
X255920000Y-41560000D01*
X252080000Y-39720000D02*
X255920000Y-39720000D01*
X252080000Y-41560000D02*
X252080000Y-39720000D01*
X252080000Y-61880000D02*
X252080000Y-60040000D01*
X252080000Y-60040000D02*
X255920000Y-60040000D01*
X255920000Y-60040000D02*
X255920000Y-61880000D01*
X255920000Y-61880000D02*
X252080000Y-61880000D01*
X251130000Y-60960000D02*
X252080000Y-60960000D01*
X256870000Y-60960000D02*
X255920000Y-60960000D01*
X226680000Y-106965000D02*
X226680000Y-105125000D01*
X226680000Y-105125000D02*
X230520000Y-105125000D01*
X230520000Y-105125000D02*
X230520000Y-106965000D01*
X230520000Y-106965000D02*
X226680000Y-106965000D01*
X225730000Y-106045000D02*
X226680000Y-106045000D01*
X231470000Y-106045000D02*
X230520000Y-106045000D01*
X225730000Y-149225000D02*
X226680000Y-149225000D01*
X231470000Y-149225000D02*
X230520000Y-149225000D01*
X226680000Y-148305000D02*
X230520000Y-148305000D01*
X226680000Y-150145000D02*
X226680000Y-148305000D01*
X230520000Y-150145000D02*
X226680000Y-150145000D01*
X230520000Y-148305000D02*
X230520000Y-150145000D01*
X230520000Y-102585000D02*
X230520000Y-104425000D01*
X230520000Y-104425000D02*
X226680000Y-104425000D01*
X226680000Y-104425000D02*
X226680000Y-102585000D01*
X226680000Y-102585000D02*
X230520000Y-102585000D01*
X231470000Y-103505000D02*
X230520000Y-103505000D01*
X225730000Y-103505000D02*
X226680000Y-103505000D01*
X256870000Y-115570000D02*
X255920000Y-115570000D01*
X251130000Y-115570000D02*
X252080000Y-115570000D01*
X255920000Y-116490000D02*
X252080000Y-116490000D01*
X255920000Y-114650000D02*
X255920000Y-116490000D01*
X252080000Y-114650000D02*
X255920000Y-114650000D01*
X252080000Y-116490000D02*
X252080000Y-114650000D01*
X225730000Y-151765000D02*
X226680000Y-151765000D01*
X231470000Y-151765000D02*
X230520000Y-151765000D01*
X226680000Y-150845000D02*
X230520000Y-150845000D01*
X226680000Y-152685000D02*
X226680000Y-150845000D01*
X230520000Y-152685000D02*
X226680000Y-152685000D01*
X230520000Y-150845000D02*
X230520000Y-152685000D01*
X252080000Y-46640000D02*
X252080000Y-44800000D01*
X252080000Y-44800000D02*
X255920000Y-44800000D01*
X255920000Y-44800000D02*
X255920000Y-46640000D01*
X255920000Y-46640000D02*
X252080000Y-46640000D01*
X251130000Y-45720000D02*
X252080000Y-45720000D01*
X256870000Y-45720000D02*
X255920000Y-45720000D01*
X202200000Y-118685000D02*
G75*
G03X204200000Y-118685000I1000000J0D01*
G01*
X204200000Y-118685000D02*
X205450000Y-118685000D01*
X205450000Y-118685000D02*
X205450000Y-136585000D01*
X205450000Y-136585000D02*
X200950000Y-136585000D01*
X200950000Y-136585000D02*
X200950000Y-118685000D01*
X200950000Y-118685000D02*
X202200000Y-118685000D01*
X208450000Y-118625000D02*
X208450000Y-136645000D01*
X208450000Y-136645000D02*
X197950000Y-136645000D01*
X197950000Y-136645000D02*
X197950000Y-118625000D01*
X197950000Y-118625000D02*
X208450000Y-118625000D01*
X263830000Y-88265000D02*
X264780000Y-88265000D01*
X269570000Y-88265000D02*
X268620000Y-88265000D01*
X264780000Y-87345000D02*
X268620000Y-87345000D01*
X264780000Y-89185000D02*
X264780000Y-87345000D01*
X268620000Y-89185000D02*
X264780000Y-89185000D01*
X268620000Y-87345000D02*
X268620000Y-89185000D01*
X252080000Y-72675000D02*
X252080000Y-70835000D01*
X252080000Y-70835000D02*
X255920000Y-70835000D01*
X255920000Y-70835000D02*
X255920000Y-72675000D01*
X255920000Y-72675000D02*
X252080000Y-72675000D01*
X251130000Y-71755000D02*
X252080000Y-71755000D01*
X256870000Y-71755000D02*
X255920000Y-71755000D01*
X227600000Y-74235000D02*
G75*
G03X229600000Y-74235000I1000000J0D01*
G01*
X229600000Y-74235000D02*
X230850000Y-74235000D01*
X230850000Y-74235000D02*
X230850000Y-84515000D01*
X230850000Y-84515000D02*
X226350000Y-84515000D01*
X226350000Y-84515000D02*
X226350000Y-74235000D01*
X226350000Y-74235000D02*
X227600000Y-74235000D01*
X233850000Y-74175000D02*
X233850000Y-84575000D01*
X233850000Y-84575000D02*
X223350000Y-84575000D01*
X223350000Y-84575000D02*
X223350000Y-74175000D01*
X223350000Y-74175000D02*
X233850000Y-74175000D01*
X255920000Y-109570000D02*
X255920000Y-111410000D01*
X255920000Y-111410000D02*
X252080000Y-111410000D01*
X252080000Y-111410000D02*
X252080000Y-109570000D01*
X252080000Y-109570000D02*
X255920000Y-109570000D01*
X256870000Y-110490000D02*
X255920000Y-110490000D01*
X251130000Y-110490000D02*
X252080000Y-110490000D01*
X223350000Y-44330000D02*
X233850000Y-44330000D01*
X223350000Y-62350000D02*
X223350000Y-44330000D01*
X233850000Y-62350000D02*
X223350000Y-62350000D01*
X233850000Y-44330000D02*
X233850000Y-62350000D01*
X226350000Y-44390000D02*
X227600000Y-44390000D01*
X226350000Y-62290000D02*
X226350000Y-44390000D01*
X230850000Y-62290000D02*
X226350000Y-62290000D01*
X230850000Y-44390000D02*
X230850000Y-62290000D01*
X229600000Y-44390000D02*
X230850000Y-44390000D01*
X227600000Y-44390000D02*
G75*
G03X229600000Y-44390000I1000000J0D01*
G01*
X202200000Y-58360000D02*
G75*
G03X204200000Y-58360000I1000000J0D01*
G01*
X204200000Y-58360000D02*
X205450000Y-58360000D01*
X205450000Y-58360000D02*
X205450000Y-76260000D01*
X205450000Y-76260000D02*
X200950000Y-76260000D01*
X200950000Y-76260000D02*
X200950000Y-58360000D01*
X200950000Y-58360000D02*
X202200000Y-58360000D01*
X208450000Y-58300000D02*
X208450000Y-76320000D01*
X208450000Y-76320000D02*
X197950000Y-76320000D01*
X197950000Y-76320000D02*
X197950000Y-58300000D01*
X197950000Y-58300000D02*
X208450000Y-58300000D01*
X256870000Y-81915000D02*
X255920000Y-81915000D01*
X251130000Y-81915000D02*
X252080000Y-81915000D01*
X255920000Y-82835000D02*
X252080000Y-82835000D01*
X255920000Y-80995000D02*
X255920000Y-82835000D01*
X252080000Y-80995000D02*
X255920000Y-80995000D01*
X252080000Y-82835000D02*
X252080000Y-80995000D01*
D11*
X228846666Y-112117142D02*
X228894285Y-112164761D01*
X229037142Y-112212380D01*
X229132380Y-112212380D01*
X229275238Y-112164761D01*
X229370476Y-112069523D01*
X229418095Y-111974285D01*
X229465714Y-111783809D01*
X229465714Y-111640952D01*
X229418095Y-111450476D01*
X229370476Y-111355238D01*
X229275238Y-111260000D01*
X229132380Y-111212380D01*
X229037142Y-111212380D01*
X228894285Y-111260000D01*
X228846666Y-111307619D01*
X227989523Y-111212380D02*
X228180000Y-111212380D01*
X228275238Y-111260000D01*
X228322857Y-111307619D01*
X228418095Y-111450476D01*
X228465714Y-111640952D01*
X228465714Y-112021904D01*
X228418095Y-112117142D01*
X228370476Y-112164761D01*
X228275238Y-112212380D01*
X228084761Y-112212380D01*
X227989523Y-112164761D01*
X227941904Y-112117142D01*
X227894285Y-112021904D01*
X227894285Y-111783809D01*
X227941904Y-111688571D01*
X227989523Y-111640952D01*
X228084761Y-111593333D01*
X228275238Y-111593333D01*
X228370476Y-111640952D01*
X228418095Y-111688571D01*
X228465714Y-111783809D01*
X266906666Y-70207142D02*
X266954285Y-70254761D01*
X267097142Y-70302380D01*
X267192380Y-70302380D01*
X267335238Y-70254761D01*
X267430476Y-70159523D01*
X267478095Y-70064285D01*
X267525714Y-69873809D01*
X267525714Y-69730952D01*
X267478095Y-69540476D01*
X267430476Y-69445238D01*
X267335238Y-69350000D01*
X267192380Y-69302380D01*
X267097142Y-69302380D01*
X266954285Y-69350000D01*
X266906666Y-69397619D01*
X265954285Y-70302380D02*
X266525714Y-70302380D01*
X266240000Y-70302380D02*
X266240000Y-69302380D01*
X266335238Y-69445238D01*
X266430476Y-69540476D01*
X266525714Y-69588095D01*
X228686666Y-143867142D02*
X228734285Y-143914761D01*
X228877142Y-143962380D01*
X228972380Y-143962380D01*
X229115238Y-143914761D01*
X229210476Y-143819523D01*
X229258095Y-143724285D01*
X229305714Y-143533809D01*
X229305714Y-143390952D01*
X229258095Y-143200476D01*
X229210476Y-143105238D01*
X229115238Y-143010000D01*
X228972380Y-142962380D01*
X228877142Y-142962380D01*
X228734285Y-143010000D01*
X228686666Y-143057619D01*
X228353333Y-142962380D02*
X227734285Y-142962380D01*
X228067619Y-143343333D01*
X227924761Y-143343333D01*
X227829523Y-143390952D01*
X227781904Y-143438571D01*
X227734285Y-143533809D01*
X227734285Y-143771904D01*
X227781904Y-143867142D01*
X227829523Y-143914761D01*
X227924761Y-143962380D01*
X228210476Y-143962380D01*
X228305714Y-143914761D01*
X228353333Y-143867142D01*
X229242857Y-18232380D02*
X229576190Y-17756190D01*
X229814285Y-18232380D02*
X229814285Y-17232380D01*
X229433333Y-17232380D01*
X229338095Y-17280000D01*
X229290476Y-17327619D01*
X229242857Y-17422857D01*
X229242857Y-17565714D01*
X229290476Y-17660952D01*
X229338095Y-17708571D01*
X229433333Y-17756190D01*
X229814285Y-17756190D01*
X228909523Y-17232380D02*
X228290476Y-17232380D01*
X228623809Y-17613333D01*
X228480952Y-17613333D01*
X228385714Y-17660952D01*
X228338095Y-17708571D01*
X228290476Y-17803809D01*
X228290476Y-18041904D01*
X228338095Y-18137142D01*
X228385714Y-18184761D01*
X228480952Y-18232380D01*
X228766666Y-18232380D01*
X228861904Y-18184761D01*
X228909523Y-18137142D01*
X227433333Y-17232380D02*
X227623809Y-17232380D01*
X227719047Y-17280000D01*
X227766666Y-17327619D01*
X227861904Y-17470476D01*
X227909523Y-17660952D01*
X227909523Y-18041904D01*
X227861904Y-18137142D01*
X227814285Y-18184761D01*
X227719047Y-18232380D01*
X227528571Y-18232380D01*
X227433333Y-18184761D01*
X227385714Y-18137142D01*
X227338095Y-18041904D01*
X227338095Y-17803809D01*
X227385714Y-17708571D01*
X227433333Y-17660952D01*
X227528571Y-17613333D01*
X227719047Y-17613333D01*
X227814285Y-17660952D01*
X227861904Y-17708571D01*
X227909523Y-17803809D01*
X254126666Y-20042142D02*
X254174285Y-20089761D01*
X254317142Y-20137380D01*
X254412380Y-20137380D01*
X254555238Y-20089761D01*
X254650476Y-19994523D01*
X254698095Y-19899285D01*
X254745714Y-19708809D01*
X254745714Y-19565952D01*
X254698095Y-19375476D01*
X254650476Y-19280238D01*
X254555238Y-19185000D01*
X254412380Y-19137380D01*
X254317142Y-19137380D01*
X254174285Y-19185000D01*
X254126666Y-19232619D01*
X253269523Y-19470714D02*
X253269523Y-20137380D01*
X253507619Y-19089761D02*
X253745714Y-19804047D01*
X253126666Y-19804047D01*
X229202857Y-65762142D02*
X229250476Y-65809761D01*
X229393333Y-65857380D01*
X229488571Y-65857380D01*
X229631428Y-65809761D01*
X229726666Y-65714523D01*
X229774285Y-65619285D01*
X229821904Y-65428809D01*
X229821904Y-65285952D01*
X229774285Y-65095476D01*
X229726666Y-65000238D01*
X229631428Y-64905000D01*
X229488571Y-64857380D01*
X229393333Y-64857380D01*
X229250476Y-64905000D01*
X229202857Y-64952619D01*
X228250476Y-65857380D02*
X228821904Y-65857380D01*
X228536190Y-65857380D02*
X228536190Y-64857380D01*
X228631428Y-65000238D01*
X228726666Y-65095476D01*
X228821904Y-65143095D01*
X227631428Y-64857380D02*
X227536190Y-64857380D01*
X227440952Y-64905000D01*
X227393333Y-64952619D01*
X227345714Y-65047857D01*
X227298095Y-65238333D01*
X227298095Y-65476428D01*
X227345714Y-65666904D01*
X227393333Y-65762142D01*
X227440952Y-65809761D01*
X227536190Y-65857380D01*
X227631428Y-65857380D01*
X227726666Y-65809761D01*
X227774285Y-65762142D01*
X227821904Y-65666904D01*
X227869523Y-65476428D01*
X227869523Y-65238333D01*
X227821904Y-65047857D01*
X227774285Y-64952619D01*
X227726666Y-64905000D01*
X227631428Y-64857380D01*
X254602857Y-127357142D02*
X254650476Y-127404761D01*
X254793333Y-127452380D01*
X254888571Y-127452380D01*
X255031428Y-127404761D01*
X255126666Y-127309523D01*
X255174285Y-127214285D01*
X255221904Y-127023809D01*
X255221904Y-126880952D01*
X255174285Y-126690476D01*
X255126666Y-126595238D01*
X255031428Y-126500000D01*
X254888571Y-126452380D01*
X254793333Y-126452380D01*
X254650476Y-126500000D01*
X254602857Y-126547619D01*
X253650476Y-127452380D02*
X254221904Y-127452380D01*
X253936190Y-127452380D02*
X253936190Y-126452380D01*
X254031428Y-126595238D01*
X254126666Y-126690476D01*
X254221904Y-126738095D01*
X252793333Y-126452380D02*
X252983809Y-126452380D01*
X253079047Y-126500000D01*
X253126666Y-126547619D01*
X253221904Y-126690476D01*
X253269523Y-126880952D01*
X253269523Y-127261904D01*
X253221904Y-127357142D01*
X253174285Y-127404761D01*
X253079047Y-127452380D01*
X252888571Y-127452380D01*
X252793333Y-127404761D01*
X252745714Y-127357142D01*
X252698095Y-127261904D01*
X252698095Y-127023809D01*
X252745714Y-126928571D01*
X252793333Y-126880952D01*
X252888571Y-126833333D01*
X253079047Y-126833333D01*
X253174285Y-126880952D01*
X253221904Y-126928571D01*
X253269523Y-127023809D01*
X229242857Y-38552380D02*
X229576190Y-38076190D01*
X229814285Y-38552380D02*
X229814285Y-37552380D01*
X229433333Y-37552380D01*
X229338095Y-37600000D01*
X229290476Y-37647619D01*
X229242857Y-37742857D01*
X229242857Y-37885714D01*
X229290476Y-37980952D01*
X229338095Y-38028571D01*
X229433333Y-38076190D01*
X229814285Y-38076190D01*
X228385714Y-37885714D02*
X228385714Y-38552380D01*
X228623809Y-37504761D02*
X228861904Y-38219047D01*
X228242857Y-38219047D01*
X227338095Y-38552380D02*
X227909523Y-38552380D01*
X227623809Y-38552380D02*
X227623809Y-37552380D01*
X227719047Y-37695238D01*
X227814285Y-37790476D01*
X227909523Y-37838095D01*
X267382857Y-163552142D02*
X267430476Y-163599761D01*
X267573333Y-163647380D01*
X267668571Y-163647380D01*
X267811428Y-163599761D01*
X267906666Y-163504523D01*
X267954285Y-163409285D01*
X268001904Y-163218809D01*
X268001904Y-163075952D01*
X267954285Y-162885476D01*
X267906666Y-162790238D01*
X267811428Y-162695000D01*
X267668571Y-162647380D01*
X267573333Y-162647380D01*
X267430476Y-162695000D01*
X267382857Y-162742619D01*
X266430476Y-163647380D02*
X267001904Y-163647380D01*
X266716190Y-163647380D02*
X266716190Y-162647380D01*
X266811428Y-162790238D01*
X266906666Y-162885476D01*
X267001904Y-162933095D01*
X265478095Y-163647380D02*
X266049523Y-163647380D01*
X265763809Y-163647380D02*
X265763809Y-162647380D01*
X265859047Y-162790238D01*
X265954285Y-162885476D01*
X266049523Y-162933095D01*
X203961904Y-22947380D02*
X203961904Y-23756904D01*
X203914285Y-23852142D01*
X203866666Y-23899761D01*
X203771428Y-23947380D01*
X203580952Y-23947380D01*
X203485714Y-23899761D01*
X203438095Y-23852142D01*
X203390476Y-23756904D01*
X203390476Y-22947380D01*
X202866666Y-23947380D02*
X202676190Y-23947380D01*
X202580952Y-23899761D01*
X202533333Y-23852142D01*
X202438095Y-23709285D01*
X202390476Y-23518809D01*
X202390476Y-23137857D01*
X202438095Y-23042619D01*
X202485714Y-22995000D01*
X202580952Y-22947380D01*
X202771428Y-22947380D01*
X202866666Y-22995000D01*
X202914285Y-23042619D01*
X202961904Y-23137857D01*
X202961904Y-23375952D01*
X202914285Y-23471190D01*
X202866666Y-23518809D01*
X202771428Y-23566428D01*
X202580952Y-23566428D01*
X202485714Y-23518809D01*
X202438095Y-23471190D01*
X202390476Y-23375952D01*
X203406666Y-79732142D02*
X203454285Y-79779761D01*
X203597142Y-79827380D01*
X203692380Y-79827380D01*
X203835238Y-79779761D01*
X203930476Y-79684523D01*
X203978095Y-79589285D01*
X204025714Y-79398809D01*
X204025714Y-79255952D01*
X203978095Y-79065476D01*
X203930476Y-78970238D01*
X203835238Y-78875000D01*
X203692380Y-78827380D01*
X203597142Y-78827380D01*
X203454285Y-78875000D01*
X203406666Y-78922619D01*
X202835238Y-79255952D02*
X202930476Y-79208333D01*
X202978095Y-79160714D01*
X203025714Y-79065476D01*
X203025714Y-79017857D01*
X202978095Y-78922619D01*
X202930476Y-78875000D01*
X202835238Y-78827380D01*
X202644761Y-78827380D01*
X202549523Y-78875000D01*
X202501904Y-78922619D01*
X202454285Y-79017857D01*
X202454285Y-79065476D01*
X202501904Y-79160714D01*
X202549523Y-79208333D01*
X202644761Y-79255952D01*
X202835238Y-79255952D01*
X202930476Y-79303571D01*
X202978095Y-79351190D01*
X203025714Y-79446428D01*
X203025714Y-79636904D01*
X202978095Y-79732142D01*
X202930476Y-79779761D01*
X202835238Y-79827380D01*
X202644761Y-79827380D01*
X202549523Y-79779761D01*
X202501904Y-79732142D01*
X202454285Y-79636904D01*
X202454285Y-79446428D01*
X202501904Y-79351190D01*
X202549523Y-79303571D01*
X202644761Y-79255952D01*
X229242857Y-30932380D02*
X229576190Y-30456190D01*
X229814285Y-30932380D02*
X229814285Y-29932380D01*
X229433333Y-29932380D01*
X229338095Y-29980000D01*
X229290476Y-30027619D01*
X229242857Y-30122857D01*
X229242857Y-30265714D01*
X229290476Y-30360952D01*
X229338095Y-30408571D01*
X229433333Y-30456190D01*
X229814285Y-30456190D01*
X228909523Y-29932380D02*
X228290476Y-29932380D01*
X228623809Y-30313333D01*
X228480952Y-30313333D01*
X228385714Y-30360952D01*
X228338095Y-30408571D01*
X228290476Y-30503809D01*
X228290476Y-30741904D01*
X228338095Y-30837142D01*
X228385714Y-30884761D01*
X228480952Y-30932380D01*
X228766666Y-30932380D01*
X228861904Y-30884761D01*
X228909523Y-30837142D01*
X227719047Y-30360952D02*
X227814285Y-30313333D01*
X227861904Y-30265714D01*
X227909523Y-30170476D01*
X227909523Y-30122857D01*
X227861904Y-30027619D01*
X227814285Y-29980000D01*
X227719047Y-29932380D01*
X227528571Y-29932380D01*
X227433333Y-29980000D01*
X227385714Y-30027619D01*
X227338095Y-30122857D01*
X227338095Y-30170476D01*
X227385714Y-30265714D01*
X227433333Y-30313333D01*
X227528571Y-30360952D01*
X227719047Y-30360952D01*
X227814285Y-30408571D01*
X227861904Y-30456190D01*
X227909523Y-30551428D01*
X227909523Y-30741904D01*
X227861904Y-30837142D01*
X227814285Y-30884761D01*
X227719047Y-30932380D01*
X227528571Y-30932380D01*
X227433333Y-30884761D01*
X227385714Y-30837142D01*
X227338095Y-30741904D01*
X227338095Y-30551428D01*
X227385714Y-30456190D01*
X227433333Y-30408571D01*
X227528571Y-30360952D01*
X228806666Y-157837142D02*
X228854285Y-157884761D01*
X228997142Y-157932380D01*
X229092380Y-157932380D01*
X229235238Y-157884761D01*
X229330476Y-157789523D01*
X229378095Y-157694285D01*
X229425714Y-157503809D01*
X229425714Y-157360952D01*
X229378095Y-157170476D01*
X229330476Y-157075238D01*
X229235238Y-156980000D01*
X229092380Y-156932380D01*
X228997142Y-156932380D01*
X228854285Y-156980000D01*
X228806666Y-157027619D01*
X228473333Y-156932380D02*
X227806666Y-156932380D01*
X228235238Y-157932380D01*
X229242857Y-28392380D02*
X229576190Y-27916190D01*
X229814285Y-28392380D02*
X229814285Y-27392380D01*
X229433333Y-27392380D01*
X229338095Y-27440000D01*
X229290476Y-27487619D01*
X229242857Y-27582857D01*
X229242857Y-27725714D01*
X229290476Y-27820952D01*
X229338095Y-27868571D01*
X229433333Y-27916190D01*
X229814285Y-27916190D01*
X228909523Y-27392380D02*
X228290476Y-27392380D01*
X228623809Y-27773333D01*
X228480952Y-27773333D01*
X228385714Y-27820952D01*
X228338095Y-27868571D01*
X228290476Y-27963809D01*
X228290476Y-28201904D01*
X228338095Y-28297142D01*
X228385714Y-28344761D01*
X228480952Y-28392380D01*
X228766666Y-28392380D01*
X228861904Y-28344761D01*
X228909523Y-28297142D01*
X227957142Y-27392380D02*
X227290476Y-27392380D01*
X227719047Y-28392380D01*
X229242857Y-33472380D02*
X229576190Y-32996190D01*
X229814285Y-33472380D02*
X229814285Y-32472380D01*
X229433333Y-32472380D01*
X229338095Y-32520000D01*
X229290476Y-32567619D01*
X229242857Y-32662857D01*
X229242857Y-32805714D01*
X229290476Y-32900952D01*
X229338095Y-32948571D01*
X229433333Y-32996190D01*
X229814285Y-32996190D01*
X228909523Y-32472380D02*
X228290476Y-32472380D01*
X228623809Y-32853333D01*
X228480952Y-32853333D01*
X228385714Y-32900952D01*
X228338095Y-32948571D01*
X228290476Y-33043809D01*
X228290476Y-33281904D01*
X228338095Y-33377142D01*
X228385714Y-33424761D01*
X228480952Y-33472380D01*
X228766666Y-33472380D01*
X228861904Y-33424761D01*
X228909523Y-33377142D01*
X227814285Y-33472380D02*
X227623809Y-33472380D01*
X227528571Y-33424761D01*
X227480952Y-33377142D01*
X227385714Y-33234285D01*
X227338095Y-33043809D01*
X227338095Y-32662857D01*
X227385714Y-32567619D01*
X227433333Y-32520000D01*
X227528571Y-32472380D01*
X227719047Y-32472380D01*
X227814285Y-32520000D01*
X227861904Y-32567619D01*
X227909523Y-32662857D01*
X227909523Y-32900952D01*
X227861904Y-32996190D01*
X227814285Y-33043809D01*
X227719047Y-33091428D01*
X227528571Y-33091428D01*
X227433333Y-33043809D01*
X227385714Y-32996190D01*
X227338095Y-32900952D01*
X229242857Y-36012380D02*
X229576190Y-35536190D01*
X229814285Y-36012380D02*
X229814285Y-35012380D01*
X229433333Y-35012380D01*
X229338095Y-35060000D01*
X229290476Y-35107619D01*
X229242857Y-35202857D01*
X229242857Y-35345714D01*
X229290476Y-35440952D01*
X229338095Y-35488571D01*
X229433333Y-35536190D01*
X229814285Y-35536190D01*
X228385714Y-35345714D02*
X228385714Y-36012380D01*
X228623809Y-34964761D02*
X228861904Y-35679047D01*
X228242857Y-35679047D01*
X227671428Y-35012380D02*
X227576190Y-35012380D01*
X227480952Y-35060000D01*
X227433333Y-35107619D01*
X227385714Y-35202857D01*
X227338095Y-35393333D01*
X227338095Y-35631428D01*
X227385714Y-35821904D01*
X227433333Y-35917142D01*
X227480952Y-35964761D01*
X227576190Y-36012380D01*
X227671428Y-36012380D01*
X227766666Y-35964761D01*
X227814285Y-35917142D01*
X227861904Y-35821904D01*
X227909523Y-35631428D01*
X227909523Y-35393333D01*
X227861904Y-35202857D01*
X227814285Y-35107619D01*
X227766666Y-35060000D01*
X227671428Y-35012380D01*
X229322857Y-21312142D02*
X229370476Y-21359761D01*
X229513333Y-21407380D01*
X229608571Y-21407380D01*
X229751428Y-21359761D01*
X229846666Y-21264523D01*
X229894285Y-21169285D01*
X229941904Y-20978809D01*
X229941904Y-20835952D01*
X229894285Y-20645476D01*
X229846666Y-20550238D01*
X229751428Y-20455000D01*
X229608571Y-20407380D01*
X229513333Y-20407380D01*
X229370476Y-20455000D01*
X229322857Y-20502619D01*
X228941904Y-20502619D02*
X228894285Y-20455000D01*
X228799047Y-20407380D01*
X228560952Y-20407380D01*
X228465714Y-20455000D01*
X228418095Y-20502619D01*
X228370476Y-20597857D01*
X228370476Y-20693095D01*
X228418095Y-20835952D01*
X228989523Y-21407380D01*
X228370476Y-21407380D01*
X227751428Y-20407380D02*
X227656190Y-20407380D01*
X227560952Y-20455000D01*
X227513333Y-20502619D01*
X227465714Y-20597857D01*
X227418095Y-20788333D01*
X227418095Y-21026428D01*
X227465714Y-21216904D01*
X227513333Y-21312142D01*
X227560952Y-21359761D01*
X227656190Y-21407380D01*
X227751428Y-21407380D01*
X227846666Y-21359761D01*
X227894285Y-21312142D01*
X227941904Y-21216904D01*
X227989523Y-21026428D01*
X227989523Y-20788333D01*
X227941904Y-20597857D01*
X227894285Y-20502619D01*
X227846666Y-20455000D01*
X227751428Y-20407380D01*
X203961904Y-44537380D02*
X203961904Y-45346904D01*
X203914285Y-45442142D01*
X203866666Y-45489761D01*
X203771428Y-45537380D01*
X203580952Y-45537380D01*
X203485714Y-45489761D01*
X203438095Y-45442142D01*
X203390476Y-45346904D01*
X203390476Y-44537380D01*
X202485714Y-44537380D02*
X202676190Y-44537380D01*
X202771428Y-44585000D01*
X202819047Y-44632619D01*
X202914285Y-44775476D01*
X202961904Y-44965952D01*
X202961904Y-45346904D01*
X202914285Y-45442142D01*
X202866666Y-45489761D01*
X202771428Y-45537380D01*
X202580952Y-45537380D01*
X202485714Y-45489761D01*
X202438095Y-45442142D01*
X202390476Y-45346904D01*
X202390476Y-45108809D01*
X202438095Y-45013571D01*
X202485714Y-44965952D01*
X202580952Y-44918333D01*
X202771428Y-44918333D01*
X202866666Y-44965952D01*
X202914285Y-45013571D01*
X202961904Y-45108809D01*
X254086666Y-34012142D02*
X254134285Y-34059761D01*
X254277142Y-34107380D01*
X254372380Y-34107380D01*
X254515238Y-34059761D01*
X254610476Y-33964523D01*
X254658095Y-33869285D01*
X254705714Y-33678809D01*
X254705714Y-33535952D01*
X254658095Y-33345476D01*
X254610476Y-33250238D01*
X254515238Y-33155000D01*
X254372380Y-33107380D01*
X254277142Y-33107380D01*
X254134285Y-33155000D01*
X254086666Y-33202619D01*
X253181904Y-33107380D02*
X253658095Y-33107380D01*
X253705714Y-33583571D01*
X253658095Y-33535952D01*
X253562857Y-33488333D01*
X253324761Y-33488333D01*
X253229523Y-33535952D01*
X253181904Y-33583571D01*
X253134285Y-33678809D01*
X253134285Y-33916904D01*
X253181904Y-34012142D01*
X253229523Y-34059761D01*
X253324761Y-34107380D01*
X253562857Y-34107380D01*
X253658095Y-34059761D01*
X253705714Y-34012142D01*
X254166666Y-37822142D02*
X254214285Y-37869761D01*
X254357142Y-37917380D01*
X254452380Y-37917380D01*
X254595238Y-37869761D01*
X254690476Y-37774523D01*
X254738095Y-37679285D01*
X254785714Y-37488809D01*
X254785714Y-37345952D01*
X254738095Y-37155476D01*
X254690476Y-37060238D01*
X254595238Y-36965000D01*
X254452380Y-36917380D01*
X254357142Y-36917380D01*
X254214285Y-36965000D01*
X254166666Y-37012619D01*
X253690476Y-37917380D02*
X253500000Y-37917380D01*
X253404761Y-37869761D01*
X253357142Y-37822142D01*
X253261904Y-37679285D01*
X253214285Y-37488809D01*
X253214285Y-37107857D01*
X253261904Y-37012619D01*
X253309523Y-36965000D01*
X253404761Y-36917380D01*
X253595238Y-36917380D01*
X253690476Y-36965000D01*
X253738095Y-37012619D01*
X253785714Y-37107857D01*
X253785714Y-37345952D01*
X253738095Y-37441190D01*
X253690476Y-37488809D01*
X253595238Y-37536428D01*
X253404761Y-37536428D01*
X253309523Y-37488809D01*
X253261904Y-37441190D01*
X253214285Y-37345952D01*
X228726666Y-98147142D02*
X228774285Y-98194761D01*
X228917142Y-98242380D01*
X229012380Y-98242380D01*
X229155238Y-98194761D01*
X229250476Y-98099523D01*
X229298095Y-98004285D01*
X229345714Y-97813809D01*
X229345714Y-97670952D01*
X229298095Y-97480476D01*
X229250476Y-97385238D01*
X229155238Y-97290000D01*
X229012380Y-97242380D01*
X228917142Y-97242380D01*
X228774285Y-97290000D01*
X228726666Y-97337619D01*
X228345714Y-97337619D02*
X228298095Y-97290000D01*
X228202857Y-97242380D01*
X227964761Y-97242380D01*
X227869523Y-97290000D01*
X227821904Y-97337619D01*
X227774285Y-97432857D01*
X227774285Y-97528095D01*
X227821904Y-97670952D01*
X228393333Y-98242380D01*
X227774285Y-98242380D01*
X229242857Y-25122142D02*
X229290476Y-25169761D01*
X229433333Y-25217380D01*
X229528571Y-25217380D01*
X229671428Y-25169761D01*
X229766666Y-25074523D01*
X229814285Y-24979285D01*
X229861904Y-24788809D01*
X229861904Y-24645952D01*
X229814285Y-24455476D01*
X229766666Y-24360238D01*
X229671428Y-24265000D01*
X229528571Y-24217380D01*
X229433333Y-24217380D01*
X229290476Y-24265000D01*
X229242857Y-24312619D01*
X228290476Y-25217380D02*
X228861904Y-25217380D01*
X228576190Y-25217380D02*
X228576190Y-24217380D01*
X228671428Y-24360238D01*
X228766666Y-24455476D01*
X228861904Y-24503095D01*
X227814285Y-25217380D02*
X227623809Y-25217380D01*
X227528571Y-25169761D01*
X227480952Y-25122142D01*
X227385714Y-24979285D01*
X227338095Y-24788809D01*
X227338095Y-24407857D01*
X227385714Y-24312619D01*
X227433333Y-24265000D01*
X227528571Y-24217380D01*
X227719047Y-24217380D01*
X227814285Y-24265000D01*
X227861904Y-24312619D01*
X227909523Y-24407857D01*
X227909523Y-24645952D01*
X227861904Y-24741190D01*
X227814285Y-24788809D01*
X227719047Y-24836428D01*
X227528571Y-24836428D01*
X227433333Y-24788809D01*
X227385714Y-24741190D01*
X227338095Y-24645952D01*
X203922857Y-16232142D02*
X203970476Y-16279761D01*
X204113333Y-16327380D01*
X204208571Y-16327380D01*
X204351428Y-16279761D01*
X204446666Y-16184523D01*
X204494285Y-16089285D01*
X204541904Y-15898809D01*
X204541904Y-15755952D01*
X204494285Y-15565476D01*
X204446666Y-15470238D01*
X204351428Y-15375000D01*
X204208571Y-15327380D01*
X204113333Y-15327380D01*
X203970476Y-15375000D01*
X203922857Y-15422619D01*
X203541904Y-15422619D02*
X203494285Y-15375000D01*
X203399047Y-15327380D01*
X203160952Y-15327380D01*
X203065714Y-15375000D01*
X203018095Y-15422619D01*
X202970476Y-15517857D01*
X202970476Y-15613095D01*
X203018095Y-15755952D01*
X203589523Y-16327380D01*
X202970476Y-16327380D01*
X202018095Y-16327380D02*
X202589523Y-16327380D01*
X202303809Y-16327380D02*
X202303809Y-15327380D01*
X202399047Y-15470238D01*
X202494285Y-15565476D01*
X202589523Y-15613095D01*
X263335983Y-135207142D02*
X263383602Y-135159523D01*
X263431221Y-135016666D01*
X263431221Y-134921428D01*
X263383602Y-134778571D01*
X263288364Y-134683333D01*
X263193126Y-134635714D01*
X263002650Y-134588095D01*
X262859793Y-134588095D01*
X262669317Y-134635714D01*
X262574079Y-134683333D01*
X262478841Y-134778571D01*
X262431221Y-134921428D01*
X262431221Y-135016666D01*
X262478841Y-135159523D01*
X262526460Y-135207142D01*
X263431221Y-136159523D02*
X263431221Y-135588095D01*
X263431221Y-135873809D02*
X262431221Y-135873809D01*
X262574079Y-135778571D01*
X262669317Y-135683333D01*
X262716936Y-135588095D01*
X262431221Y-136492857D02*
X262431221Y-137159523D01*
X263431221Y-136730952D01*
X229242857Y-15692380D02*
X229576190Y-15216190D01*
X229814285Y-15692380D02*
X229814285Y-14692380D01*
X229433333Y-14692380D01*
X229338095Y-14740000D01*
X229290476Y-14787619D01*
X229242857Y-14882857D01*
X229242857Y-15025714D01*
X229290476Y-15120952D01*
X229338095Y-15168571D01*
X229433333Y-15216190D01*
X229814285Y-15216190D01*
X228909523Y-14692380D02*
X228290476Y-14692380D01*
X228623809Y-15073333D01*
X228480952Y-15073333D01*
X228385714Y-15120952D01*
X228338095Y-15168571D01*
X228290476Y-15263809D01*
X228290476Y-15501904D01*
X228338095Y-15597142D01*
X228385714Y-15644761D01*
X228480952Y-15692380D01*
X228766666Y-15692380D01*
X228861904Y-15644761D01*
X228909523Y-15597142D01*
X227385714Y-14692380D02*
X227861904Y-14692380D01*
X227909523Y-15168571D01*
X227861904Y-15120952D01*
X227766666Y-15073333D01*
X227528571Y-15073333D01*
X227433333Y-15120952D01*
X227385714Y-15168571D01*
X227338095Y-15263809D01*
X227338095Y-15501904D01*
X227385714Y-15597142D01*
X227433333Y-15644761D01*
X227528571Y-15692380D01*
X227766666Y-15692380D01*
X227861904Y-15644761D01*
X227909523Y-15597142D01*
X276582142Y-147987142D02*
X276629761Y-147939523D01*
X276677380Y-147796666D01*
X276677380Y-147701428D01*
X276629761Y-147558571D01*
X276534523Y-147463333D01*
X276439285Y-147415714D01*
X276248809Y-147368095D01*
X276105952Y-147368095D01*
X275915476Y-147415714D01*
X275820238Y-147463333D01*
X275725000Y-147558571D01*
X275677380Y-147701428D01*
X275677380Y-147796666D01*
X275725000Y-147939523D01*
X275772619Y-147987142D01*
X276677380Y-148939523D02*
X276677380Y-148368095D01*
X276677380Y-148653809D02*
X275677380Y-148653809D01*
X275820238Y-148558571D01*
X275915476Y-148463333D01*
X275963095Y-148368095D01*
X276010714Y-149796666D02*
X276677380Y-149796666D01*
X275629761Y-149558571D02*
X276344047Y-149320476D01*
X276344047Y-149939523D01*
X254333333Y-151427380D02*
X254333333Y-152141666D01*
X254380952Y-152284523D01*
X254476190Y-152379761D01*
X254619047Y-152427380D01*
X254714285Y-152427380D01*
X253333333Y-152427380D02*
X253904761Y-152427380D01*
X253619047Y-152427380D02*
X253619047Y-151427380D01*
X253714285Y-151570238D01*
X253809523Y-151665476D01*
X253904761Y-151713095D01*
X257797857Y-152062142D02*
X257845476Y-152109761D01*
X257988333Y-152157380D01*
X258083571Y-152157380D01*
X258226428Y-152109761D01*
X258321666Y-152014523D01*
X258369285Y-151919285D01*
X258416904Y-151728809D01*
X258416904Y-151585952D01*
X258369285Y-151395476D01*
X258321666Y-151300238D01*
X258226428Y-151205000D01*
X258083571Y-151157380D01*
X257988333Y-151157380D01*
X257845476Y-151205000D01*
X257797857Y-151252619D01*
X256845476Y-152157380D02*
X257416904Y-152157380D01*
X257131190Y-152157380D02*
X257131190Y-151157380D01*
X257226428Y-151300238D01*
X257321666Y-151395476D01*
X257416904Y-151443095D01*
X256512142Y-151157380D02*
X255893095Y-151157380D01*
X256226428Y-151538333D01*
X256083571Y-151538333D01*
X255988333Y-151585952D01*
X255940714Y-151633571D01*
X255893095Y-151728809D01*
X255893095Y-151966904D01*
X255940714Y-152062142D01*
X255988333Y-152109761D01*
X256083571Y-152157380D01*
X256369285Y-152157380D01*
X256464523Y-152109761D01*
X256512142Y-152062142D01*
X258432857Y-138092142D02*
X258480476Y-138139761D01*
X258623333Y-138187380D01*
X258718571Y-138187380D01*
X258861428Y-138139761D01*
X258956666Y-138044523D01*
X259004285Y-137949285D01*
X259051904Y-137758809D01*
X259051904Y-137615952D01*
X259004285Y-137425476D01*
X258956666Y-137330238D01*
X258861428Y-137235000D01*
X258718571Y-137187380D01*
X258623333Y-137187380D01*
X258480476Y-137235000D01*
X258432857Y-137282619D01*
X257480476Y-138187380D02*
X258051904Y-138187380D01*
X257766190Y-138187380D02*
X257766190Y-137187380D01*
X257861428Y-137330238D01*
X257956666Y-137425476D01*
X258051904Y-137473095D01*
X256909047Y-137615952D02*
X257004285Y-137568333D01*
X257051904Y-137520714D01*
X257099523Y-137425476D01*
X257099523Y-137377857D01*
X257051904Y-137282619D01*
X257004285Y-137235000D01*
X256909047Y-137187380D01*
X256718571Y-137187380D01*
X256623333Y-137235000D01*
X256575714Y-137282619D01*
X256528095Y-137377857D01*
X256528095Y-137425476D01*
X256575714Y-137520714D01*
X256623333Y-137568333D01*
X256718571Y-137615952D01*
X256909047Y-137615952D01*
X257004285Y-137663571D01*
X257051904Y-137711190D01*
X257099523Y-137806428D01*
X257099523Y-137996904D01*
X257051904Y-138092142D01*
X257004285Y-138139761D01*
X256909047Y-138187380D01*
X256718571Y-138187380D01*
X256623333Y-138139761D01*
X256575714Y-138092142D01*
X256528095Y-137996904D01*
X256528095Y-137806428D01*
X256575714Y-137711190D01*
X256623333Y-137663571D01*
X256718571Y-137615952D01*
X203684095Y-160472380D02*
X203684095Y-159472380D01*
X203446000Y-159472380D01*
X203303142Y-159520000D01*
X203207904Y-159615238D01*
X203160285Y-159710476D01*
X203112666Y-159900952D01*
X203112666Y-160043809D01*
X203160285Y-160234285D01*
X203207904Y-160329523D01*
X203303142Y-160424761D01*
X203446000Y-160472380D01*
X203684095Y-160472380D01*
X202255523Y-159805714D02*
X202255523Y-160472380D01*
X202493619Y-159424761D02*
X202731714Y-160139047D01*
X202112666Y-160139047D01*
X207271904Y-158572380D02*
X207271904Y-157572380D01*
X206700476Y-158572380D02*
X207129047Y-158000952D01*
X206700476Y-157572380D02*
X207271904Y-158143809D01*
X251447857Y-138092142D02*
X251495476Y-138139761D01*
X251638333Y-138187380D01*
X251733571Y-138187380D01*
X251876428Y-138139761D01*
X251971666Y-138044523D01*
X252019285Y-137949285D01*
X252066904Y-137758809D01*
X252066904Y-137615952D01*
X252019285Y-137425476D01*
X251971666Y-137330238D01*
X251876428Y-137235000D01*
X251733571Y-137187380D01*
X251638333Y-137187380D01*
X251495476Y-137235000D01*
X251447857Y-137282619D01*
X250495476Y-138187380D02*
X251066904Y-138187380D01*
X250781190Y-138187380D02*
X250781190Y-137187380D01*
X250876428Y-137330238D01*
X250971666Y-137425476D01*
X251066904Y-137473095D01*
X249590714Y-137187380D02*
X250066904Y-137187380D01*
X250114523Y-137663571D01*
X250066904Y-137615952D01*
X249971666Y-137568333D01*
X249733571Y-137568333D01*
X249638333Y-137615952D01*
X249590714Y-137663571D01*
X249543095Y-137758809D01*
X249543095Y-137996904D01*
X249590714Y-138092142D01*
X249638333Y-138139761D01*
X249733571Y-138187380D01*
X249971666Y-138187380D01*
X250066904Y-138139761D01*
X250114523Y-138092142D01*
X246717380Y-140763095D02*
X247526904Y-140763095D01*
X247622142Y-140810714D01*
X247669761Y-140858333D01*
X247717380Y-140953571D01*
X247717380Y-141144047D01*
X247669761Y-141239285D01*
X247622142Y-141286904D01*
X247526904Y-141334523D01*
X246717380Y-141334523D01*
X246717380Y-141715476D02*
X246717380Y-142382142D01*
X247717380Y-141953571D01*
X251447857Y-152062142D02*
X251495476Y-152109761D01*
X251638333Y-152157380D01*
X251733571Y-152157380D01*
X251876428Y-152109761D01*
X251971666Y-152014523D01*
X252019285Y-151919285D01*
X252066904Y-151728809D01*
X252066904Y-151585952D01*
X252019285Y-151395476D01*
X251971666Y-151300238D01*
X251876428Y-151205000D01*
X251733571Y-151157380D01*
X251638333Y-151157380D01*
X251495476Y-151205000D01*
X251447857Y-151252619D01*
X250495476Y-152157380D02*
X251066904Y-152157380D01*
X250781190Y-152157380D02*
X250781190Y-151157380D01*
X250876428Y-151300238D01*
X250971666Y-151395476D01*
X251066904Y-151443095D01*
X250114523Y-151252619D02*
X250066904Y-151205000D01*
X249971666Y-151157380D01*
X249733571Y-151157380D01*
X249638333Y-151205000D01*
X249590714Y-151252619D01*
X249543095Y-151347857D01*
X249543095Y-151443095D01*
X249590714Y-151585952D01*
X250162142Y-152157380D01*
X249543095Y-152157380D01*
X266795238Y-141132619D02*
X266890476Y-141085000D01*
X266985714Y-140989761D01*
X267128571Y-140846904D01*
X267223809Y-140799285D01*
X267319047Y-140799285D01*
X267271428Y-141037380D02*
X267366666Y-140989761D01*
X267461904Y-140894523D01*
X267509523Y-140704047D01*
X267509523Y-140370714D01*
X267461904Y-140180238D01*
X267366666Y-140085000D01*
X267271428Y-140037380D01*
X267080952Y-140037380D01*
X266985714Y-140085000D01*
X266890476Y-140180238D01*
X266842857Y-140370714D01*
X266842857Y-140704047D01*
X266890476Y-140894523D01*
X266985714Y-140989761D01*
X267080952Y-141037380D01*
X267271428Y-141037380D01*
X265890476Y-141037380D02*
X266461904Y-141037380D01*
X266176190Y-141037380D02*
X266176190Y-140037380D01*
X266271428Y-140180238D01*
X266366666Y-140275476D01*
X266461904Y-140323095D01*
X260187380Y-140923095D02*
X260996904Y-140923095D01*
X261092142Y-140970714D01*
X261139761Y-141018333D01*
X261187380Y-141113571D01*
X261187380Y-141304047D01*
X261139761Y-141399285D01*
X261092142Y-141446904D01*
X260996904Y-141494523D01*
X260187380Y-141494523D01*
X260615952Y-142113571D02*
X260568333Y-142018333D01*
X260520714Y-141970714D01*
X260425476Y-141923095D01*
X260377857Y-141923095D01*
X260282619Y-141970714D01*
X260235000Y-142018333D01*
X260187380Y-142113571D01*
X260187380Y-142304047D01*
X260235000Y-142399285D01*
X260282619Y-142446904D01*
X260377857Y-142494523D01*
X260425476Y-142494523D01*
X260520714Y-142446904D01*
X260568333Y-142399285D01*
X260615952Y-142304047D01*
X260615952Y-142113571D01*
X260663571Y-142018333D01*
X260711190Y-141970714D01*
X260806428Y-141923095D01*
X260996904Y-141923095D01*
X261092142Y-141970714D01*
X261139761Y-142018333D01*
X261187380Y-142113571D01*
X261187380Y-142304047D01*
X261139761Y-142399285D01*
X261092142Y-142446904D01*
X260996904Y-142494523D01*
X260806428Y-142494523D01*
X260711190Y-142446904D01*
X260663571Y-142399285D01*
X260615952Y-142304047D01*
X204192095Y-100782380D02*
X204192095Y-99782380D01*
X203954000Y-99782380D01*
X203811142Y-99830000D01*
X203715904Y-99925238D01*
X203668285Y-100020476D01*
X203620666Y-100210952D01*
X203620666Y-100353809D01*
X203668285Y-100544285D01*
X203715904Y-100639523D01*
X203811142Y-100734761D01*
X203954000Y-100782380D01*
X204192095Y-100782380D01*
X202668285Y-100782380D02*
X203239714Y-100782380D01*
X202954000Y-100782380D02*
X202954000Y-99782380D01*
X203049238Y-99925238D01*
X203144476Y-100020476D01*
X203239714Y-100068095D01*
X199651904Y-102682380D02*
X199651904Y-101682380D01*
X199080476Y-102682380D02*
X199509047Y-102110952D01*
X199080476Y-101682380D02*
X199651904Y-102253809D01*
X203684095Y-156662380D02*
X203684095Y-155662380D01*
X203446000Y-155662380D01*
X203303142Y-155710000D01*
X203207904Y-155805238D01*
X203160285Y-155900476D01*
X203112666Y-156090952D01*
X203112666Y-156233809D01*
X203160285Y-156424285D01*
X203207904Y-156519523D01*
X203303142Y-156614761D01*
X203446000Y-156662380D01*
X203684095Y-156662380D01*
X202731714Y-155757619D02*
X202684095Y-155710000D01*
X202588857Y-155662380D01*
X202350761Y-155662380D01*
X202255523Y-155710000D01*
X202207904Y-155757619D01*
X202160285Y-155852857D01*
X202160285Y-155948095D01*
X202207904Y-156090952D01*
X202779333Y-156662380D01*
X202160285Y-156662380D01*
X207271904Y-154762380D02*
X207271904Y-153762380D01*
X206700476Y-154762380D02*
X207129047Y-154190952D01*
X206700476Y-153762380D02*
X207271904Y-154333809D01*
X204192095Y-96972380D02*
X204192095Y-95972380D01*
X203954000Y-95972380D01*
X203811142Y-96020000D01*
X203715904Y-96115238D01*
X203668285Y-96210476D01*
X203620666Y-96400952D01*
X203620666Y-96543809D01*
X203668285Y-96734285D01*
X203715904Y-96829523D01*
X203811142Y-96924761D01*
X203954000Y-96972380D01*
X204192095Y-96972380D01*
X203287333Y-95972380D02*
X202668285Y-95972380D01*
X203001619Y-96353333D01*
X202858761Y-96353333D01*
X202763523Y-96400952D01*
X202715904Y-96448571D01*
X202668285Y-96543809D01*
X202668285Y-96781904D01*
X202715904Y-96877142D01*
X202763523Y-96924761D01*
X202858761Y-96972380D01*
X203144476Y-96972380D01*
X203239714Y-96924761D01*
X203287333Y-96877142D01*
X199651904Y-98872380D02*
X199651904Y-97872380D01*
X199080476Y-98872380D02*
X199509047Y-98300952D01*
X199080476Y-97872380D02*
X199651904Y-98443809D01*
X254632167Y-122847168D02*
X254632167Y-121847168D01*
X254394072Y-121847168D01*
X254251214Y-121894788D01*
X254155976Y-121990026D01*
X254108357Y-122085264D01*
X254060738Y-122275740D01*
X254060738Y-122418597D01*
X254108357Y-122609073D01*
X254155976Y-122704311D01*
X254251214Y-122799549D01*
X254394072Y-122847168D01*
X254632167Y-122847168D01*
X253203595Y-121847168D02*
X253394072Y-121847168D01*
X253489310Y-121894788D01*
X253536929Y-121942407D01*
X253632167Y-122085264D01*
X253679786Y-122275740D01*
X253679786Y-122656692D01*
X253632167Y-122751930D01*
X253584548Y-122799549D01*
X253489310Y-122847168D01*
X253298833Y-122847168D01*
X253203595Y-122799549D01*
X253155976Y-122751930D01*
X253108357Y-122656692D01*
X253108357Y-122418597D01*
X253155976Y-122323359D01*
X253203595Y-122275740D01*
X253298833Y-122228121D01*
X253489310Y-122228121D01*
X253584548Y-122275740D01*
X253632167Y-122323359D01*
X253679786Y-122418597D01*
X258071904Y-121107380D02*
X258071904Y-120107380D01*
X257500476Y-121107380D02*
X257929047Y-120535952D01*
X257500476Y-120107380D02*
X258071904Y-120678809D01*
X266866666Y-124912380D02*
X267200000Y-124436190D01*
X267438095Y-124912380D02*
X267438095Y-123912380D01*
X267057142Y-123912380D01*
X266961904Y-123960000D01*
X266914285Y-124007619D01*
X266866666Y-124102857D01*
X266866666Y-124245714D01*
X266914285Y-124340952D01*
X266961904Y-124388571D01*
X267057142Y-124436190D01*
X267438095Y-124436190D01*
X266009523Y-124245714D02*
X266009523Y-124912380D01*
X266247619Y-123864761D02*
X266485714Y-124579047D01*
X265866666Y-124579047D01*
X203842857Y-111577380D02*
X204176190Y-111101190D01*
X204414285Y-111577380D02*
X204414285Y-110577380D01*
X204033333Y-110577380D01*
X203938095Y-110625000D01*
X203890476Y-110672619D01*
X203842857Y-110767857D01*
X203842857Y-110910714D01*
X203890476Y-111005952D01*
X203938095Y-111053571D01*
X204033333Y-111101190D01*
X204414285Y-111101190D01*
X202938095Y-110577380D02*
X203414285Y-110577380D01*
X203461904Y-111053571D01*
X203414285Y-111005952D01*
X203319047Y-110958333D01*
X203080952Y-110958333D01*
X202985714Y-111005952D01*
X202938095Y-111053571D01*
X202890476Y-111148809D01*
X202890476Y-111386904D01*
X202938095Y-111482142D01*
X202985714Y-111529761D01*
X203080952Y-111577380D01*
X203319047Y-111577380D01*
X203414285Y-111529761D01*
X203461904Y-111482142D01*
X202557142Y-110577380D02*
X201938095Y-110577380D01*
X202271428Y-110958333D01*
X202128571Y-110958333D01*
X202033333Y-111005952D01*
X201985714Y-111053571D01*
X201938095Y-111148809D01*
X201938095Y-111386904D01*
X201985714Y-111482142D01*
X202033333Y-111529761D01*
X202128571Y-111577380D01*
X202414285Y-111577380D01*
X202509523Y-111529761D01*
X202557142Y-111482142D01*
X255360395Y-119197380D02*
X255360395Y-118197380D01*
X255122300Y-118197380D01*
X254979442Y-118245000D01*
X254884204Y-118340238D01*
X254836585Y-118435476D01*
X254788966Y-118625952D01*
X254788966Y-118768809D01*
X254836585Y-118959285D01*
X254884204Y-119054523D01*
X254979442Y-119149761D01*
X255122300Y-119197380D01*
X255360395Y-119197380D01*
X253884204Y-118197380D02*
X254360395Y-118197380D01*
X254408014Y-118673571D01*
X254360395Y-118625952D01*
X254265157Y-118578333D01*
X254027061Y-118578333D01*
X253931823Y-118625952D01*
X253884204Y-118673571D01*
X253836585Y-118768809D01*
X253836585Y-119006904D01*
X253884204Y-119102142D01*
X253931823Y-119149761D01*
X254027061Y-119197380D01*
X254265157Y-119197380D01*
X254360395Y-119149761D01*
X254408014Y-119102142D01*
X250451904Y-121097380D02*
X250451904Y-120097380D01*
X249880476Y-121097380D02*
X250309047Y-120525952D01*
X249880476Y-120097380D02*
X250451904Y-120668809D01*
X203842857Y-109037380D02*
X204176190Y-108561190D01*
X204414285Y-109037380D02*
X204414285Y-108037380D01*
X204033333Y-108037380D01*
X203938095Y-108085000D01*
X203890476Y-108132619D01*
X203842857Y-108227857D01*
X203842857Y-108370714D01*
X203890476Y-108465952D01*
X203938095Y-108513571D01*
X204033333Y-108561190D01*
X204414285Y-108561190D01*
X202938095Y-108037380D02*
X203414285Y-108037380D01*
X203461904Y-108513571D01*
X203414285Y-108465952D01*
X203319047Y-108418333D01*
X203080952Y-108418333D01*
X202985714Y-108465952D01*
X202938095Y-108513571D01*
X202890476Y-108608809D01*
X202890476Y-108846904D01*
X202938095Y-108942142D01*
X202985714Y-108989761D01*
X203080952Y-109037380D01*
X203319047Y-109037380D01*
X203414285Y-108989761D01*
X203461904Y-108942142D01*
X202509523Y-108132619D02*
X202461904Y-108085000D01*
X202366666Y-108037380D01*
X202128571Y-108037380D01*
X202033333Y-108085000D01*
X201985714Y-108132619D01*
X201938095Y-108227857D01*
X201938095Y-108323095D01*
X201985714Y-108465952D01*
X202557142Y-109037380D01*
X201938095Y-109037380D01*
X203842857Y-106497380D02*
X204176190Y-106021190D01*
X204414285Y-106497380D02*
X204414285Y-105497380D01*
X204033333Y-105497380D01*
X203938095Y-105545000D01*
X203890476Y-105592619D01*
X203842857Y-105687857D01*
X203842857Y-105830714D01*
X203890476Y-105925952D01*
X203938095Y-105973571D01*
X204033333Y-106021190D01*
X204414285Y-106021190D01*
X202938095Y-105497380D02*
X203414285Y-105497380D01*
X203461904Y-105973571D01*
X203414285Y-105925952D01*
X203319047Y-105878333D01*
X203080952Y-105878333D01*
X202985714Y-105925952D01*
X202938095Y-105973571D01*
X202890476Y-106068809D01*
X202890476Y-106306904D01*
X202938095Y-106402142D01*
X202985714Y-106449761D01*
X203080952Y-106497380D01*
X203319047Y-106497380D01*
X203414285Y-106449761D01*
X203461904Y-106402142D01*
X201938095Y-106497380D02*
X202509523Y-106497380D01*
X202223809Y-106497380D02*
X202223809Y-105497380D01*
X202319047Y-105640238D01*
X202414285Y-105735476D01*
X202509523Y-105783095D01*
X204096857Y-150947380D02*
X204430190Y-150471190D01*
X204668285Y-150947380D02*
X204668285Y-149947380D01*
X204287333Y-149947380D01*
X204192095Y-149995000D01*
X204144476Y-150042619D01*
X204096857Y-150137857D01*
X204096857Y-150280714D01*
X204144476Y-150375952D01*
X204192095Y-150423571D01*
X204287333Y-150471190D01*
X204668285Y-150471190D01*
X203192095Y-149947380D02*
X203668285Y-149947380D01*
X203715904Y-150423571D01*
X203668285Y-150375952D01*
X203573047Y-150328333D01*
X203334952Y-150328333D01*
X203239714Y-150375952D01*
X203192095Y-150423571D01*
X203144476Y-150518809D01*
X203144476Y-150756904D01*
X203192095Y-150852142D01*
X203239714Y-150899761D01*
X203334952Y-150947380D01*
X203573047Y-150947380D01*
X203668285Y-150899761D01*
X203715904Y-150852142D01*
X202287333Y-149947380D02*
X202477809Y-149947380D01*
X202573047Y-149995000D01*
X202620666Y-150042619D01*
X202715904Y-150185476D01*
X202763523Y-150375952D01*
X202763523Y-150756904D01*
X202715904Y-150852142D01*
X202668285Y-150899761D01*
X202573047Y-150947380D01*
X202382571Y-150947380D01*
X202287333Y-150899761D01*
X202239714Y-150852142D01*
X202192095Y-150756904D01*
X202192095Y-150518809D01*
X202239714Y-150423571D01*
X202287333Y-150375952D01*
X202382571Y-150328333D01*
X202573047Y-150328333D01*
X202668285Y-150375952D01*
X202715904Y-150423571D01*
X202763523Y-150518809D01*
X203842857Y-148534380D02*
X204176190Y-148058190D01*
X204414285Y-148534380D02*
X204414285Y-147534380D01*
X204033333Y-147534380D01*
X203938095Y-147582000D01*
X203890476Y-147629619D01*
X203842857Y-147724857D01*
X203842857Y-147867714D01*
X203890476Y-147962952D01*
X203938095Y-148010571D01*
X204033333Y-148058190D01*
X204414285Y-148058190D01*
X202938095Y-147534380D02*
X203414285Y-147534380D01*
X203461904Y-148010571D01*
X203414285Y-147962952D01*
X203319047Y-147915333D01*
X203080952Y-147915333D01*
X202985714Y-147962952D01*
X202938095Y-148010571D01*
X202890476Y-148105809D01*
X202890476Y-148343904D01*
X202938095Y-148439142D01*
X202985714Y-148486761D01*
X203080952Y-148534380D01*
X203319047Y-148534380D01*
X203414285Y-148486761D01*
X203461904Y-148439142D01*
X201985714Y-147534380D02*
X202461904Y-147534380D01*
X202509523Y-148010571D01*
X202461904Y-147962952D01*
X202366666Y-147915333D01*
X202128571Y-147915333D01*
X202033333Y-147962952D01*
X201985714Y-148010571D01*
X201938095Y-148105809D01*
X201938095Y-148343904D01*
X201985714Y-148439142D01*
X202033333Y-148486761D01*
X202128571Y-148534380D01*
X202366666Y-148534380D01*
X202461904Y-148486761D01*
X202509523Y-148439142D01*
X203588857Y-145867380D02*
X203922190Y-145391190D01*
X204160285Y-145867380D02*
X204160285Y-144867380D01*
X203779333Y-144867380D01*
X203684095Y-144915000D01*
X203636476Y-144962619D01*
X203588857Y-145057857D01*
X203588857Y-145200714D01*
X203636476Y-145295952D01*
X203684095Y-145343571D01*
X203779333Y-145391190D01*
X204160285Y-145391190D01*
X202684095Y-144867380D02*
X203160285Y-144867380D01*
X203207904Y-145343571D01*
X203160285Y-145295952D01*
X203065047Y-145248333D01*
X202826952Y-145248333D01*
X202731714Y-145295952D01*
X202684095Y-145343571D01*
X202636476Y-145438809D01*
X202636476Y-145676904D01*
X202684095Y-145772142D01*
X202731714Y-145819761D01*
X202826952Y-145867380D01*
X203065047Y-145867380D01*
X203160285Y-145819761D01*
X203207904Y-145772142D01*
X201779333Y-145200714D02*
X201779333Y-145867380D01*
X202017428Y-144819761D02*
X202255523Y-145534047D01*
X201636476Y-145534047D01*
X254642857Y-89987380D02*
X254976190Y-89511190D01*
X255214285Y-89987380D02*
X255214285Y-88987380D01*
X254833333Y-88987380D01*
X254738095Y-89035000D01*
X254690476Y-89082619D01*
X254642857Y-89177857D01*
X254642857Y-89320714D01*
X254690476Y-89415952D01*
X254738095Y-89463571D01*
X254833333Y-89511190D01*
X255214285Y-89511190D01*
X254261904Y-89082619D02*
X254214285Y-89035000D01*
X254119047Y-88987380D01*
X253880952Y-88987380D01*
X253785714Y-89035000D01*
X253738095Y-89082619D01*
X253690476Y-89177857D01*
X253690476Y-89273095D01*
X253738095Y-89415952D01*
X254309523Y-89987380D01*
X253690476Y-89987380D01*
X253119047Y-89415952D02*
X253214285Y-89368333D01*
X253261904Y-89320714D01*
X253309523Y-89225476D01*
X253309523Y-89177857D01*
X253261904Y-89082619D01*
X253214285Y-89035000D01*
X253119047Y-88987380D01*
X252928571Y-88987380D01*
X252833333Y-89035000D01*
X252785714Y-89082619D01*
X252738095Y-89177857D01*
X252738095Y-89225476D01*
X252785714Y-89320714D01*
X252833333Y-89368333D01*
X252928571Y-89415952D01*
X253119047Y-89415952D01*
X253214285Y-89463571D01*
X253261904Y-89511190D01*
X253309523Y-89606428D01*
X253309523Y-89796904D01*
X253261904Y-89892142D01*
X253214285Y-89939761D01*
X253119047Y-89987380D01*
X252928571Y-89987380D01*
X252833333Y-89939761D01*
X252785714Y-89892142D01*
X252738095Y-89796904D01*
X252738095Y-89606428D01*
X252785714Y-89511190D01*
X252833333Y-89463571D01*
X252928571Y-89415952D01*
X266866666Y-127452380D02*
X267200000Y-126976190D01*
X267438095Y-127452380D02*
X267438095Y-126452380D01*
X267057142Y-126452380D01*
X266961904Y-126500000D01*
X266914285Y-126547619D01*
X266866666Y-126642857D01*
X266866666Y-126785714D01*
X266914285Y-126880952D01*
X266961904Y-126928571D01*
X267057142Y-126976190D01*
X267438095Y-126976190D01*
X265961904Y-126452380D02*
X266438095Y-126452380D01*
X266485714Y-126928571D01*
X266438095Y-126880952D01*
X266342857Y-126833333D01*
X266104761Y-126833333D01*
X266009523Y-126880952D01*
X265961904Y-126928571D01*
X265914285Y-127023809D01*
X265914285Y-127261904D01*
X265961904Y-127357142D01*
X266009523Y-127404761D01*
X266104761Y-127452380D01*
X266342857Y-127452380D01*
X266438095Y-127404761D01*
X266485714Y-127357142D01*
X254642857Y-53792380D02*
X254976190Y-53316190D01*
X255214285Y-53792380D02*
X255214285Y-52792380D01*
X254833333Y-52792380D01*
X254738095Y-52840000D01*
X254690476Y-52887619D01*
X254642857Y-52982857D01*
X254642857Y-53125714D01*
X254690476Y-53220952D01*
X254738095Y-53268571D01*
X254833333Y-53316190D01*
X255214285Y-53316190D01*
X253690476Y-53792380D02*
X254261904Y-53792380D01*
X253976190Y-53792380D02*
X253976190Y-52792380D01*
X254071428Y-52935238D01*
X254166666Y-53030476D01*
X254261904Y-53078095D01*
X252785714Y-52792380D02*
X253261904Y-52792380D01*
X253309523Y-53268571D01*
X253261904Y-53220952D01*
X253166666Y-53173333D01*
X252928571Y-53173333D01*
X252833333Y-53220952D01*
X252785714Y-53268571D01*
X252738095Y-53363809D01*
X252738095Y-53601904D01*
X252785714Y-53697142D01*
X252833333Y-53744761D01*
X252928571Y-53792380D01*
X253166666Y-53792380D01*
X253261904Y-53744761D01*
X253309523Y-53697142D01*
X254642857Y-56332380D02*
X254976190Y-55856190D01*
X255214285Y-56332380D02*
X255214285Y-55332380D01*
X254833333Y-55332380D01*
X254738095Y-55380000D01*
X254690476Y-55427619D01*
X254642857Y-55522857D01*
X254642857Y-55665714D01*
X254690476Y-55760952D01*
X254738095Y-55808571D01*
X254833333Y-55856190D01*
X255214285Y-55856190D01*
X253690476Y-56332380D02*
X254261904Y-56332380D01*
X253976190Y-56332380D02*
X253976190Y-55332380D01*
X254071428Y-55475238D01*
X254166666Y-55570476D01*
X254261904Y-55618095D01*
X252833333Y-55332380D02*
X253023809Y-55332380D01*
X253119047Y-55380000D01*
X253166666Y-55427619D01*
X253261904Y-55570476D01*
X253309523Y-55760952D01*
X253309523Y-56141904D01*
X253261904Y-56237142D01*
X253214285Y-56284761D01*
X253119047Y-56332380D01*
X252928571Y-56332380D01*
X252833333Y-56284761D01*
X252785714Y-56237142D01*
X252738095Y-56141904D01*
X252738095Y-55903809D01*
X252785714Y-55808571D01*
X252833333Y-55760952D01*
X252928571Y-55713333D01*
X253119047Y-55713333D01*
X253214285Y-55760952D01*
X253261904Y-55808571D01*
X253309523Y-55903809D01*
X203842857Y-103957380D02*
X204176190Y-103481190D01*
X204414285Y-103957380D02*
X204414285Y-102957380D01*
X204033333Y-102957380D01*
X203938095Y-103005000D01*
X203890476Y-103052619D01*
X203842857Y-103147857D01*
X203842857Y-103290714D01*
X203890476Y-103385952D01*
X203938095Y-103433571D01*
X204033333Y-103481190D01*
X204414285Y-103481190D01*
X202938095Y-102957380D02*
X203414285Y-102957380D01*
X203461904Y-103433571D01*
X203414285Y-103385952D01*
X203319047Y-103338333D01*
X203080952Y-103338333D01*
X202985714Y-103385952D01*
X202938095Y-103433571D01*
X202890476Y-103528809D01*
X202890476Y-103766904D01*
X202938095Y-103862142D01*
X202985714Y-103909761D01*
X203080952Y-103957380D01*
X203319047Y-103957380D01*
X203414285Y-103909761D01*
X203461904Y-103862142D01*
X202271428Y-102957380D02*
X202176190Y-102957380D01*
X202080952Y-103005000D01*
X202033333Y-103052619D01*
X201985714Y-103147857D01*
X201938095Y-103338333D01*
X201938095Y-103576428D01*
X201985714Y-103766904D01*
X202033333Y-103862142D01*
X202080952Y-103909761D01*
X202176190Y-103957380D01*
X202271428Y-103957380D01*
X202366666Y-103909761D01*
X202414285Y-103862142D01*
X202461904Y-103766904D01*
X202509523Y-103576428D01*
X202509523Y-103338333D01*
X202461904Y-103147857D01*
X202414285Y-103052619D01*
X202366666Y-103005000D01*
X202271428Y-102957380D01*
X203588857Y-153487380D02*
X203922190Y-153011190D01*
X204160285Y-153487380D02*
X204160285Y-152487380D01*
X203779333Y-152487380D01*
X203684095Y-152535000D01*
X203636476Y-152582619D01*
X203588857Y-152677857D01*
X203588857Y-152820714D01*
X203636476Y-152915952D01*
X203684095Y-152963571D01*
X203779333Y-153011190D01*
X204160285Y-153011190D01*
X202684095Y-152487380D02*
X203160285Y-152487380D01*
X203207904Y-152963571D01*
X203160285Y-152915952D01*
X203065047Y-152868333D01*
X202826952Y-152868333D01*
X202731714Y-152915952D01*
X202684095Y-152963571D01*
X202636476Y-153058809D01*
X202636476Y-153296904D01*
X202684095Y-153392142D01*
X202731714Y-153439761D01*
X202826952Y-153487380D01*
X203065047Y-153487380D01*
X203160285Y-153439761D01*
X203207904Y-153392142D01*
X202303142Y-152487380D02*
X201636476Y-152487380D01*
X202065047Y-153487380D01*
X254642857Y-59106221D02*
X254976190Y-58630031D01*
X255214285Y-59106221D02*
X255214285Y-58106221D01*
X254833333Y-58106221D01*
X254738095Y-58153841D01*
X254690476Y-58201460D01*
X254642857Y-58296698D01*
X254642857Y-58439555D01*
X254690476Y-58534793D01*
X254738095Y-58582412D01*
X254833333Y-58630031D01*
X255214285Y-58630031D01*
X253690476Y-59106221D02*
X254261904Y-59106221D01*
X253976190Y-59106221D02*
X253976190Y-58106221D01*
X254071428Y-58249079D01*
X254166666Y-58344317D01*
X254261904Y-58391936D01*
X253357142Y-58106221D02*
X252690476Y-58106221D01*
X253119047Y-59106221D01*
X254642857Y-87447380D02*
X254976190Y-86971190D01*
X255214285Y-87447380D02*
X255214285Y-86447380D01*
X254833333Y-86447380D01*
X254738095Y-86495000D01*
X254690476Y-86542619D01*
X254642857Y-86637857D01*
X254642857Y-86780714D01*
X254690476Y-86875952D01*
X254738095Y-86923571D01*
X254833333Y-86971190D01*
X255214285Y-86971190D01*
X254261904Y-86542619D02*
X254214285Y-86495000D01*
X254119047Y-86447380D01*
X253880952Y-86447380D01*
X253785714Y-86495000D01*
X253738095Y-86542619D01*
X253690476Y-86637857D01*
X253690476Y-86733095D01*
X253738095Y-86875952D01*
X254309523Y-87447380D01*
X253690476Y-87447380D01*
X253357142Y-86447380D02*
X252690476Y-86447380D01*
X253119047Y-87447380D01*
X254642857Y-92527380D02*
X254976190Y-92051190D01*
X255214285Y-92527380D02*
X255214285Y-91527380D01*
X254833333Y-91527380D01*
X254738095Y-91575000D01*
X254690476Y-91622619D01*
X254642857Y-91717857D01*
X254642857Y-91860714D01*
X254690476Y-91955952D01*
X254738095Y-92003571D01*
X254833333Y-92051190D01*
X255214285Y-92051190D01*
X254261904Y-91622619D02*
X254214285Y-91575000D01*
X254119047Y-91527380D01*
X253880952Y-91527380D01*
X253785714Y-91575000D01*
X253738095Y-91622619D01*
X253690476Y-91717857D01*
X253690476Y-91813095D01*
X253738095Y-91955952D01*
X254309523Y-92527380D01*
X253690476Y-92527380D01*
X253214285Y-92527380D02*
X253023809Y-92527380D01*
X252928571Y-92479761D01*
X252880952Y-92432142D01*
X252785714Y-92289285D01*
X252738095Y-92098809D01*
X252738095Y-91717857D01*
X252785714Y-91622619D01*
X252833333Y-91575000D01*
X252928571Y-91527380D01*
X253119047Y-91527380D01*
X253214285Y-91575000D01*
X253261904Y-91622619D01*
X253309523Y-91717857D01*
X253309523Y-91955952D01*
X253261904Y-92051190D01*
X253214285Y-92098809D01*
X253119047Y-92146428D01*
X252928571Y-92146428D01*
X252833333Y-92098809D01*
X252785714Y-92051190D01*
X252738095Y-91955952D01*
X254642857Y-77287380D02*
X254976190Y-76811190D01*
X255214285Y-77287380D02*
X255214285Y-76287380D01*
X254833333Y-76287380D01*
X254738095Y-76335000D01*
X254690476Y-76382619D01*
X254642857Y-76477857D01*
X254642857Y-76620714D01*
X254690476Y-76715952D01*
X254738095Y-76763571D01*
X254833333Y-76811190D01*
X255214285Y-76811190D01*
X254261904Y-76382619D02*
X254214285Y-76335000D01*
X254119047Y-76287380D01*
X253880952Y-76287380D01*
X253785714Y-76335000D01*
X253738095Y-76382619D01*
X253690476Y-76477857D01*
X253690476Y-76573095D01*
X253738095Y-76715952D01*
X254309523Y-77287380D01*
X253690476Y-77287380D01*
X253357142Y-76287380D02*
X252738095Y-76287380D01*
X253071428Y-76668333D01*
X252928571Y-76668333D01*
X252833333Y-76715952D01*
X252785714Y-76763571D01*
X252738095Y-76858809D01*
X252738095Y-77096904D01*
X252785714Y-77192142D01*
X252833333Y-77239761D01*
X252928571Y-77287380D01*
X253214285Y-77287380D01*
X253309523Y-77239761D01*
X253357142Y-77192142D01*
X229242857Y-101417380D02*
X229576190Y-100941190D01*
X229814285Y-101417380D02*
X229814285Y-100417380D01*
X229433333Y-100417380D01*
X229338095Y-100465000D01*
X229290476Y-100512619D01*
X229242857Y-100607857D01*
X229242857Y-100750714D01*
X229290476Y-100845952D01*
X229338095Y-100893571D01*
X229433333Y-100941190D01*
X229814285Y-100941190D01*
X228385714Y-100750714D02*
X228385714Y-101417380D01*
X228623809Y-100369761D02*
X228861904Y-101084047D01*
X228242857Y-101084047D01*
X227909523Y-100512619D02*
X227861904Y-100465000D01*
X227766666Y-100417380D01*
X227528571Y-100417380D01*
X227433333Y-100465000D01*
X227385714Y-100512619D01*
X227338095Y-100607857D01*
X227338095Y-100703095D01*
X227385714Y-100845952D01*
X227957142Y-101417380D01*
X227338095Y-101417380D01*
X229242857Y-147137380D02*
X229576190Y-146661190D01*
X229814285Y-147137380D02*
X229814285Y-146137380D01*
X229433333Y-146137380D01*
X229338095Y-146185000D01*
X229290476Y-146232619D01*
X229242857Y-146327857D01*
X229242857Y-146470714D01*
X229290476Y-146565952D01*
X229338095Y-146613571D01*
X229433333Y-146661190D01*
X229814285Y-146661190D01*
X228385714Y-146470714D02*
X228385714Y-147137380D01*
X228623809Y-146089761D02*
X228861904Y-146804047D01*
X228242857Y-146804047D01*
X227433333Y-146137380D02*
X227623809Y-146137380D01*
X227719047Y-146185000D01*
X227766666Y-146232619D01*
X227861904Y-146375476D01*
X227909523Y-146565952D01*
X227909523Y-146946904D01*
X227861904Y-147042142D01*
X227814285Y-147089761D01*
X227719047Y-147137380D01*
X227528571Y-147137380D01*
X227433333Y-147089761D01*
X227385714Y-147042142D01*
X227338095Y-146946904D01*
X227338095Y-146708809D01*
X227385714Y-146613571D01*
X227433333Y-146565952D01*
X227528571Y-146518333D01*
X227719047Y-146518333D01*
X227814285Y-146565952D01*
X227861904Y-146613571D01*
X227909523Y-146708809D01*
X229361904Y-126452380D02*
X229361904Y-127261904D01*
X229314285Y-127357142D01*
X229266666Y-127404761D01*
X229171428Y-127452380D01*
X228980952Y-127452380D01*
X228885714Y-127404761D01*
X228838095Y-127357142D01*
X228790476Y-127261904D01*
X228790476Y-126452380D01*
X227838095Y-126452380D02*
X228314285Y-126452380D01*
X228361904Y-126928571D01*
X228314285Y-126880952D01*
X228219047Y-126833333D01*
X227980952Y-126833333D01*
X227885714Y-126880952D01*
X227838095Y-126928571D01*
X227790476Y-127023809D01*
X227790476Y-127261904D01*
X227838095Y-127357142D01*
X227885714Y-127404761D01*
X227980952Y-127452380D01*
X228219047Y-127452380D01*
X228314285Y-127404761D01*
X228361904Y-127357142D01*
X266866666Y-50131221D02*
X267200000Y-49655031D01*
X267438095Y-50131221D02*
X267438095Y-49131221D01*
X267057142Y-49131221D01*
X266961904Y-49178841D01*
X266914285Y-49226460D01*
X266866666Y-49321698D01*
X266866666Y-49464555D01*
X266914285Y-49559793D01*
X266961904Y-49607412D01*
X267057142Y-49655031D01*
X267438095Y-49655031D01*
X265914285Y-50131221D02*
X266485714Y-50131221D01*
X266200000Y-50131221D02*
X266200000Y-49131221D01*
X266295238Y-49274079D01*
X266390476Y-49369317D01*
X266485714Y-49416936D01*
X254166666Y-25852380D02*
X254500000Y-25376190D01*
X254738095Y-25852380D02*
X254738095Y-24852380D01*
X254357142Y-24852380D01*
X254261904Y-24900000D01*
X254214285Y-24947619D01*
X254166666Y-25042857D01*
X254166666Y-25185714D01*
X254214285Y-25280952D01*
X254261904Y-25328571D01*
X254357142Y-25376190D01*
X254738095Y-25376190D01*
X253833333Y-24852380D02*
X253166666Y-24852380D01*
X253595238Y-25852380D01*
X254642857Y-69667380D02*
X254976190Y-69191190D01*
X255214285Y-69667380D02*
X255214285Y-68667380D01*
X254833333Y-68667380D01*
X254738095Y-68715000D01*
X254690476Y-68762619D01*
X254642857Y-68857857D01*
X254642857Y-69000714D01*
X254690476Y-69095952D01*
X254738095Y-69143571D01*
X254833333Y-69191190D01*
X255214285Y-69191190D01*
X254261904Y-68762619D02*
X254214285Y-68715000D01*
X254119047Y-68667380D01*
X253880952Y-68667380D01*
X253785714Y-68715000D01*
X253738095Y-68762619D01*
X253690476Y-68857857D01*
X253690476Y-68953095D01*
X253738095Y-69095952D01*
X254309523Y-69667380D01*
X253690476Y-69667380D01*
X253071428Y-68667380D02*
X252976190Y-68667380D01*
X252880952Y-68715000D01*
X252833333Y-68762619D01*
X252785714Y-68857857D01*
X252738095Y-69048333D01*
X252738095Y-69286428D01*
X252785714Y-69476904D01*
X252833333Y-69572142D01*
X252880952Y-69619761D01*
X252976190Y-69667380D01*
X253071428Y-69667380D01*
X253166666Y-69619761D01*
X253214285Y-69572142D01*
X253261904Y-69476904D01*
X253309523Y-69286428D01*
X253309523Y-69048333D01*
X253261904Y-68857857D01*
X253214285Y-68762619D01*
X253166666Y-68715000D01*
X253071428Y-68667380D01*
X254642857Y-105862380D02*
X254976190Y-105386190D01*
X255214285Y-105862380D02*
X255214285Y-104862380D01*
X254833333Y-104862380D01*
X254738095Y-104910000D01*
X254690476Y-104957619D01*
X254642857Y-105052857D01*
X254642857Y-105195714D01*
X254690476Y-105290952D01*
X254738095Y-105338571D01*
X254833333Y-105386190D01*
X255214285Y-105386190D01*
X254309523Y-104862380D02*
X253690476Y-104862380D01*
X254023809Y-105243333D01*
X253880952Y-105243333D01*
X253785714Y-105290952D01*
X253738095Y-105338571D01*
X253690476Y-105433809D01*
X253690476Y-105671904D01*
X253738095Y-105767142D01*
X253785714Y-105814761D01*
X253880952Y-105862380D01*
X254166666Y-105862380D01*
X254261904Y-105814761D01*
X254309523Y-105767142D01*
X253071428Y-104862380D02*
X252976190Y-104862380D01*
X252880952Y-104910000D01*
X252833333Y-104957619D01*
X252785714Y-105052857D01*
X252738095Y-105243333D01*
X252738095Y-105481428D01*
X252785714Y-105671904D01*
X252833333Y-105767142D01*
X252880952Y-105814761D01*
X252976190Y-105862380D01*
X253071428Y-105862380D01*
X253166666Y-105814761D01*
X253214285Y-105767142D01*
X253261904Y-105671904D01*
X253309523Y-105481428D01*
X253309523Y-105243333D01*
X253261904Y-105052857D01*
X253214285Y-104957619D01*
X253166666Y-104910000D01*
X253071428Y-104862380D01*
X229242857Y-154757380D02*
X229576190Y-154281190D01*
X229814285Y-154757380D02*
X229814285Y-153757380D01*
X229433333Y-153757380D01*
X229338095Y-153805000D01*
X229290476Y-153852619D01*
X229242857Y-153947857D01*
X229242857Y-154090714D01*
X229290476Y-154185952D01*
X229338095Y-154233571D01*
X229433333Y-154281190D01*
X229814285Y-154281190D01*
X228385714Y-154090714D02*
X228385714Y-154757380D01*
X228623809Y-153709761D02*
X228861904Y-154424047D01*
X228242857Y-154424047D01*
X227814285Y-154757380D02*
X227623809Y-154757380D01*
X227528571Y-154709761D01*
X227480952Y-154662142D01*
X227385714Y-154519285D01*
X227338095Y-154328809D01*
X227338095Y-153947857D01*
X227385714Y-153852619D01*
X227433333Y-153805000D01*
X227528571Y-153757380D01*
X227719047Y-153757380D01*
X227814285Y-153805000D01*
X227861904Y-153852619D01*
X227909523Y-153947857D01*
X227909523Y-154185952D01*
X227861904Y-154281190D01*
X227814285Y-154328809D01*
X227719047Y-154376428D01*
X227528571Y-154376428D01*
X227433333Y-154328809D01*
X227385714Y-154281190D01*
X227338095Y-154185952D01*
X254642857Y-51252380D02*
X254976190Y-50776190D01*
X255214285Y-51252380D02*
X255214285Y-50252380D01*
X254833333Y-50252380D01*
X254738095Y-50300000D01*
X254690476Y-50347619D01*
X254642857Y-50442857D01*
X254642857Y-50585714D01*
X254690476Y-50680952D01*
X254738095Y-50728571D01*
X254833333Y-50776190D01*
X255214285Y-50776190D01*
X253690476Y-51252380D02*
X254261904Y-51252380D01*
X253976190Y-51252380D02*
X253976190Y-50252380D01*
X254071428Y-50395238D01*
X254166666Y-50490476D01*
X254261904Y-50538095D01*
X252833333Y-50585714D02*
X252833333Y-51252380D01*
X253071428Y-50204761D02*
X253309523Y-50919047D01*
X252690476Y-50919047D01*
X254642857Y-113482380D02*
X254976190Y-113006190D01*
X255214285Y-113482380D02*
X255214285Y-112482380D01*
X254833333Y-112482380D01*
X254738095Y-112530000D01*
X254690476Y-112577619D01*
X254642857Y-112672857D01*
X254642857Y-112815714D01*
X254690476Y-112910952D01*
X254738095Y-112958571D01*
X254833333Y-113006190D01*
X255214285Y-113006190D01*
X254309523Y-112482380D02*
X253690476Y-112482380D01*
X254023809Y-112863333D01*
X253880952Y-112863333D01*
X253785714Y-112910952D01*
X253738095Y-112958571D01*
X253690476Y-113053809D01*
X253690476Y-113291904D01*
X253738095Y-113387142D01*
X253785714Y-113434761D01*
X253880952Y-113482380D01*
X254166666Y-113482380D01*
X254261904Y-113434761D01*
X254309523Y-113387142D01*
X253357142Y-112482380D02*
X252738095Y-112482380D01*
X253071428Y-112863333D01*
X252928571Y-112863333D01*
X252833333Y-112910952D01*
X252785714Y-112958571D01*
X252738095Y-113053809D01*
X252738095Y-113291904D01*
X252785714Y-113387142D01*
X252833333Y-113434761D01*
X252928571Y-113482380D01*
X253214285Y-113482380D01*
X253309523Y-113434761D01*
X253357142Y-113387142D01*
X254642857Y-63952380D02*
X254976190Y-63476190D01*
X255214285Y-63952380D02*
X255214285Y-62952380D01*
X254833333Y-62952380D01*
X254738095Y-63000000D01*
X254690476Y-63047619D01*
X254642857Y-63142857D01*
X254642857Y-63285714D01*
X254690476Y-63380952D01*
X254738095Y-63428571D01*
X254833333Y-63476190D01*
X255214285Y-63476190D01*
X253690476Y-63952380D02*
X254261904Y-63952380D01*
X253976190Y-63952380D02*
X253976190Y-62952380D01*
X254071428Y-63095238D01*
X254166666Y-63190476D01*
X254261904Y-63238095D01*
X253214285Y-63952380D02*
X253023809Y-63952380D01*
X252928571Y-63904761D01*
X252880952Y-63857142D01*
X252785714Y-63714285D01*
X252738095Y-63523809D01*
X252738095Y-63142857D01*
X252785714Y-63047619D01*
X252833333Y-63000000D01*
X252928571Y-62952380D01*
X253119047Y-62952380D01*
X253214285Y-63000000D01*
X253261904Y-63047619D01*
X253309523Y-63142857D01*
X253309523Y-63380952D01*
X253261904Y-63476190D01*
X253214285Y-63523809D01*
X253119047Y-63571428D01*
X252928571Y-63571428D01*
X252833333Y-63523809D01*
X252785714Y-63476190D01*
X252738095Y-63380952D01*
X254642857Y-43632380D02*
X254976190Y-43156190D01*
X255214285Y-43632380D02*
X255214285Y-42632380D01*
X254833333Y-42632380D01*
X254738095Y-42680000D01*
X254690476Y-42727619D01*
X254642857Y-42822857D01*
X254642857Y-42965714D01*
X254690476Y-43060952D01*
X254738095Y-43108571D01*
X254833333Y-43156190D01*
X255214285Y-43156190D01*
X253690476Y-43632380D02*
X254261904Y-43632380D01*
X253976190Y-43632380D02*
X253976190Y-42632380D01*
X254071428Y-42775238D01*
X254166666Y-42870476D01*
X254261904Y-42918095D01*
X252738095Y-43632380D02*
X253309523Y-43632380D01*
X253023809Y-43632380D02*
X253023809Y-42632380D01*
X253119047Y-42775238D01*
X253214285Y-42870476D01*
X253309523Y-42918095D01*
X229242857Y-109037380D02*
X229576190Y-108561190D01*
X229814285Y-109037380D02*
X229814285Y-108037380D01*
X229433333Y-108037380D01*
X229338095Y-108085000D01*
X229290476Y-108132619D01*
X229242857Y-108227857D01*
X229242857Y-108370714D01*
X229290476Y-108465952D01*
X229338095Y-108513571D01*
X229433333Y-108561190D01*
X229814285Y-108561190D01*
X228385714Y-108370714D02*
X228385714Y-109037380D01*
X228623809Y-107989761D02*
X228861904Y-108704047D01*
X228242857Y-108704047D01*
X227385714Y-108037380D02*
X227861904Y-108037380D01*
X227909523Y-108513571D01*
X227861904Y-108465952D01*
X227766666Y-108418333D01*
X227528571Y-108418333D01*
X227433333Y-108465952D01*
X227385714Y-108513571D01*
X227338095Y-108608809D01*
X227338095Y-108846904D01*
X227385714Y-108942142D01*
X227433333Y-108989761D01*
X227528571Y-109037380D01*
X227766666Y-109037380D01*
X227861904Y-108989761D01*
X227909523Y-108942142D01*
X254166666Y-28392380D02*
X254500000Y-27916190D01*
X254738095Y-28392380D02*
X254738095Y-27392380D01*
X254357142Y-27392380D01*
X254261904Y-27440000D01*
X254214285Y-27487619D01*
X254166666Y-27582857D01*
X254166666Y-27725714D01*
X254214285Y-27820952D01*
X254261904Y-27868571D01*
X254357142Y-27916190D01*
X254738095Y-27916190D01*
X253595238Y-27820952D02*
X253690476Y-27773333D01*
X253738095Y-27725714D01*
X253785714Y-27630476D01*
X253785714Y-27582857D01*
X253738095Y-27487619D01*
X253690476Y-27440000D01*
X253595238Y-27392380D01*
X253404761Y-27392380D01*
X253309523Y-27440000D01*
X253261904Y-27487619D01*
X253214285Y-27582857D01*
X253214285Y-27630476D01*
X253261904Y-27725714D01*
X253309523Y-27773333D01*
X253404761Y-27820952D01*
X253595238Y-27820952D01*
X253690476Y-27868571D01*
X253738095Y-27916190D01*
X253785714Y-28011428D01*
X253785714Y-28201904D01*
X253738095Y-28297142D01*
X253690476Y-28344761D01*
X253595238Y-28392380D01*
X253404761Y-28392380D01*
X253309523Y-28344761D01*
X253261904Y-28297142D01*
X253214285Y-28201904D01*
X253214285Y-28011428D01*
X253261904Y-27916190D01*
X253309523Y-27868571D01*
X253404761Y-27820952D01*
X254166666Y-23312380D02*
X254500000Y-22836190D01*
X254738095Y-23312380D02*
X254738095Y-22312380D01*
X254357142Y-22312380D01*
X254261904Y-22360000D01*
X254214285Y-22407619D01*
X254166666Y-22502857D01*
X254166666Y-22645714D01*
X254214285Y-22740952D01*
X254261904Y-22788571D01*
X254357142Y-22836190D01*
X254738095Y-22836190D01*
X253309523Y-22312380D02*
X253500000Y-22312380D01*
X253595238Y-22360000D01*
X253642857Y-22407619D01*
X253738095Y-22550476D01*
X253785714Y-22740952D01*
X253785714Y-23121904D01*
X253738095Y-23217142D01*
X253690476Y-23264761D01*
X253595238Y-23312380D01*
X253404761Y-23312380D01*
X253309523Y-23264761D01*
X253261904Y-23217142D01*
X253214285Y-23121904D01*
X253214285Y-22883809D01*
X253261904Y-22788571D01*
X253309523Y-22740952D01*
X253404761Y-22693333D01*
X253595238Y-22693333D01*
X253690476Y-22740952D01*
X253738095Y-22788571D01*
X253785714Y-22883809D01*
X266866666Y-52522380D02*
X267200000Y-52046190D01*
X267438095Y-52522380D02*
X267438095Y-51522380D01*
X267057142Y-51522380D01*
X266961904Y-51570000D01*
X266914285Y-51617619D01*
X266866666Y-51712857D01*
X266866666Y-51855714D01*
X266914285Y-51950952D01*
X266961904Y-51998571D01*
X267057142Y-52046190D01*
X267438095Y-52046190D01*
X266485714Y-51617619D02*
X266438095Y-51570000D01*
X266342857Y-51522380D01*
X266104761Y-51522380D01*
X266009523Y-51570000D01*
X265961904Y-51617619D01*
X265914285Y-51712857D01*
X265914285Y-51808095D01*
X265961904Y-51950952D01*
X266533333Y-52522380D01*
X265914285Y-52522380D01*
X254642857Y-108402380D02*
X254976190Y-107926190D01*
X255214285Y-108402380D02*
X255214285Y-107402380D01*
X254833333Y-107402380D01*
X254738095Y-107450000D01*
X254690476Y-107497619D01*
X254642857Y-107592857D01*
X254642857Y-107735714D01*
X254690476Y-107830952D01*
X254738095Y-107878571D01*
X254833333Y-107926190D01*
X255214285Y-107926190D01*
X254309523Y-107402380D02*
X253690476Y-107402380D01*
X254023809Y-107783333D01*
X253880952Y-107783333D01*
X253785714Y-107830952D01*
X253738095Y-107878571D01*
X253690476Y-107973809D01*
X253690476Y-108211904D01*
X253738095Y-108307142D01*
X253785714Y-108354761D01*
X253880952Y-108402380D01*
X254166666Y-108402380D01*
X254261904Y-108354761D01*
X254309523Y-108307142D01*
X252738095Y-108402380D02*
X253309523Y-108402380D01*
X253023809Y-108402380D02*
X253023809Y-107402380D01*
X253119047Y-107545238D01*
X253214285Y-107640476D01*
X253309523Y-107688095D01*
X254642857Y-48712380D02*
X254976190Y-48236190D01*
X255214285Y-48712380D02*
X255214285Y-47712380D01*
X254833333Y-47712380D01*
X254738095Y-47760000D01*
X254690476Y-47807619D01*
X254642857Y-47902857D01*
X254642857Y-48045714D01*
X254690476Y-48140952D01*
X254738095Y-48188571D01*
X254833333Y-48236190D01*
X255214285Y-48236190D01*
X253690476Y-48712380D02*
X254261904Y-48712380D01*
X253976190Y-48712380D02*
X253976190Y-47712380D01*
X254071428Y-47855238D01*
X254166666Y-47950476D01*
X254261904Y-47998095D01*
X253357142Y-47712380D02*
X252738095Y-47712380D01*
X253071428Y-48093333D01*
X252928571Y-48093333D01*
X252833333Y-48140952D01*
X252785714Y-48188571D01*
X252738095Y-48283809D01*
X252738095Y-48521904D01*
X252785714Y-48617142D01*
X252833333Y-48664761D01*
X252928571Y-48712380D01*
X253214285Y-48712380D01*
X253309523Y-48664761D01*
X253357142Y-48617142D01*
X254166666Y-30932380D02*
X254500000Y-30456190D01*
X254738095Y-30932380D02*
X254738095Y-29932380D01*
X254357142Y-29932380D01*
X254261904Y-29980000D01*
X254214285Y-30027619D01*
X254166666Y-30122857D01*
X254166666Y-30265714D01*
X254214285Y-30360952D01*
X254261904Y-30408571D01*
X254357142Y-30456190D01*
X254738095Y-30456190D01*
X253690476Y-30932380D02*
X253500000Y-30932380D01*
X253404761Y-30884761D01*
X253357142Y-30837142D01*
X253261904Y-30694285D01*
X253214285Y-30503809D01*
X253214285Y-30122857D01*
X253261904Y-30027619D01*
X253309523Y-29980000D01*
X253404761Y-29932380D01*
X253595238Y-29932380D01*
X253690476Y-29980000D01*
X253738095Y-30027619D01*
X253785714Y-30122857D01*
X253785714Y-30360952D01*
X253738095Y-30456190D01*
X253690476Y-30503809D01*
X253595238Y-30551428D01*
X253404761Y-30551428D01*
X253309523Y-30503809D01*
X253261904Y-30456190D01*
X253214285Y-30360952D01*
X254642857Y-84907380D02*
X254976190Y-84431190D01*
X255214285Y-84907380D02*
X255214285Y-83907380D01*
X254833333Y-83907380D01*
X254738095Y-83955000D01*
X254690476Y-84002619D01*
X254642857Y-84097857D01*
X254642857Y-84240714D01*
X254690476Y-84335952D01*
X254738095Y-84383571D01*
X254833333Y-84431190D01*
X255214285Y-84431190D01*
X254261904Y-84002619D02*
X254214285Y-83955000D01*
X254119047Y-83907380D01*
X253880952Y-83907380D01*
X253785714Y-83955000D01*
X253738095Y-84002619D01*
X253690476Y-84097857D01*
X253690476Y-84193095D01*
X253738095Y-84335952D01*
X254309523Y-84907380D01*
X253690476Y-84907380D01*
X252833333Y-83907380D02*
X253023809Y-83907380D01*
X253119047Y-83955000D01*
X253166666Y-84002619D01*
X253261904Y-84145476D01*
X253309523Y-84335952D01*
X253309523Y-84716904D01*
X253261904Y-84812142D01*
X253214285Y-84859761D01*
X253119047Y-84907380D01*
X252928571Y-84907380D01*
X252833333Y-84859761D01*
X252785714Y-84812142D01*
X252738095Y-84716904D01*
X252738095Y-84478809D01*
X252785714Y-84383571D01*
X252833333Y-84335952D01*
X252928571Y-84288333D01*
X253119047Y-84288333D01*
X253214285Y-84335952D01*
X253261904Y-84383571D01*
X253309523Y-84478809D01*
X254785156Y-74676221D02*
X255118489Y-74200031D01*
X255356584Y-74676221D02*
X255356584Y-73676221D01*
X254975632Y-73676221D01*
X254880394Y-73723841D01*
X254832775Y-73771460D01*
X254785156Y-73866698D01*
X254785156Y-74009555D01*
X254832775Y-74104793D01*
X254880394Y-74152412D01*
X254975632Y-74200031D01*
X255356584Y-74200031D01*
X254404203Y-73771460D02*
X254356584Y-73723841D01*
X254261346Y-73676221D01*
X254023251Y-73676221D01*
X253928013Y-73723841D01*
X253880394Y-73771460D01*
X253832775Y-73866698D01*
X253832775Y-73961936D01*
X253880394Y-74104793D01*
X254451822Y-74676221D01*
X253832775Y-74676221D01*
X253451822Y-73771460D02*
X253404203Y-73723841D01*
X253308965Y-73676221D01*
X253070870Y-73676221D01*
X252975632Y-73723841D01*
X252928013Y-73771460D01*
X252880394Y-73866698D01*
X252880394Y-73961936D01*
X252928013Y-74104793D01*
X253499441Y-74676221D01*
X252880394Y-74676221D01*
X254642857Y-79827380D02*
X254976190Y-79351190D01*
X255214285Y-79827380D02*
X255214285Y-78827380D01*
X254833333Y-78827380D01*
X254738095Y-78875000D01*
X254690476Y-78922619D01*
X254642857Y-79017857D01*
X254642857Y-79160714D01*
X254690476Y-79255952D01*
X254738095Y-79303571D01*
X254833333Y-79351190D01*
X255214285Y-79351190D01*
X254261904Y-78922619D02*
X254214285Y-78875000D01*
X254119047Y-78827380D01*
X253880952Y-78827380D01*
X253785714Y-78875000D01*
X253738095Y-78922619D01*
X253690476Y-79017857D01*
X253690476Y-79113095D01*
X253738095Y-79255952D01*
X254309523Y-79827380D01*
X253690476Y-79827380D01*
X252833333Y-79160714D02*
X252833333Y-79827380D01*
X253071428Y-78779761D02*
X253309523Y-79494047D01*
X252690476Y-79494047D01*
X254642857Y-41092380D02*
X254976190Y-40616190D01*
X255214285Y-41092380D02*
X255214285Y-40092380D01*
X254833333Y-40092380D01*
X254738095Y-40140000D01*
X254690476Y-40187619D01*
X254642857Y-40282857D01*
X254642857Y-40425714D01*
X254690476Y-40520952D01*
X254738095Y-40568571D01*
X254833333Y-40616190D01*
X255214285Y-40616190D01*
X253690476Y-41092380D02*
X254261904Y-41092380D01*
X253976190Y-41092380D02*
X253976190Y-40092380D01*
X254071428Y-40235238D01*
X254166666Y-40330476D01*
X254261904Y-40378095D01*
X253071428Y-40092380D02*
X252976190Y-40092380D01*
X252880952Y-40140000D01*
X252833333Y-40187619D01*
X252785714Y-40282857D01*
X252738095Y-40473333D01*
X252738095Y-40711428D01*
X252785714Y-40901904D01*
X252833333Y-40997142D01*
X252880952Y-41044761D01*
X252976190Y-41092380D01*
X253071428Y-41092380D01*
X253166666Y-41044761D01*
X253214285Y-40997142D01*
X253261904Y-40901904D01*
X253309523Y-40711428D01*
X253309523Y-40473333D01*
X253261904Y-40282857D01*
X253214285Y-40187619D01*
X253166666Y-40140000D01*
X253071428Y-40092380D01*
X254642857Y-61412380D02*
X254976190Y-60936190D01*
X255214285Y-61412380D02*
X255214285Y-60412380D01*
X254833333Y-60412380D01*
X254738095Y-60460000D01*
X254690476Y-60507619D01*
X254642857Y-60602857D01*
X254642857Y-60745714D01*
X254690476Y-60840952D01*
X254738095Y-60888571D01*
X254833333Y-60936190D01*
X255214285Y-60936190D01*
X253690476Y-61412380D02*
X254261904Y-61412380D01*
X253976190Y-61412380D02*
X253976190Y-60412380D01*
X254071428Y-60555238D01*
X254166666Y-60650476D01*
X254261904Y-60698095D01*
X253119047Y-60840952D02*
X253214285Y-60793333D01*
X253261904Y-60745714D01*
X253309523Y-60650476D01*
X253309523Y-60602857D01*
X253261904Y-60507619D01*
X253214285Y-60460000D01*
X253119047Y-60412380D01*
X252928571Y-60412380D01*
X252833333Y-60460000D01*
X252785714Y-60507619D01*
X252738095Y-60602857D01*
X252738095Y-60650476D01*
X252785714Y-60745714D01*
X252833333Y-60793333D01*
X252928571Y-60840952D01*
X253119047Y-60840952D01*
X253214285Y-60888571D01*
X253261904Y-60936190D01*
X253309523Y-61031428D01*
X253309523Y-61221904D01*
X253261904Y-61317142D01*
X253214285Y-61364761D01*
X253119047Y-61412380D01*
X252928571Y-61412380D01*
X252833333Y-61364761D01*
X252785714Y-61317142D01*
X252738095Y-61221904D01*
X252738095Y-61031428D01*
X252785714Y-60936190D01*
X252833333Y-60888571D01*
X252928571Y-60840952D01*
X229242857Y-106497380D02*
X229576190Y-106021190D01*
X229814285Y-106497380D02*
X229814285Y-105497380D01*
X229433333Y-105497380D01*
X229338095Y-105545000D01*
X229290476Y-105592619D01*
X229242857Y-105687857D01*
X229242857Y-105830714D01*
X229290476Y-105925952D01*
X229338095Y-105973571D01*
X229433333Y-106021190D01*
X229814285Y-106021190D01*
X228385714Y-105830714D02*
X228385714Y-106497380D01*
X228623809Y-105449761D02*
X228861904Y-106164047D01*
X228242857Y-106164047D01*
X227433333Y-105830714D02*
X227433333Y-106497380D01*
X227671428Y-105449761D02*
X227909523Y-106164047D01*
X227290476Y-106164047D01*
X229242857Y-149677380D02*
X229576190Y-149201190D01*
X229814285Y-149677380D02*
X229814285Y-148677380D01*
X229433333Y-148677380D01*
X229338095Y-148725000D01*
X229290476Y-148772619D01*
X229242857Y-148867857D01*
X229242857Y-149010714D01*
X229290476Y-149105952D01*
X229338095Y-149153571D01*
X229433333Y-149201190D01*
X229814285Y-149201190D01*
X228385714Y-149010714D02*
X228385714Y-149677380D01*
X228623809Y-148629761D02*
X228861904Y-149344047D01*
X228242857Y-149344047D01*
X227957142Y-148677380D02*
X227290476Y-148677380D01*
X227719047Y-149677380D01*
X229242857Y-103957380D02*
X229576190Y-103481190D01*
X229814285Y-103957380D02*
X229814285Y-102957380D01*
X229433333Y-102957380D01*
X229338095Y-103005000D01*
X229290476Y-103052619D01*
X229242857Y-103147857D01*
X229242857Y-103290714D01*
X229290476Y-103385952D01*
X229338095Y-103433571D01*
X229433333Y-103481190D01*
X229814285Y-103481190D01*
X228385714Y-103290714D02*
X228385714Y-103957380D01*
X228623809Y-102909761D02*
X228861904Y-103624047D01*
X228242857Y-103624047D01*
X227957142Y-102957380D02*
X227338095Y-102957380D01*
X227671428Y-103338333D01*
X227528571Y-103338333D01*
X227433333Y-103385952D01*
X227385714Y-103433571D01*
X227338095Y-103528809D01*
X227338095Y-103766904D01*
X227385714Y-103862142D01*
X227433333Y-103909761D01*
X227528571Y-103957380D01*
X227814285Y-103957380D01*
X227909523Y-103909761D01*
X227957142Y-103862142D01*
X254642857Y-116022380D02*
X254976190Y-115546190D01*
X255214285Y-116022380D02*
X255214285Y-115022380D01*
X254833333Y-115022380D01*
X254738095Y-115070000D01*
X254690476Y-115117619D01*
X254642857Y-115212857D01*
X254642857Y-115355714D01*
X254690476Y-115450952D01*
X254738095Y-115498571D01*
X254833333Y-115546190D01*
X255214285Y-115546190D01*
X254309523Y-115022380D02*
X253690476Y-115022380D01*
X254023809Y-115403333D01*
X253880952Y-115403333D01*
X253785714Y-115450952D01*
X253738095Y-115498571D01*
X253690476Y-115593809D01*
X253690476Y-115831904D01*
X253738095Y-115927142D01*
X253785714Y-115974761D01*
X253880952Y-116022380D01*
X254166666Y-116022380D01*
X254261904Y-115974761D01*
X254309523Y-115927142D01*
X252833333Y-115355714D02*
X252833333Y-116022380D01*
X253071428Y-114974761D02*
X253309523Y-115689047D01*
X252690476Y-115689047D01*
X229242857Y-152217380D02*
X229576190Y-151741190D01*
X229814285Y-152217380D02*
X229814285Y-151217380D01*
X229433333Y-151217380D01*
X229338095Y-151265000D01*
X229290476Y-151312619D01*
X229242857Y-151407857D01*
X229242857Y-151550714D01*
X229290476Y-151645952D01*
X229338095Y-151693571D01*
X229433333Y-151741190D01*
X229814285Y-151741190D01*
X228385714Y-151550714D02*
X228385714Y-152217380D01*
X228623809Y-151169761D02*
X228861904Y-151884047D01*
X228242857Y-151884047D01*
X227719047Y-151645952D02*
X227814285Y-151598333D01*
X227861904Y-151550714D01*
X227909523Y-151455476D01*
X227909523Y-151407857D01*
X227861904Y-151312619D01*
X227814285Y-151265000D01*
X227719047Y-151217380D01*
X227528571Y-151217380D01*
X227433333Y-151265000D01*
X227385714Y-151312619D01*
X227338095Y-151407857D01*
X227338095Y-151455476D01*
X227385714Y-151550714D01*
X227433333Y-151598333D01*
X227528571Y-151645952D01*
X227719047Y-151645952D01*
X227814285Y-151693571D01*
X227861904Y-151741190D01*
X227909523Y-151836428D01*
X227909523Y-152026904D01*
X227861904Y-152122142D01*
X227814285Y-152169761D01*
X227719047Y-152217380D01*
X227528571Y-152217380D01*
X227433333Y-152169761D01*
X227385714Y-152122142D01*
X227338095Y-152026904D01*
X227338095Y-151836428D01*
X227385714Y-151741190D01*
X227433333Y-151693571D01*
X227528571Y-151645952D01*
X254642857Y-46172380D02*
X254976190Y-45696190D01*
X255214285Y-46172380D02*
X255214285Y-45172380D01*
X254833333Y-45172380D01*
X254738095Y-45220000D01*
X254690476Y-45267619D01*
X254642857Y-45362857D01*
X254642857Y-45505714D01*
X254690476Y-45600952D01*
X254738095Y-45648571D01*
X254833333Y-45696190D01*
X255214285Y-45696190D01*
X253690476Y-46172380D02*
X254261904Y-46172380D01*
X253976190Y-46172380D02*
X253976190Y-45172380D01*
X254071428Y-45315238D01*
X254166666Y-45410476D01*
X254261904Y-45458095D01*
X253309523Y-45267619D02*
X253261904Y-45220000D01*
X253166666Y-45172380D01*
X252928571Y-45172380D01*
X252833333Y-45220000D01*
X252785714Y-45267619D01*
X252738095Y-45362857D01*
X252738095Y-45458095D01*
X252785714Y-45600952D01*
X253357142Y-46172380D01*
X252738095Y-46172380D01*
X203961904Y-127087380D02*
X203961904Y-127896904D01*
X203914285Y-127992142D01*
X203866666Y-128039761D01*
X203771428Y-128087380D01*
X203580952Y-128087380D01*
X203485714Y-128039761D01*
X203438095Y-127992142D01*
X203390476Y-127896904D01*
X203390476Y-127087380D01*
X202390476Y-128087380D02*
X202961904Y-128087380D01*
X202676190Y-128087380D02*
X202676190Y-127087380D01*
X202771428Y-127230238D01*
X202866666Y-127325476D01*
X202961904Y-127373095D01*
X266866666Y-88717380D02*
X267200000Y-88241190D01*
X267438095Y-88717380D02*
X267438095Y-87717380D01*
X267057142Y-87717380D01*
X266961904Y-87765000D01*
X266914285Y-87812619D01*
X266866666Y-87907857D01*
X266866666Y-88050714D01*
X266914285Y-88145952D01*
X266961904Y-88193571D01*
X267057142Y-88241190D01*
X267438095Y-88241190D01*
X266533333Y-87717380D02*
X265914285Y-87717380D01*
X266247619Y-88098333D01*
X266104761Y-88098333D01*
X266009523Y-88145952D01*
X265961904Y-88193571D01*
X265914285Y-88288809D01*
X265914285Y-88526904D01*
X265961904Y-88622142D01*
X266009523Y-88669761D01*
X266104761Y-88717380D01*
X266390476Y-88717380D01*
X266485714Y-88669761D01*
X266533333Y-88622142D01*
X254642857Y-72207380D02*
X254976190Y-71731190D01*
X255214285Y-72207380D02*
X255214285Y-71207380D01*
X254833333Y-71207380D01*
X254738095Y-71255000D01*
X254690476Y-71302619D01*
X254642857Y-71397857D01*
X254642857Y-71540714D01*
X254690476Y-71635952D01*
X254738095Y-71683571D01*
X254833333Y-71731190D01*
X255214285Y-71731190D01*
X254261904Y-71302619D02*
X254214285Y-71255000D01*
X254119047Y-71207380D01*
X253880952Y-71207380D01*
X253785714Y-71255000D01*
X253738095Y-71302619D01*
X253690476Y-71397857D01*
X253690476Y-71493095D01*
X253738095Y-71635952D01*
X254309523Y-72207380D01*
X253690476Y-72207380D01*
X252738095Y-72207380D02*
X253309523Y-72207380D01*
X253023809Y-72207380D02*
X253023809Y-71207380D01*
X253119047Y-71350238D01*
X253214285Y-71445476D01*
X253309523Y-71493095D01*
X229361904Y-78827380D02*
X229361904Y-79636904D01*
X229314285Y-79732142D01*
X229266666Y-79779761D01*
X229171428Y-79827380D01*
X228980952Y-79827380D01*
X228885714Y-79779761D01*
X228838095Y-79732142D01*
X228790476Y-79636904D01*
X228790476Y-78827380D01*
X228361904Y-78922619D02*
X228314285Y-78875000D01*
X228219047Y-78827380D01*
X227980952Y-78827380D01*
X227885714Y-78875000D01*
X227838095Y-78922619D01*
X227790476Y-79017857D01*
X227790476Y-79113095D01*
X227838095Y-79255952D01*
X228409523Y-79827380D01*
X227790476Y-79827380D01*
X254642857Y-110942380D02*
X254976190Y-110466190D01*
X255214285Y-110942380D02*
X255214285Y-109942380D01*
X254833333Y-109942380D01*
X254738095Y-109990000D01*
X254690476Y-110037619D01*
X254642857Y-110132857D01*
X254642857Y-110275714D01*
X254690476Y-110370952D01*
X254738095Y-110418571D01*
X254833333Y-110466190D01*
X255214285Y-110466190D01*
X254309523Y-109942380D02*
X253690476Y-109942380D01*
X254023809Y-110323333D01*
X253880952Y-110323333D01*
X253785714Y-110370952D01*
X253738095Y-110418571D01*
X253690476Y-110513809D01*
X253690476Y-110751904D01*
X253738095Y-110847142D01*
X253785714Y-110894761D01*
X253880952Y-110942380D01*
X254166666Y-110942380D01*
X254261904Y-110894761D01*
X254309523Y-110847142D01*
X253309523Y-110037619D02*
X253261904Y-109990000D01*
X253166666Y-109942380D01*
X252928571Y-109942380D01*
X252833333Y-109990000D01*
X252785714Y-110037619D01*
X252738095Y-110132857D01*
X252738095Y-110228095D01*
X252785714Y-110370952D01*
X253357142Y-110942380D01*
X252738095Y-110942380D01*
X229361904Y-52792380D02*
X229361904Y-53601904D01*
X229314285Y-53697142D01*
X229266666Y-53744761D01*
X229171428Y-53792380D01*
X228980952Y-53792380D01*
X228885714Y-53744761D01*
X228838095Y-53697142D01*
X228790476Y-53601904D01*
X228790476Y-52792380D01*
X228409523Y-52792380D02*
X227790476Y-52792380D01*
X228123809Y-53173333D01*
X227980952Y-53173333D01*
X227885714Y-53220952D01*
X227838095Y-53268571D01*
X227790476Y-53363809D01*
X227790476Y-53601904D01*
X227838095Y-53697142D01*
X227885714Y-53744761D01*
X227980952Y-53792380D01*
X228266666Y-53792380D01*
X228361904Y-53744761D01*
X228409523Y-53697142D01*
X203961904Y-66762380D02*
X203961904Y-67571904D01*
X203914285Y-67667142D01*
X203866666Y-67714761D01*
X203771428Y-67762380D01*
X203580952Y-67762380D01*
X203485714Y-67714761D01*
X203438095Y-67667142D01*
X203390476Y-67571904D01*
X203390476Y-66762380D01*
X202485714Y-67095714D02*
X202485714Y-67762380D01*
X202723809Y-66714761D02*
X202961904Y-67429047D01*
X202342857Y-67429047D01*
X254642857Y-82367380D02*
X254976190Y-81891190D01*
X255214285Y-82367380D02*
X255214285Y-81367380D01*
X254833333Y-81367380D01*
X254738095Y-81415000D01*
X254690476Y-81462619D01*
X254642857Y-81557857D01*
X254642857Y-81700714D01*
X254690476Y-81795952D01*
X254738095Y-81843571D01*
X254833333Y-81891190D01*
X255214285Y-81891190D01*
X254261904Y-81462619D02*
X254214285Y-81415000D01*
X254119047Y-81367380D01*
X253880952Y-81367380D01*
X253785714Y-81415000D01*
X253738095Y-81462619D01*
X253690476Y-81557857D01*
X253690476Y-81653095D01*
X253738095Y-81795952D01*
X254309523Y-82367380D01*
X253690476Y-82367380D01*
X252785714Y-81367380D02*
X253261904Y-81367380D01*
X253309523Y-81843571D01*
X253261904Y-81795952D01*
X253166666Y-81748333D01*
X252928571Y-81748333D01*
X252833333Y-81795952D01*
X252785714Y-81843571D01*
X252738095Y-81938809D01*
X252738095Y-82176904D01*
X252785714Y-82272142D01*
X252833333Y-82319761D01*
X252928571Y-82367380D01*
X253166666Y-82367380D01*
X253261904Y-82319761D01*
X253309523Y-82272142D01*
M02*
