M48
; DRILL file {KiCad (5.1.2)-2} date 9/8/2019 10:53:59 PM
; FORMAT={-:-/ absolute / inch / decimal}
; #@! TF.CreationDate,2019-09-08T22:53:59+02:00
; #@! TF.GenerationSoftware,Kicad,Pcbnew,(5.1.2)-2
; #@! TF.FileFunction,NonPlated,1,2,NPTH
FMAT,2
INCH
T1C0.0787
%
G90
G05
T1
X8.326Y-0.8568
X8.6725Y-0.8568
X8.3268Y-4.6053
X8.6733Y-4.6053
X7.3267Y-4.6055
X7.6732Y-4.6055
X10.3268Y-6.1052
X10.6733Y-6.1052
X9.3268Y-4.6054
X9.6733Y-4.6054
X8.3268Y-6.1052
X8.6733Y-6.1052
X8.3268Y-5.3554
X8.6733Y-5.3554
X7.3267Y-6.1053
X7.6732Y-6.1053
X7.326Y-0.8567
X7.6725Y-0.8567
X9.3269Y-5.3553
X9.6734Y-5.3553
X7.3268Y-5.3554
X7.6733Y-5.3554
X9.326Y-0.8569
X9.6725Y-0.8569
X9.3268Y-6.1054
X9.6733Y-6.1054
X10.3268Y-4.6052
X10.6733Y-4.6052
T0
M30
