M48
; DRILL file {KiCad (5.1.2)-2} date 9/8/2019 10:53:59 PM
; FORMAT={-:-/ absolute / inch / decimal}
; #@! TF.CreationDate,2019-09-08T22:53:59+02:00
; #@! TF.GenerationSoftware,Kicad,Pcbnew,(5.1.2)-2
; #@! TF.FileFunction,Plated,1,2,PTH
FMAT,2
INCH
T1C0.0157
T2C0.0276
T3C0.0295
T4C0.0300
T5C0.0315
T6C0.0354
T7C0.0394
T8C0.1875
%
G90
G05
T1
X7.175Y-4.85
X7.27Y-1.03
X7.35Y-5.575
X7.4Y-2.8
X7.4015Y-1.1703
X7.43Y-4.82
X7.5191Y-5.3191
X7.6Y-4.8
X7.64Y-5.55
X7.675Y-3.575
X7.7041Y-3.2291
X7.725Y-5.075
X7.76Y-4.45
X7.775Y-5.025
X7.79Y-2.23
X7.8164Y-5.775
X7.8675Y-5.41
X7.875Y-3.2586
X7.875Y-4.55
X7.875Y-5.55
X7.8836Y-5.775
X7.9Y-4.225
X7.925Y-4.075
X7.96Y-2.96
X7.97Y-2.08
X7.975Y-5.275
X7.99Y-0.94
X8.0Y-1.85
X8.0Y-2.25
X8.0Y-4.675
X8.01Y-2.48
X8.02Y-3.06
X8.025Y-5.125
X8.025Y-5.625
X8.025Y-5.775
X8.04Y-2.65
X8.05Y-2.025
X8.05Y-4.525
X8.05Y-4.875
X8.0586Y-5.175
X8.075Y-2.1429
X8.1Y-4.45
X8.1Y-5.6
X8.125Y-3.225
X8.14Y-2.26
X8.15Y-4.6
X8.175Y-5.45
X8.2Y-1.225
X8.2Y-5.6
X8.225Y-5.825
X8.23Y-3.33
X8.2363Y-3.2137
X8.25Y-1.35
X8.26Y-2.13
X8.2816Y-4.9566
X8.29Y-1.56
X8.3Y-1.35
X8.3Y-2.35
X8.32Y-2.85
X8.32Y-3.55
X8.32Y-4.77
X8.325Y-5.2
X8.325Y-5.825
X8.3466Y-2.1216
X8.35Y-2.225
X8.35Y-5.525
X8.35Y-5.875
X8.37Y-1.04
X8.375Y-2.025
X8.4Y-2.5657
X8.425Y-5.55
X8.4441Y-2.1191
X8.45Y-4.45
X8.4855Y-5.6645
X8.5Y-2.7
X8.525Y-4.55
X8.525Y-4.975
X8.55Y-5.25
X8.5586Y-4.475
X8.575Y-2.15
X8.575Y-5.525
X8.59Y-4.52
X8.6Y-5.73
X8.625Y-2.575
X8.63Y-2.27
X8.64Y-4.02
X8.65Y-3.475
X8.675Y-1.45
X8.675Y-2.025
X8.675Y-2.475
X8.675Y-2.8
X8.675Y-2.925
X8.675Y-3.35
X8.69Y-0.71
X8.7Y-1.36
X8.7Y-1.925
X8.7Y-2.72
X8.7Y-3.6
X8.7Y-5.675
X8.725Y-1.175
X8.725Y-2.99
X8.725Y-3.075
X8.725Y-4.725
X8.7277Y-1.5027
X8.75Y-1.65
X8.75Y-2.4
X8.75Y-3.125
X8.75Y-4.475
X8.775Y-2.6
X8.775Y-2.9
X8.775Y-5.425
X8.78Y-3.52
X8.79Y-1.3475
X8.8Y-2.475
X8.8Y-2.8
X8.8Y-4.35
X8.8Y-4.425
X8.8719Y-4.5531
X8.875Y-3.475
X8.875Y-4.5086
X8.9Y-3.375
X8.9Y-3.65
X8.9Y-5.55
X8.9Y-5.825
X8.92Y-1.51
X8.925Y-1.6891
X8.925Y-6.0
X8.9466Y-5.4784
X8.95Y-1.25
X8.95Y-2.05
X8.95Y-3.5
X8.95Y-4.975
X8.95Y-5.375
X8.975Y-1.625
X8.975Y-1.8
X8.975Y-2.4
X8.975Y-3.05
X9.0Y-2.29
X9.0Y-3.7
X9.0Y-4.525
X9.0Y-4.95
X9.0Y-5.05
X9.0Y-5.25
X9.0Y-5.575
X9.025Y-3.55
X9.025Y-4.3
X9.03Y-3.2
X9.05Y-1.8
X9.05Y-1.9
X9.05Y-3.7
X9.06Y-5.05
X9.07Y-2.75
X9.075Y-5.75
X9.1Y-4.025
X9.125Y-3.35
X9.125Y-3.75
X9.13Y-4.51
X9.2Y-1.65
X9.2Y-3.6
X9.225Y-2.95
X9.225Y-3.4
X9.27Y-1.22
X9.275Y-1.95
X9.275Y-2.05
X9.275Y-2.65
X9.275Y-3.325
X9.275Y-4.025
X9.275Y-4.8
X9.28Y-4.41
X9.2987Y-2.9763
X9.3Y-1.5
X9.3Y-3.2
X9.325Y-2.4
X9.325Y-4.2
X9.35Y-2.825
X9.35Y-4.75
X9.35Y-4.925
X9.375Y-4.125
X9.4Y-1.25
X9.4Y-1.9
X9.4Y-3.55
X9.4Y-4.475
X9.4Y-4.75
X9.44Y-4.92
X9.45Y-2.175
X9.4722Y-2.0914
X9.475Y-1.925
X9.5Y-2.0
X9.5Y-2.125
X9.5025Y-1.28
X9.55Y-2.175
X9.575Y-2.525
X9.575Y-3.375
X9.575Y-4.4
X9.6Y-1.35
X9.6Y-1.9
X9.6Y-2.775
X9.6Y-4.74
X9.6Y-4.9
X9.625Y-2.125
X9.625Y-2.225
X9.6308Y-1.9635
X9.6441Y-5.1941
X9.6586Y-1.9914
X9.69Y-2.41
X9.7Y-1.7
X9.7Y-1.9
X9.7Y-2.525
X9.7Y-2.95
X9.7Y-4.23
X9.725Y-1.3
X9.725Y-2.025
X9.7362Y-4.925
X9.7431Y-2.625
X9.75Y-2.2
X9.775Y-1.475
X9.775Y-2.05
X9.79Y-2.44
X9.8Y-2.15
X9.83Y-2.57
X9.91Y-3.07
X9.925Y-1.05
X9.925Y-1.4
X9.975Y-4.775
X10.025Y-2.625
X10.025Y-3.825
X10.025Y-4.925
X10.05Y-2.05
X10.05Y-3.0
X10.05Y-4.075
X10.075Y-2.575
X10.075Y-3.475
X10.075Y-3.625
X10.075Y-4.3
X10.1Y-2.875
X10.1Y-4.1
X10.15Y-2.65
X10.15Y-3.75
X10.2Y-4.0
X10.2Y-4.05
X10.25Y-2.575
X10.25Y-3.525
X10.25Y-3.825
X10.25Y-4.35
X10.275Y-2.3
X10.275Y-3.325
X10.275Y-4.1
X10.275Y-5.4
X10.3Y-2.9
X10.3049Y-1.3951
X10.425Y-1.45
X10.425Y-4.175
X10.575Y-5.15
X10.625Y-5.55
X10.75Y-3.725
X10.75Y-5.225
X10.8Y-0.67
X10.825Y-5.5
T2
X8.85Y-6.075
X9.15Y-6.075
X9.85Y-2.1
X10.15Y-2.1
X10.35Y-2.05
X10.65Y-2.05
X7.85Y-5.925
X8.15Y-5.925
X9.85Y-4.45
X10.15Y-4.45
X9.85Y-3.625
X10.15Y-3.625
X7.85Y-4.075
X8.15Y-4.075
X7.85Y-4.175
X8.15Y-4.175
X10.35Y-5.0
X10.65Y-5.0
X9.85Y-1.0
X10.15Y-1.0
X8.85Y-4.175
X9.15Y-4.175
X8.85Y-0.7
X9.15Y-0.7
X9.85Y-1.7
X10.15Y-1.7
X8.85Y-1.2
X9.15Y-1.2
X10.35Y-3.475
X10.65Y-3.475
X9.85Y-4.25
X10.15Y-4.25
X8.85Y-4.275
X9.15Y-4.275
X8.85Y-3.975
X9.15Y-3.975
X10.35Y-4.9
X10.65Y-4.9
X9.85Y-1.8
X10.15Y-1.8
X9.85Y-2.5
X10.15Y-2.5
X7.85Y-5.725
X8.15Y-5.725
X9.85Y-3.325
X10.15Y-3.325
X9.85Y-3.025
X10.15Y-3.025
X8.85Y-1.1
X9.15Y-1.1
X9.85Y-3.125
X10.15Y-3.125
X7.85Y-4.375
X8.15Y-4.375
X9.85Y-2.4
X10.15Y-2.4
X8.85Y-5.775
X9.15Y-5.775
X9.85Y-3.225
X10.15Y-3.225
X9.85Y-2.2
X10.15Y-2.2
X8.85Y-1.5
X9.15Y-1.5
X9.85Y-4.35
X10.15Y-4.35
X9.85Y-1.6
X10.15Y-1.6
X8.85Y-0.6
X9.15Y-0.6
X9.85Y-2.0
X10.15Y-2.0
X8.85Y-5.875
X9.15Y-5.875
X9.85Y-1.1
X10.15Y-1.1
X8.85Y-5.975
X9.15Y-5.975
X9.85Y-1.9
X10.15Y-1.9
X7.85Y-6.025
X8.15Y-6.025
X9.85Y-1.2
X10.15Y-1.2
X9.85Y-2.3
X10.15Y-2.3
X9.85Y-2.925
X10.15Y-2.925
X9.85Y-3.525
X10.15Y-3.525
X7.85Y-5.83
X8.15Y-5.83
X7.85Y-4.275
X8.15Y-4.275
X8.85Y-1.3
X9.15Y-1.3
X9.85Y-4.55
X10.15Y-4.55
X9.85Y-3.425
X10.15Y-3.425
X8.85Y-1.4
X9.15Y-1.4
X10.35Y-1.95
X10.65Y-1.95
X8.85Y-4.075
X9.15Y-4.075
X9.85Y-2.725
X10.15Y-2.725
X9.85Y-2.825
X10.15Y-2.825
X9.85Y-4.15
X10.15Y-4.15
X9.85Y-0.9
X10.15Y-0.9
T3
X10.125Y-5.525
X10.125Y-5.575
X10.125Y-5.625
X9.875Y-5.525
X9.875Y-5.575
X9.875Y-5.625
X10.45Y-5.675
X10.5Y-5.675
X10.55Y-5.675
T4
X9.5Y-4.045
X9.5Y-1.795
X8.5Y-2.545
X10.5Y-2.545
X9.5Y-2.545
X7.5Y-3.295
X8.5Y-4.045
X10.5Y-1.045
X9.5Y-3.295
X7.5Y-4.045
X10.5Y-4.045
X8.5Y-1.795
X8.5Y-3.295
X10.5Y-1.795
X7.5Y-2.545
X7.5Y-1.795
X10.5Y-3.295
T5
X8.9Y-0.975
X9.0969Y-0.975
X8.9Y-2.575
X9.0969Y-2.575
X7.9031Y-3.125
X8.1Y-3.125
X9.825Y-5.275
X9.9234Y-5.275
X7.85Y-2.35
X7.85Y-2.45
X7.85Y-2.55
X7.85Y-2.65
X7.85Y-2.75
X7.85Y-2.85
X7.85Y-2.95
X8.15Y-2.35
X8.15Y-2.45
X8.15Y-2.55
X8.15Y-2.65
X8.15Y-2.75
X8.15Y-2.85
X8.15Y-2.95
X9.9Y-5.0
X10.0969Y-5.0
X9.9Y-0.775
X10.0969Y-0.775
X7.85Y-4.725
X7.85Y-4.825
X7.85Y-4.925
X7.85Y-5.025
X7.85Y-5.125
X7.85Y-5.225
X7.85Y-5.325
X8.15Y-4.725
X8.15Y-4.825
X8.15Y-4.925
X8.15Y-5.025
X8.15Y-5.125
X8.15Y-5.225
X8.15Y-5.325
X10.1Y-5.275
X10.1984Y-5.275
X9.9Y-1.325
X10.0969Y-1.325
X10.875Y-5.7531
X10.875Y-5.95
X10.075Y-5.825
X10.1734Y-5.825
X8.9Y-3.85
X9.0969Y-3.85
X8.9031Y-4.4
X9.1Y-4.4
X8.85Y-2.975
X8.85Y-3.075
X8.85Y-3.175
X8.85Y-3.275
X9.15Y-2.975
X9.15Y-3.075
X9.15Y-3.175
X9.15Y-3.275
X9.9031Y-1.475
X10.1Y-1.475
X7.9031Y-0.625
X8.1Y-0.625
X8.85Y-4.65
X8.85Y-4.75
X8.85Y-4.85
X8.85Y-4.95
X8.85Y-5.05
X8.85Y-5.15
X8.85Y-5.25
X8.85Y-5.35
X9.15Y-4.65
X9.15Y-4.75
X9.15Y-4.85
X9.15Y-4.95
X9.15Y-5.05
X9.15Y-5.15
X9.15Y-5.25
X9.15Y-5.35
X8.9Y-5.65
X9.0969Y-5.65
X7.85Y-0.775
X7.85Y-0.875
X7.85Y-0.975
X7.85Y-1.075
X8.15Y-0.775
X8.15Y-0.875
X8.15Y-0.975
X8.15Y-1.075
X8.85Y-1.8
X8.85Y-1.9
X8.85Y-2.0
X8.85Y-2.1
X8.85Y-2.2
X8.85Y-2.3
X8.85Y-2.4
X9.15Y-1.8
X9.15Y-1.9
X9.15Y-2.0
X9.15Y-2.1
X9.15Y-2.2
X9.15Y-2.3
X9.15Y-2.4
X7.85Y-1.425
X7.85Y-1.525
X7.85Y-1.625
X7.85Y-1.725
X7.85Y-1.825
X7.85Y-1.925
X7.85Y-2.025
X7.85Y-2.125
X8.15Y-1.425
X8.15Y-1.525
X8.15Y-1.625
X8.15Y-1.725
X8.15Y-1.825
X8.15Y-1.925
X8.15Y-2.025
X8.15Y-2.125
X8.9031Y-6.2
X9.1Y-6.2
X10.4031Y-2.75
X10.6Y-2.75
X8.9031Y-0.825
X9.1Y-0.825
X10.35Y-5.25
X10.35Y-5.4469
X9.825Y-5.825
X9.9234Y-5.825
X10.4031Y-6.425
X10.6Y-6.425
T6
X7.85Y-3.8
X8.15Y-3.8
X9.85Y-4.825
X10.15Y-4.825
X7.85Y-6.15
X8.15Y-6.15
X7.85Y-3.95
X8.15Y-3.95
X9.85Y-4.675
X10.15Y-4.675
X7.85Y-6.3
X8.15Y-6.3
T7
X7.4015Y-5.8297
X7.4999Y-5.8297
X7.5984Y-5.8297
X7.4008Y-0.5811
X7.4992Y-0.5811
X7.5977Y-0.5811
X9.4017Y-5.0797
X9.5001Y-5.0797
X9.5986Y-5.0797
X7.4016Y-5.0798
X7.5Y-5.0798
X7.5985Y-5.0798
X9.4008Y-0.5813
X9.4992Y-0.5813
X9.5977Y-0.5813
X8.4008Y-0.5812
X8.4992Y-0.5812
X8.5977Y-0.5812
X9.4016Y-5.8298
X9.5Y-5.8298
X9.5985Y-5.8298
X10.4016Y-4.3296
X10.5Y-4.3296
X10.5985Y-4.3296
X10.0Y-6.075
X10.0Y-6.175
X10.0Y-6.275
X10.0Y-6.375
X8.4016Y-4.3297
X8.5Y-4.3297
X8.5985Y-4.3297
X10.5Y-5.275
X10.5Y-5.375
X10.5Y-5.475
X7.4015Y-4.3299
X7.4999Y-4.3299
X7.5984Y-4.3299
X10.4016Y-5.8296
X10.5Y-5.8296
X10.5985Y-5.8296
X9.4016Y-4.3298
X9.5Y-4.3298
X9.5985Y-4.3298
X8.4016Y-5.8296
X8.5Y-5.8296
X8.5985Y-5.8296
X8.4016Y-5.0798
X8.5Y-5.0798
X8.5985Y-5.0798
T8
X8.5Y-3.875
X10.5Y-0.875
X9.5Y-3.125
X7.5Y-3.875
X10.5Y-3.875
X8.5Y-1.625
X8.5Y-3.125
X10.5Y-1.625
X7.5Y-2.375
X7.5Y-1.625
X10.5Y-3.125
X9.5Y-3.875
X9.5Y-1.625
X8.5Y-2.375
X10.5Y-2.375
X9.5Y-2.375
X7.5Y-3.125
T0
M30
