G04 #@! TF.GenerationSoftware,KiCad,Pcbnew,(5.1.2)-2*
G04 #@! TF.CreationDate,2019-08-06T21:53:37+02:00*
G04 #@! TF.ProjectId,Benjolin_Panel,42656e6a-6f6c-4696-9e5f-50616e656c2e,rev?*
G04 #@! TF.SameCoordinates,Original*
G04 #@! TF.FileFunction,Profile,NP*
%FSLAX46Y46*%
G04 Gerber Fmt 4.6, Leading zero omitted, Abs format (unit mm)*
G04 Created by KiCad (PCBNEW (5.1.2)-2) date 2019-08-06 21:53:37*
%MOMM*%
%LPD*%
G04 APERTURE LIST*
%ADD10C,0.150000*%
%ADD11C,0.025400*%
G04 APERTURE END LIST*
D10*
X173990000Y-190500000D02*
X68580000Y-190500000D01*
X173990000Y-12700000D02*
G75*
G02X175260000Y-13970000I0J-1270000D01*
G01*
X68580000Y-12700000D02*
X173990000Y-12700000D01*
X67310000Y-189230000D02*
X67310000Y-13970000D01*
X68580000Y-190500000D02*
G75*
G02X67310000Y-189230000I0J1270000D01*
G01*
X175260000Y-189230000D02*
G75*
G02X173990000Y-190500000I-1270000J0D01*
G01*
X67310000Y-13970000D02*
G75*
G02X68580000Y-12700000I1270000J0D01*
G01*
X175260000Y-13970000D02*
X175260000Y-189230000D01*
X112085000Y-147637500D02*
G75*
G03X112085000Y-147637500I-3500000J0D01*
G01*
X137485000Y-128587500D02*
G75*
G03X137485000Y-128587500I-3500000J0D01*
G01*
X86685000Y-128587500D02*
G75*
G03X86685000Y-128587500I-3500000J0D01*
G01*
X137485000Y-166687500D02*
G75*
G03X137485000Y-166687500I-3500000J0D01*
G01*
X162885000Y-128587500D02*
G75*
G03X162885000Y-128587500I-3500000J0D01*
G01*
X167735000Y-19050000D02*
G75*
G03X167735000Y-19050000I-2000000J0D01*
G01*
X137485000Y-147637500D02*
G75*
G03X137485000Y-147637500I-3500000J0D01*
G01*
X78835000Y-184150000D02*
G75*
G03X78835000Y-184150000I-2000000J0D01*
G01*
X112085000Y-128587500D02*
G75*
G03X112085000Y-128587500I-3500000J0D01*
G01*
X137485000Y-33337500D02*
G75*
G03X137485000Y-33337500I-3500000J0D01*
G01*
X112085000Y-166687500D02*
G75*
G03X112085000Y-166687500I-3500000J0D01*
G01*
X112077500Y-33337500D02*
G75*
G03X112077500Y-33337500I-3500000J0D01*
G01*
X86685000Y-147637500D02*
G75*
G03X86685000Y-147637500I-3500000J0D01*
G01*
X167735000Y-184150000D02*
G75*
G03X167735000Y-184150000I-2000000J0D01*
G01*
X162885000Y-166687500D02*
G75*
G03X162885000Y-166687500I-3500000J0D01*
G01*
X86685000Y-166687500D02*
G75*
G03X86685000Y-166687500I-3500000J0D01*
G01*
X86685000Y-33337500D02*
G75*
G03X86685000Y-33337500I-3500000J0D01*
G01*
X78835000Y-19050000D02*
G75*
G03X78835000Y-19050000I-2000000J0D01*
G01*
X162385000Y-147645000D02*
G75*
G03X162385000Y-147645000I-3000000J0D01*
G01*
D11*
X162559573Y-55118495D02*
G75*
G02X156210001Y-55117999I-3174573J2730995D01*
G01*
X156210427Y-49656505D02*
G75*
G02X162559999Y-49657001I3174573J-2730995D01*
G01*
X156210000Y-49657000D02*
X156210000Y-55118000D01*
X162559999Y-49657001D02*
X162560000Y-55118000D01*
X137159999Y-87757001D02*
X137160000Y-93218000D01*
X130810000Y-87757000D02*
X130810000Y-93218000D01*
X130810427Y-87756505D02*
G75*
G02X137159999Y-87757001I3174573J-2730995D01*
G01*
X137159573Y-93218495D02*
G75*
G02X130810001Y-93217999I-3174573J2730995D01*
G01*
X111759999Y-106807001D02*
X111760000Y-112268000D01*
X105410000Y-106807000D02*
X105410000Y-112268000D01*
X105410427Y-106806505D02*
G75*
G02X111759999Y-106807001I3174573J-2730995D01*
G01*
X111759573Y-112268495D02*
G75*
G02X105410001Y-112267999I-3174573J2730995D01*
G01*
X86359573Y-74168495D02*
G75*
G02X80010001Y-74167999I-3174573J2730995D01*
G01*
X80010427Y-68706505D02*
G75*
G02X86359999Y-68707001I3174573J-2730995D01*
G01*
X80010000Y-68707000D02*
X80010000Y-74168000D01*
X86359999Y-68707001D02*
X86360000Y-74168000D01*
X86359999Y-87757001D02*
X86360000Y-93218000D01*
X80010000Y-87757000D02*
X80010000Y-93218000D01*
X80010427Y-87756505D02*
G75*
G02X86359999Y-87757001I3174573J-2730995D01*
G01*
X86359573Y-93218495D02*
G75*
G02X80010001Y-93217999I-3174573J2730995D01*
G01*
X137159573Y-112268495D02*
G75*
G02X130810001Y-112267999I-3174573J2730995D01*
G01*
X130810427Y-106806505D02*
G75*
G02X137159999Y-106807001I3174573J-2730995D01*
G01*
X130810000Y-106807000D02*
X130810000Y-112268000D01*
X137159999Y-106807001D02*
X137160000Y-112268000D01*
X162559573Y-93218495D02*
G75*
G02X156210001Y-93217999I-3174573J2730995D01*
G01*
X156210427Y-87756505D02*
G75*
G02X162559999Y-87757001I3174573J-2730995D01*
G01*
X156210000Y-87757000D02*
X156210000Y-93218000D01*
X162559999Y-87757001D02*
X162560000Y-93218000D01*
X162559999Y-106807001D02*
X162560000Y-112268000D01*
X156210000Y-106807000D02*
X156210000Y-112268000D01*
X156210427Y-106806505D02*
G75*
G02X162559999Y-106807001I3174573J-2730995D01*
G01*
X162559573Y-112268495D02*
G75*
G02X156210001Y-112267999I-3174573J2730995D01*
G01*
X86359573Y-112268495D02*
G75*
G02X80010001Y-112267999I-3174573J2730995D01*
G01*
X80010427Y-106806505D02*
G75*
G02X86359999Y-106807001I3174573J-2730995D01*
G01*
X80010000Y-106807000D02*
X80010000Y-112268000D01*
X86359999Y-106807001D02*
X86360000Y-112268000D01*
X162559999Y-30607001D02*
X162560000Y-36068000D01*
X156210000Y-30607000D02*
X156210000Y-36068000D01*
X156210427Y-30606505D02*
G75*
G02X162559999Y-30607001I3174573J-2730995D01*
G01*
X162559573Y-36068495D02*
G75*
G02X156210001Y-36067999I-3174573J2730995D01*
G01*
X162559999Y-68707001D02*
X162560000Y-74168000D01*
X156210000Y-68707000D02*
X156210000Y-74168000D01*
X156210427Y-68706505D02*
G75*
G02X162559999Y-68707001I3174573J-2730995D01*
G01*
X162559573Y-74168495D02*
G75*
G02X156210001Y-74167999I-3174573J2730995D01*
G01*
X111759573Y-93218495D02*
G75*
G02X105410001Y-93217999I-3174573J2730995D01*
G01*
X105410427Y-87756505D02*
G75*
G02X111759999Y-87757001I3174573J-2730995D01*
G01*
X105410000Y-87757000D02*
X105410000Y-93218000D01*
X111759999Y-87757001D02*
X111760000Y-93218000D01*
X137159573Y-74168495D02*
G75*
G02X130810001Y-74167999I-3174573J2730995D01*
G01*
X130810427Y-68706505D02*
G75*
G02X137159999Y-68707001I3174573J-2730995D01*
G01*
X130810000Y-68707000D02*
X130810000Y-74168000D01*
X137159999Y-68707001D02*
X137160000Y-74168000D01*
X86359999Y-49657001D02*
X86360000Y-55118000D01*
X80010000Y-49657000D02*
X80010000Y-55118000D01*
X80010427Y-49656505D02*
G75*
G02X86359999Y-49657001I3174573J-2730995D01*
G01*
X86359573Y-55118495D02*
G75*
G02X80010001Y-55117999I-3174573J2730995D01*
G01*
X111759999Y-68707001D02*
X111760000Y-74168000D01*
X105410000Y-68707000D02*
X105410000Y-74168000D01*
X105410427Y-68706505D02*
G75*
G02X111759999Y-68707001I3174573J-2730995D01*
G01*
X111759573Y-74168495D02*
G75*
G02X105410001Y-74167999I-3174573J2730995D01*
G01*
X111759573Y-55118495D02*
G75*
G02X105410001Y-55117999I-3174573J2730995D01*
G01*
X105410427Y-49656505D02*
G75*
G02X111759999Y-49657001I3174573J-2730995D01*
G01*
X105410000Y-49657000D02*
X105410000Y-55118000D01*
X111759999Y-49657001D02*
X111760000Y-55118000D01*
X137159999Y-49657001D02*
X137160000Y-55118000D01*
X130810000Y-49657000D02*
X130810000Y-55118000D01*
X130810427Y-49656505D02*
G75*
G02X137159999Y-49657001I3174573J-2730995D01*
G01*
X137159573Y-55118495D02*
G75*
G02X130810001Y-55117999I-3174573J2730995D01*
G01*
M02*
