G04 #@! TF.GenerationSoftware,KiCad,Pcbnew,(5.1.2-1)-1*
G04 #@! TF.CreationDate,2019-08-21T15:26:35+02:00*
G04 #@! TF.ProjectId,Benjolin_Panel,42656e6a-6f6c-4696-9e5f-50616e656c2e,rev?*
G04 #@! TF.SameCoordinates,Original*
G04 #@! TF.FileFunction,Copper,L2,Bot*
G04 #@! TF.FilePolarity,Positive*
%FSLAX46Y46*%
G04 Gerber Fmt 4.6, Leading zero omitted, Abs format (unit mm)*
G04 Created by KiCad (PCBNEW (5.1.2-1)-1) date 2019-08-21 15:26:35*
%MOMM*%
%LPD*%
G04 APERTURE LIST*
%ADD10C,0.150000*%
G04 APERTURE END LIST*
D10*
X173990000Y-190500000D02*
X68580000Y-190500000D01*
X173990000Y-12700000D02*
G75*
G02X175260000Y-13970000I0J-1270000D01*
G01*
X68580000Y-12700000D02*
X173990000Y-12700000D01*
X67310000Y-189230000D02*
X67310000Y-13970000D01*
X68580000Y-190500000D02*
G75*
G02X67310000Y-189230000I0J1270000D01*
G01*
X175260000Y-189230000D02*
G75*
G02X173990000Y-190500000I-1270000J0D01*
G01*
X67310000Y-13970000D02*
G75*
G02X68580000Y-12700000I1270000J0D01*
G01*
X175260000Y-13970000D02*
X175260000Y-189230000D01*
X112085000Y-147637500D02*
G75*
G03X112085000Y-147637500I-3500000J0D01*
G01*
X137485000Y-128587500D02*
G75*
G03X137485000Y-128587500I-3500000J0D01*
G01*
X86685000Y-128587500D02*
G75*
G03X86685000Y-128587500I-3500000J0D01*
G01*
X137485000Y-166687500D02*
G75*
G03X137485000Y-166687500I-3500000J0D01*
G01*
X162885000Y-128587500D02*
G75*
G03X162885000Y-128587500I-3500000J0D01*
G01*
X167735000Y-19050000D02*
G75*
G03X167735000Y-19050000I-2000000J0D01*
G01*
X137485000Y-147637500D02*
G75*
G03X137485000Y-147637500I-3500000J0D01*
G01*
X78835000Y-184150000D02*
G75*
G03X78835000Y-184150000I-2000000J0D01*
G01*
X112085000Y-128587500D02*
G75*
G03X112085000Y-128587500I-3500000J0D01*
G01*
X137485000Y-33337500D02*
G75*
G03X137485000Y-33337500I-3500000J0D01*
G01*
X112085000Y-166687500D02*
G75*
G03X112085000Y-166687500I-3500000J0D01*
G01*
X112077500Y-33337500D02*
G75*
G03X112077500Y-33337500I-3500000J0D01*
G01*
X86685000Y-147637500D02*
G75*
G03X86685000Y-147637500I-3500000J0D01*
G01*
X167735000Y-184150000D02*
G75*
G03X167735000Y-184150000I-2000000J0D01*
G01*
X162885000Y-166687500D02*
G75*
G03X162885000Y-166687500I-3500000J0D01*
G01*
X86685000Y-166687500D02*
G75*
G03X86685000Y-166687500I-3500000J0D01*
G01*
X86685000Y-33337500D02*
G75*
G03X86685000Y-33337500I-3500000J0D01*
G01*
X78835000Y-19050000D02*
G75*
G03X78835000Y-19050000I-2000000J0D01*
G01*
X162385000Y-147645000D02*
G75*
G03X162385000Y-147645000I-3000000J0D01*
G01*
X163550600Y-52387500D02*
G75*
G03X163550600Y-52387500I-4165600J0D01*
G01*
X138150600Y-90487500D02*
G75*
G03X138150600Y-90487500I-4165600J0D01*
G01*
X112750600Y-109537500D02*
G75*
G03X112750600Y-109537500I-4165600J0D01*
G01*
X87350600Y-71437500D02*
G75*
G03X87350600Y-71437500I-4165600J0D01*
G01*
X87350600Y-90487500D02*
G75*
G03X87350600Y-90487500I-4165600J0D01*
G01*
X138150600Y-109537500D02*
G75*
G03X138150600Y-109537500I-4165600J0D01*
G01*
X163550600Y-90487500D02*
G75*
G03X163550600Y-90487500I-4165600J0D01*
G01*
X163550600Y-109537500D02*
G75*
G03X163550600Y-109537500I-4165600J0D01*
G01*
X87350600Y-109537500D02*
G75*
G03X87350600Y-109537500I-4165600J0D01*
G01*
X163550600Y-33337500D02*
G75*
G03X163550600Y-33337500I-4165600J0D01*
G01*
X163550600Y-71437500D02*
G75*
G03X163550600Y-71437500I-4165600J0D01*
G01*
X112750600Y-90487500D02*
G75*
G03X112750600Y-90487500I-4165600J0D01*
G01*
X138150600Y-71437500D02*
G75*
G03X138150600Y-71437500I-4165600J0D01*
G01*
X87350600Y-52387500D02*
G75*
G03X87350600Y-52387500I-4165600J0D01*
G01*
X112750600Y-71437500D02*
G75*
G03X112750600Y-71437500I-4165600J0D01*
G01*
X112750600Y-52387500D02*
G75*
G03X112750600Y-52387500I-4165600J0D01*
G01*
X138150600Y-52387500D02*
G75*
G03X138150600Y-52387500I-4165600J0D01*
G01*
M02*
